<svg width="800" height="600" viewBox="0 0 800 600" fill="none" xmlns="http://www.w3.org/2000/svg">
<rect width="800" height="600" fill="#F8FAFC"/>
<rect x="323" y="94" width="100" height="100" rx="12" fill="#009951"/>
<path d="M372.852 124H370.386C370.241 123.291 369.985 122.668 369.621 122.131C369.263 121.594 368.825 121.143 368.308 120.778C367.798 120.407 367.231 120.129 366.608 119.943C365.985 119.758 365.335 119.665 364.659 119.665C363.426 119.665 362.309 119.976 361.308 120.599C360.314 121.223 359.522 122.141 358.932 123.354C358.348 124.567 358.057 126.055 358.057 127.818C358.057 129.581 358.348 131.07 358.932 132.283C359.522 133.496 360.314 134.414 361.308 135.037C362.309 135.66 363.426 135.972 364.659 135.972C365.335 135.972 365.985 135.879 366.608 135.693C367.231 135.508 367.798 135.232 368.308 134.868C368.825 134.497 369.263 134.043 369.621 133.506C369.985 132.962 370.241 132.339 370.386 131.636H372.852C372.667 132.677 372.329 133.608 371.838 134.43C371.348 135.252 370.738 135.952 370.009 136.528C369.279 137.098 368.461 137.533 367.553 137.831C366.651 138.129 365.687 138.278 364.659 138.278C362.922 138.278 361.378 137.854 360.026 137.006C358.673 136.157 357.609 134.951 356.834 133.386C356.058 131.822 355.67 129.966 355.67 127.818C355.67 125.67 356.058 123.814 356.834 122.25C357.609 120.686 358.673 119.479 360.026 118.631C361.378 117.782 362.922 117.358 364.659 117.358C365.687 117.358 366.651 117.507 367.553 117.805C368.461 118.104 369.279 118.541 370.009 119.118C370.738 119.688 371.348 120.384 371.838 121.206C372.329 122.021 372.667 122.953 372.852 124ZM363.625 138.08H365.574L365.415 138.875C365.932 138.955 366.406 139.17 366.837 139.521C367.268 139.879 367.483 140.446 367.483 141.222C367.483 142.077 367.128 142.773 366.419 143.31C365.716 143.853 364.679 144.125 363.307 144.125L363.227 142.574C363.844 142.574 364.354 142.474 364.759 142.276C365.17 142.083 365.375 141.759 365.375 141.301C365.375 140.844 365.206 140.532 364.868 140.366C364.53 140.201 363.983 140.088 363.227 140.028L363.625 138.08ZM363.744 172L367.085 151.636H369.074L365.733 172H363.744ZM354.477 166.352L354.795 164.364H369.989L369.67 166.352H354.477ZM356.585 172L359.926 151.636H361.915L358.574 172H356.585ZM355.67 159.273L355.989 157.284H371.182L370.864 159.273H355.67ZM373.772 172V170.21L380.494 162.852C381.282 161.991 381.932 161.241 382.442 160.605C382.953 159.962 383.331 159.359 383.576 158.795C383.828 158.225 383.954 157.629 383.954 157.006C383.954 156.29 383.781 155.67 383.437 155.146C383.099 154.623 382.635 154.218 382.045 153.933C381.455 153.648 380.792 153.506 380.056 153.506C379.274 153.506 378.591 153.668 378.008 153.993C377.431 154.311 376.984 154.759 376.665 155.335C376.354 155.912 376.198 156.588 376.198 157.364H373.852C373.852 156.17 374.127 155.123 374.677 154.222C375.227 153.32 375.976 152.617 376.924 152.114C377.879 151.61 378.949 151.358 380.136 151.358C381.329 151.358 382.386 151.61 383.308 152.114C384.229 152.617 384.951 153.297 385.475 154.152C385.999 155.007 386.261 155.958 386.261 157.006C386.261 157.755 386.125 158.487 385.853 159.203C385.588 159.912 385.124 160.705 384.461 161.58C383.805 162.448 382.893 163.509 381.727 164.761L377.153 169.653V169.812H386.619V172H373.772Z" fill="white"/>
<rect x="443" y="94" width="100" height="100" rx="12" fill="#009951"/>
<path d="M492.852 124H490.386C490.241 123.291 489.985 122.668 489.621 122.131C489.263 121.594 488.825 121.143 488.308 120.778C487.798 120.407 487.231 120.129 486.608 119.943C485.985 119.758 485.335 119.665 484.659 119.665C483.426 119.665 482.309 119.976 481.308 120.599C480.314 121.223 479.522 122.141 478.932 123.354C478.348 124.567 478.057 126.055 478.057 127.818C478.057 129.581 478.348 131.07 478.932 132.283C479.522 133.496 480.314 134.414 481.308 135.037C482.309 135.66 483.426 135.972 484.659 135.972C485.335 135.972 485.985 135.879 486.608 135.693C487.231 135.508 487.798 135.232 488.308 134.868C488.825 134.497 489.263 134.043 489.621 133.506C489.985 132.962 490.241 132.339 490.386 131.636H492.852C492.667 132.677 492.329 133.608 491.838 134.43C491.348 135.252 490.738 135.952 490.009 136.528C489.279 137.098 488.461 137.533 487.553 137.831C486.651 138.129 485.687 138.278 484.659 138.278C482.922 138.278 481.378 137.854 480.026 137.006C478.673 136.157 477.609 134.951 476.834 133.386C476.058 131.822 475.67 129.966 475.67 127.818C475.67 125.67 476.058 123.814 476.834 122.25C477.609 120.686 478.673 119.479 480.026 118.631C481.378 117.782 482.922 117.358 484.659 117.358C485.687 117.358 486.651 117.507 487.553 117.805C488.461 118.104 489.279 118.541 490.009 119.118C490.738 119.688 491.348 120.384 491.838 121.206C492.329 122.021 492.667 122.953 492.852 124ZM483.625 138.08H485.574L485.415 138.875C485.932 138.955 486.406 139.17 486.837 139.521C487.268 139.879 487.483 140.446 487.483 141.222C487.483 142.077 487.128 142.773 486.419 143.31C485.716 143.853 484.679 144.125 483.307 144.125L483.227 142.574C483.844 142.574 484.354 142.474 484.759 142.276C485.17 142.083 485.375 141.759 485.375 141.301C485.375 140.844 485.206 140.532 484.868 140.366C484.53 140.201 483.983 140.088 483.227 140.028L483.625 138.08ZM483.744 172L487.085 151.636H489.074L485.733 172H483.744ZM474.477 166.352L474.795 164.364H489.989L489.67 166.352H474.477ZM476.585 172L479.926 151.636H481.915L478.574 172H476.585ZM475.67 159.273L475.989 157.284H491.182L490.864 159.273H475.67ZM500.653 172.278C499.34 172.278 498.17 172.053 497.143 171.602C496.122 171.152 495.31 170.525 494.707 169.723C494.11 168.914 493.785 167.976 493.732 166.909H496.238C496.291 167.565 496.516 168.132 496.914 168.609C497.312 169.08 497.832 169.445 498.475 169.703C499.118 169.962 499.831 170.091 500.613 170.091C501.488 170.091 502.263 169.938 502.94 169.634C503.616 169.329 504.146 168.904 504.531 168.361C504.915 167.817 505.107 167.188 505.107 166.472C505.107 165.723 504.922 165.063 504.55 164.493C504.179 163.916 503.636 163.465 502.92 163.141C502.204 162.816 501.329 162.653 500.295 162.653H498.664V160.466H500.295C501.103 160.466 501.813 160.32 502.423 160.028C503.039 159.737 503.52 159.326 503.864 158.795C504.216 158.265 504.391 157.642 504.391 156.926C504.391 156.237 504.239 155.637 503.934 155.126C503.629 154.616 503.198 154.218 502.641 153.933C502.091 153.648 501.442 153.506 500.692 153.506C499.99 153.506 499.327 153.635 498.704 153.893C498.087 154.145 497.584 154.513 497.192 154.997C496.801 155.474 496.589 156.051 496.556 156.727H494.17C494.21 155.66 494.531 154.725 495.134 153.923C495.737 153.115 496.526 152.485 497.501 152.034C498.482 151.583 499.559 151.358 500.732 151.358C501.992 151.358 503.072 151.613 503.974 152.124C504.875 152.627 505.568 153.294 506.052 154.122C506.536 154.951 506.778 155.846 506.778 156.807C506.778 157.954 506.476 158.931 505.873 159.74C505.276 160.549 504.464 161.109 503.437 161.42V161.58C504.723 161.792 505.727 162.339 506.45 163.22C507.172 164.095 507.533 165.179 507.533 166.472C507.533 167.579 507.232 168.573 506.629 169.455C506.032 170.33 505.217 171.019 504.183 171.523C503.148 172.027 501.972 172.278 500.653 172.278Z" fill="white"/>
<rect x="563" y="94" width="100" height="100" rx="12" fill="#009951"/>
<path d="M612.852 124H610.386C610.241 123.291 609.985 122.668 609.621 122.131C609.263 121.594 608.825 121.143 608.308 120.778C607.798 120.407 607.231 120.129 606.608 119.943C605.985 119.758 605.335 119.665 604.659 119.665C603.426 119.665 602.309 119.976 601.308 120.599C600.314 121.223 599.522 122.141 598.932 123.354C598.348 124.567 598.057 126.055 598.057 127.818C598.057 129.581 598.348 131.07 598.932 132.283C599.522 133.496 600.314 134.414 601.308 135.037C602.309 135.66 603.426 135.972 604.659 135.972C605.335 135.972 605.985 135.879 606.608 135.693C607.231 135.508 607.798 135.232 608.308 134.868C608.825 134.497 609.263 134.043 609.621 133.506C609.985 132.962 610.241 132.339 610.386 131.636H612.852C612.667 132.677 612.329 133.608 611.838 134.43C611.348 135.252 610.738 135.952 610.009 136.528C609.279 137.098 608.461 137.533 607.553 137.831C606.651 138.129 605.687 138.278 604.659 138.278C602.922 138.278 601.378 137.854 600.026 137.006C598.673 136.157 597.609 134.951 596.834 133.386C596.058 131.822 595.67 129.966 595.67 127.818C595.67 125.67 596.058 123.814 596.834 122.25C597.609 120.686 598.673 119.479 600.026 118.631C601.378 117.782 602.922 117.358 604.659 117.358C605.687 117.358 606.651 117.507 607.553 117.805C608.461 118.104 609.279 118.541 610.009 119.118C610.738 119.688 611.348 120.384 611.838 121.206C612.329 122.021 612.667 122.953 612.852 124ZM603.625 138.08H605.574L605.415 138.875C605.932 138.955 606.406 139.17 606.837 139.521C607.268 139.879 607.483 140.446 607.483 141.222C607.483 142.077 607.128 142.773 606.419 143.31C605.716 143.853 604.679 144.125 603.307 144.125L603.227 142.574C603.844 142.574 604.354 142.474 604.759 142.276C605.17 142.083 605.375 141.759 605.375 141.301C605.375 140.844 605.206 140.532 604.868 140.366C604.53 140.201 603.983 140.088 603.227 140.028L603.625 138.08ZM603.744 172L607.085 151.636H609.074L605.733 172H603.744ZM594.477 166.352L594.795 164.364H609.989L609.67 166.352H594.477ZM596.585 172L599.926 151.636H601.915L598.574 172H596.585ZM595.67 159.273L595.989 157.284H611.182L610.864 159.273H595.67ZM613.295 167.824V165.795L622.244 151.636H623.715V154.778H622.721L615.96 165.477V165.636H628.011V167.824H613.295ZM622.88 172V167.207V166.263V151.636H625.227V172H622.88Z" fill="white"/>
<rect x="683" y="94" width="100" height="100" rx="12" fill="#009951"/>
<path d="M732.852 124H730.386C730.241 123.291 729.985 122.668 729.621 122.131C729.263 121.594 728.825 121.143 728.308 120.778C727.798 120.407 727.231 120.129 726.608 119.943C725.985 119.758 725.335 119.665 724.659 119.665C723.426 119.665 722.309 119.976 721.308 120.599C720.314 121.223 719.522 122.141 718.932 123.354C718.348 124.567 718.057 126.055 718.057 127.818C718.057 129.581 718.348 131.07 718.932 132.283C719.522 133.496 720.314 134.414 721.308 135.037C722.309 135.66 723.426 135.972 724.659 135.972C725.335 135.972 725.985 135.879 726.608 135.693C727.231 135.508 727.798 135.232 728.308 134.868C728.825 134.497 729.263 134.043 729.621 133.506C729.985 132.962 730.241 132.339 730.386 131.636H732.852C732.667 132.677 732.329 133.608 731.838 134.43C731.348 135.252 730.738 135.952 730.009 136.528C729.279 137.098 728.461 137.533 727.553 137.831C726.651 138.129 725.687 138.278 724.659 138.278C722.922 138.278 721.378 137.854 720.026 137.006C718.673 136.157 717.609 134.951 716.834 133.386C716.058 131.822 715.67 129.966 715.67 127.818C715.67 125.67 716.058 123.814 716.834 122.25C717.609 120.686 718.673 119.479 720.026 118.631C721.378 117.782 722.922 117.358 724.659 117.358C725.687 117.358 726.651 117.507 727.553 117.805C728.461 118.104 729.279 118.541 730.009 119.118C730.738 119.688 731.348 120.384 731.838 121.206C732.329 122.021 732.667 122.953 732.852 124ZM723.625 138.08H725.574L725.415 138.875C725.932 138.955 726.406 139.17 726.837 139.521C727.268 139.879 727.483 140.446 727.483 141.222C727.483 142.077 727.128 142.773 726.419 143.31C725.716 143.853 724.679 144.125 723.307 144.125L723.227 142.574C723.844 142.574 724.354 142.474 724.759 142.276C725.17 142.083 725.375 141.759 725.375 141.301C725.375 140.844 725.206 140.532 724.868 140.366C724.53 140.201 723.983 140.088 723.227 140.028L723.625 138.08ZM723.744 172L727.085 151.636H729.074L725.733 172H723.744ZM714.477 166.352L714.795 164.364H729.989L729.67 166.352H714.477ZM716.585 172L719.926 151.636H721.915L718.574 172H716.585ZM715.67 159.273L715.989 157.284H731.182L730.864 159.273H715.67ZM740.136 172.278C738.969 172.278 737.918 172.046 736.984 171.582C736.049 171.118 735.3 170.482 734.737 169.673C734.173 168.865 733.865 167.943 733.812 166.909H736.198C736.291 167.83 736.709 168.593 737.451 169.196C738.2 169.793 739.095 170.091 740.136 170.091C740.971 170.091 741.713 169.895 742.363 169.504C743.019 169.113 743.533 168.576 743.904 167.893C744.282 167.204 744.471 166.425 744.471 165.557C744.471 164.669 744.275 163.876 743.884 163.18C743.5 162.478 742.969 161.924 742.293 161.52C741.617 161.116 740.845 160.91 739.977 160.903C739.353 160.897 738.714 160.993 738.058 161.192C737.401 161.384 736.861 161.633 736.437 161.938L734.13 161.659L735.363 151.636H745.942V153.824H737.431L736.715 159.83H736.835C737.252 159.498 737.776 159.223 738.406 159.004C739.035 158.786 739.692 158.676 740.374 158.676C741.621 158.676 742.731 158.974 743.705 159.571C744.686 160.161 745.455 160.97 746.012 161.997C746.576 163.025 746.857 164.198 746.857 165.517C746.857 166.816 746.566 167.976 745.982 168.997C745.406 170.011 744.61 170.813 743.596 171.403C742.582 171.987 741.428 172.278 740.136 172.278Z" fill="white"/>
<rect x="203" y="94" width="100" height="100" rx="12" fill="#009951"/>
<path d="M252.852 124H250.386C250.241 123.291 249.985 122.668 249.621 122.131C249.263 121.594 248.825 121.143 248.308 120.778C247.798 120.407 247.231 120.129 246.608 119.943C245.985 119.758 245.335 119.665 244.659 119.665C243.426 119.665 242.309 119.976 241.308 120.599C240.314 121.223 239.522 122.141 238.932 123.354C238.348 124.567 238.057 126.055 238.057 127.818C238.057 129.581 238.348 131.07 238.932 132.283C239.522 133.496 240.314 134.414 241.308 135.037C242.309 135.66 243.426 135.972 244.659 135.972C245.335 135.972 245.985 135.879 246.608 135.693C247.231 135.508 247.798 135.232 248.308 134.868C248.825 134.497 249.263 134.043 249.621 133.506C249.985 132.962 250.241 132.339 250.386 131.636H252.852C252.667 132.677 252.329 133.608 251.838 134.43C251.348 135.252 250.738 135.952 250.009 136.528C249.279 137.098 248.461 137.533 247.553 137.831C246.651 138.129 245.687 138.278 244.659 138.278C242.922 138.278 241.378 137.854 240.026 137.006C238.673 136.157 237.609 134.951 236.834 133.386C236.058 131.822 235.67 129.966 235.67 127.818C235.67 125.67 236.058 123.814 236.834 122.25C237.609 120.686 238.673 119.479 240.026 118.631C241.378 117.782 242.922 117.358 244.659 117.358C245.687 117.358 246.651 117.507 247.553 117.805C248.461 118.104 249.279 118.541 250.009 119.118C250.738 119.688 251.348 120.384 251.838 121.206C252.329 122.021 252.667 122.953 252.852 124ZM243.625 138.08H245.574L245.415 138.875C245.932 138.955 246.406 139.17 246.837 139.521C247.268 139.879 247.483 140.446 247.483 141.222C247.483 142.077 247.128 142.773 246.419 143.31C245.716 143.853 244.679 144.125 243.307 144.125L243.227 142.574C243.844 142.574 244.354 142.474 244.759 142.276C245.17 142.083 245.375 141.759 245.375 141.301C245.375 140.844 245.206 140.532 244.868 140.366C244.53 140.201 243.983 140.088 243.227 140.028L243.625 138.08ZM243.744 172L247.085 151.636H249.074L245.733 172H243.744ZM234.477 166.352L234.795 164.364H249.989L249.67 166.352H234.477ZM236.585 172L239.926 151.636H241.915L238.574 172H236.585ZM235.67 159.273L235.989 157.284H251.182L250.864 159.273H235.67ZM260.931 151.636V172H258.465V154.222H258.346L253.374 157.523V155.017L258.465 151.636H260.931Z" fill="white"/>
<rect x="3" y="144" width="100" height="100" rx="12" fill="#BF6A02"/>
<path d="M36.4659 188V167.636H38.9318V177.739H39.1705L48.3182 167.636H51.5398L42.9886 176.824L51.5398 188H48.5568L41.4773 178.534L38.9318 181.398V188H36.4659ZM43.7443 222L47.0852 201.636H49.0739L45.733 222H43.7443ZM34.4773 216.352L34.7955 214.364H49.9886L49.6705 216.352H34.4773ZM36.5852 222L39.9261 201.636H41.9148L38.5739 222H36.5852ZM35.6705 209.273L35.9886 207.284H51.1818L50.8636 209.273H35.6705ZM60.9311 201.636V222H58.4652V204.222H58.3459L53.3743 207.523V205.017L58.4652 201.636H60.9311Z" fill="white"/>
<rect x="203" y="490" width="100" height="100" rx="12" fill="#BF6A02"/>
<path d="M236.466 534V513.636H238.932V523.739H239.17L248.318 513.636H251.54L242.989 522.824L251.54 534H248.557L241.477 524.534L238.932 527.398V534H236.466ZM243.744 568L247.085 547.636H249.074L245.733 568H243.744ZM234.477 562.352L234.795 560.364H249.989L249.67 562.352H234.477ZM236.585 568L239.926 547.636H241.915L238.574 568H236.585ZM235.67 555.273L235.989 553.284H251.182L250.864 555.273H235.67ZM253.772 568V566.21L260.494 558.852C261.282 557.991 261.932 557.241 262.442 556.605C262.953 555.962 263.331 555.359 263.576 554.795C263.828 554.225 263.954 553.629 263.954 553.006C263.954 552.29 263.781 551.67 263.437 551.146C263.099 550.623 262.635 550.218 262.045 549.933C261.455 549.648 260.792 549.506 260.056 549.506C259.274 549.506 258.591 549.668 258.008 549.993C257.431 550.311 256.984 550.759 256.665 551.335C256.354 551.912 256.198 552.588 256.198 553.364H253.852C253.852 552.17 254.127 551.123 254.677 550.222C255.227 549.32 255.976 548.617 256.924 548.114C257.879 547.61 258.949 547.358 260.136 547.358C261.329 547.358 262.386 547.61 263.308 548.114C264.229 548.617 264.951 549.297 265.475 550.152C265.999 551.007 266.261 551.958 266.261 553.006C266.261 553.755 266.125 554.487 265.853 555.203C265.588 555.912 265.124 556.705 264.461 557.58C263.805 558.448 262.893 559.509 261.727 560.761L257.153 565.653V565.812H266.619V568H253.772Z" fill="white"/>
<rect x="3" y="385" width="31" height="186" fill="#D9D9D9"/>
<path d="M27.0002 509.233L6.63652 509.231L6.6369 504.925L15.6156 504.926L15.6156 504.658L6.63758 497.329L6.63804 492.168L15.7553 499.726L27.0017 492.081L27.0012 497.231L18.6286 502.808L21.2136 504.927L27.0005 504.927L27.0002 509.233ZM27.0022 486.418L27.0018 491.032L6.63876 484L6.63926 478.452L27.0035 471.434L27.0031 476.047L11.2924 481.147L11.2924 481.306L27.0022 486.418ZM18.9979 486.706L18.9989 475.808L22.3597 475.808L22.3587 486.706L18.9979 486.706ZM27.0037 468.983L6.6401 468.981L6.64081 460.947C6.64095 459.402 6.93605 458.086 7.52611 456.999C8.10954 455.912 8.92164 455.084 9.96241 454.514C10.9965 453.937 12.1898 453.649 13.542 453.649C14.8943 453.649 16.0875 453.941 17.1215 454.524C18.1555 455.108 18.9609 455.953 19.5375 457.06C20.1141 458.16 20.4023 459.493 20.4022 461.057L20.4017 466.178L16.9514 466.178L16.9518 461.753C16.9519 460.924 16.8094 460.242 16.5244 459.705C16.2328 459.161 15.8318 458.757 15.3214 458.491C14.8044 458.22 14.2111 458.084 13.5416 458.084C12.8655 458.084 12.2755 458.219 11.7717 458.491C11.2613 458.756 10.8668 459.161 10.5884 459.704C10.3033 460.248 10.1607 460.937 10.1606 461.772L10.1604 464.676L27.0041 464.677L27.0037 468.983ZM6.64209 446.546L27.0057 446.548L27.0053 450.854L6.64171 450.852L6.64209 446.546Z" fill="black"/>
<path d="M585.852 503H583.386C583.241 502.291 582.985 501.668 582.621 501.131C582.263 500.594 581.825 500.143 581.308 499.778C580.798 499.407 580.231 499.129 579.608 498.943C578.985 498.758 578.335 498.665 577.659 498.665C576.426 498.665 575.309 498.976 574.308 499.599C573.314 500.223 572.522 501.141 571.932 502.354C571.348 503.567 571.057 505.055 571.057 506.818C571.057 508.581 571.348 510.07 571.932 511.283C572.522 512.496 573.314 513.414 574.308 514.037C575.309 514.66 576.426 514.972 577.659 514.972C578.335 514.972 578.985 514.879 579.608 514.693C580.231 514.508 580.798 514.232 581.308 513.868C581.825 513.497 582.263 513.043 582.621 512.506C582.985 511.962 583.241 511.339 583.386 510.636H585.852C585.667 511.677 585.329 512.608 584.838 513.43C584.348 514.252 583.738 514.952 583.009 515.528C582.279 516.098 581.461 516.533 580.553 516.831C579.651 517.129 578.687 517.278 577.659 517.278C575.922 517.278 574.378 516.854 573.026 516.006C571.673 515.157 570.609 513.951 569.834 512.386C569.058 510.822 568.67 508.966 568.67 506.818C568.67 504.67 569.058 502.814 569.834 501.25C570.609 499.686 571.673 498.479 573.026 497.631C574.378 496.782 575.922 496.358 577.659 496.358C578.687 496.358 579.651 496.507 580.553 496.805C581.461 497.104 582.279 497.541 583.009 498.118C583.738 498.688 584.348 499.384 584.838 500.206C585.329 501.021 585.667 501.953 585.852 503ZM597.712 517V496.636H604.831C606.25 496.636 607.42 496.882 608.341 497.372C609.263 497.856 609.949 498.509 610.4 499.331C610.85 500.146 611.076 501.051 611.076 502.045C611.076 502.92 610.92 503.643 610.608 504.213C610.303 504.783 609.899 505.234 609.395 505.565C608.898 505.897 608.358 506.142 607.775 506.301V506.5C608.398 506.54 609.024 506.759 609.654 507.156C610.284 507.554 610.81 508.124 611.235 508.866C611.659 509.609 611.871 510.517 611.871 511.591C611.871 512.612 611.639 513.53 611.175 514.345C610.711 515.161 609.979 515.807 608.978 516.284C607.977 516.761 606.674 517 605.07 517H597.712ZM600.178 514.812H605.07C606.681 514.812 607.824 514.501 608.5 513.878C609.183 513.248 609.525 512.486 609.525 511.591C609.525 510.902 609.349 510.265 608.998 509.682C608.646 509.092 608.146 508.621 607.496 508.27C606.846 507.912 606.078 507.733 605.189 507.733H600.178V514.812ZM600.178 505.585H604.752C605.494 505.585 606.164 505.439 606.76 505.148C607.364 504.856 607.841 504.445 608.192 503.915C608.55 503.384 608.729 502.761 608.729 502.045C608.729 501.151 608.417 500.392 607.794 499.768C607.171 499.139 606.184 498.824 604.831 498.824H600.178V505.585ZM615.923 517V496.636H618.389V514.812H627.855V517H615.923ZM648.062 506.818C648.062 508.966 647.674 510.822 646.898 512.386C646.123 513.951 645.059 515.157 643.707 516.006C642.354 516.854 640.81 517.278 639.073 517.278C637.336 517.278 635.792 516.854 634.44 516.006C633.087 515.157 632.023 513.951 631.248 512.386C630.472 510.822 630.085 508.966 630.085 506.818C630.085 504.67 630.472 502.814 631.248 501.25C632.023 499.686 633.087 498.479 634.44 497.631C635.792 496.782 637.336 496.358 639.073 496.358C640.81 496.358 642.354 496.782 643.707 497.631C645.059 498.479 646.123 499.686 646.898 501.25C647.674 502.814 648.062 504.67 648.062 506.818ZM645.675 506.818C645.675 505.055 645.38 503.567 644.79 502.354C644.207 501.141 643.415 500.223 642.414 499.599C641.42 498.976 640.306 498.665 639.073 498.665C637.84 498.665 636.723 498.976 635.722 499.599C634.728 500.223 633.936 501.141 633.346 502.354C632.763 503.567 632.471 505.055 632.471 506.818C632.471 508.581 632.763 510.07 633.346 511.283C633.936 512.496 634.728 513.414 635.722 514.037C636.723 514.66 637.84 514.972 639.073 514.972C640.306 514.972 641.42 514.66 642.414 514.037C643.415 513.414 644.207 512.496 644.79 511.283C645.38 510.07 645.675 508.581 645.675 506.818ZM652.208 517V496.636H654.674V506.739H654.913L664.06 496.636H667.282L658.731 505.824L667.282 517H664.299L657.219 507.534L654.674 510.398V517H652.208ZM678.349 517V496.636H680.815V506.739H681.053L690.201 496.636H693.423L684.871 505.824L693.423 517H690.44L683.36 507.534L680.815 510.398V517H678.349ZM697.45 517H694.864L702.342 496.636H704.887L712.364 517H709.779L703.694 499.858H703.535L697.45 517ZM698.404 509.045H708.825V511.233H698.404V509.045ZM712.044 498.824V496.636H727.316V498.824H720.913V517H718.447V498.824H712.044ZM745.798 496.636V517H743.332V499.222H743.213L738.241 502.523V500.017L743.332 496.636H745.798Z" fill="black"/>
</svg>
