<svg width="800" height="600" viewBox="0 0 800 600" fill="none" xmlns="http://www.w3.org/2000/svg">
<rect width="800" height="600" fill="#F8FAFC"/>
<rect x="340" y="100" width="100" height="100" rx="12" fill="#009951"/>
<path d="M389.852 130H387.386C387.241 129.291 386.985 128.668 386.621 128.131C386.263 127.594 385.825 127.143 385.308 126.778C384.798 126.407 384.231 126.129 383.608 125.943C382.985 125.758 382.335 125.665 381.659 125.665C380.426 125.665 379.309 125.976 378.308 126.599C377.314 127.223 376.522 128.141 375.932 129.354C375.348 130.567 375.057 132.055 375.057 133.818C375.057 135.581 375.348 137.07 375.932 138.283C376.522 139.496 377.314 140.414 378.308 141.037C379.309 141.66 380.426 141.972 381.659 141.972C382.335 141.972 382.985 141.879 383.608 141.693C384.231 141.508 384.798 141.232 385.308 140.868C385.825 140.497 386.263 140.043 386.621 139.506C386.985 138.962 387.241 138.339 387.386 137.636H389.852C389.667 138.677 389.329 139.608 388.838 140.43C388.348 141.252 387.738 141.952 387.009 142.528C386.279 143.098 385.461 143.533 384.553 143.831C383.651 144.129 382.687 144.278 381.659 144.278C379.922 144.278 378.378 143.854 377.026 143.006C375.673 142.157 374.609 140.951 373.834 139.386C373.058 137.822 372.67 135.966 372.67 133.818C372.67 131.67 373.058 129.814 373.834 128.25C374.609 126.686 375.673 125.479 377.026 124.631C378.378 123.782 379.922 123.358 381.659 123.358C382.687 123.358 383.651 123.507 384.553 123.805C385.461 124.104 386.279 124.541 387.009 125.118C387.738 125.688 388.348 126.384 388.838 127.206C389.329 128.021 389.667 128.953 389.852 130ZM380.625 144.08H382.574L382.415 144.875C382.932 144.955 383.406 145.17 383.837 145.521C384.268 145.879 384.483 146.446 384.483 147.222C384.483 148.077 384.128 148.773 383.419 149.31C382.716 149.853 381.679 150.125 380.307 150.125L380.227 148.574C380.844 148.574 381.354 148.474 381.759 148.276C382.17 148.083 382.375 147.759 382.375 147.301C382.375 146.844 382.206 146.532 381.868 146.366C381.53 146.201 380.983 146.088 380.227 146.028L380.625 144.08ZM380.744 178L384.085 157.636H386.074L382.733 178H380.744ZM371.477 172.352L371.795 170.364H386.989L386.67 172.352H371.477ZM373.585 178L376.926 157.636H378.915L375.574 178H373.585ZM372.67 165.273L372.989 163.284H388.182L387.864 165.273H372.67ZM390.772 178V176.21L397.494 168.852C398.282 167.991 398.932 167.241 399.442 166.605C399.953 165.962 400.331 165.359 400.576 164.795C400.828 164.225 400.954 163.629 400.954 163.006C400.954 162.29 400.781 161.67 400.437 161.146C400.099 160.623 399.635 160.218 399.045 159.933C398.455 159.648 397.792 159.506 397.056 159.506C396.274 159.506 395.591 159.668 395.008 159.993C394.431 160.311 393.984 160.759 393.665 161.335C393.354 161.912 393.198 162.588 393.198 163.364H390.852C390.852 162.17 391.127 161.123 391.677 160.222C392.227 159.32 392.976 158.617 393.924 158.114C394.879 157.61 395.949 157.358 397.136 157.358C398.329 157.358 399.386 157.61 400.308 158.114C401.229 158.617 401.951 159.297 402.475 160.152C402.999 161.007 403.261 161.958 403.261 163.006C403.261 163.755 403.125 164.487 402.853 165.203C402.588 165.912 402.124 166.705 401.461 167.58C400.805 168.448 399.893 169.509 398.727 170.761L394.153 175.653V175.812H403.619V178H390.772Z" fill="white"/>
<rect x="460" y="100" width="100" height="100" rx="12" fill="#009951"/>
<path d="M509.852 130H507.386C507.241 129.291 506.985 128.668 506.621 128.131C506.263 127.594 505.825 127.143 505.308 126.778C504.798 126.407 504.231 126.129 503.608 125.943C502.985 125.758 502.335 125.665 501.659 125.665C500.426 125.665 499.309 125.976 498.308 126.599C497.314 127.223 496.522 128.141 495.932 129.354C495.348 130.567 495.057 132.055 495.057 133.818C495.057 135.581 495.348 137.07 495.932 138.283C496.522 139.496 497.314 140.414 498.308 141.037C499.309 141.66 500.426 141.972 501.659 141.972C502.335 141.972 502.985 141.879 503.608 141.693C504.231 141.508 504.798 141.232 505.308 140.868C505.825 140.497 506.263 140.043 506.621 139.506C506.985 138.962 507.241 138.339 507.386 137.636H509.852C509.667 138.677 509.329 139.608 508.838 140.43C508.348 141.252 507.738 141.952 507.009 142.528C506.279 143.098 505.461 143.533 504.553 143.831C503.651 144.129 502.687 144.278 501.659 144.278C499.922 144.278 498.378 143.854 497.026 143.006C495.673 142.157 494.609 140.951 493.834 139.386C493.058 137.822 492.67 135.966 492.67 133.818C492.67 131.67 493.058 129.814 493.834 128.25C494.609 126.686 495.673 125.479 497.026 124.631C498.378 123.782 499.922 123.358 501.659 123.358C502.687 123.358 503.651 123.507 504.553 123.805C505.461 124.104 506.279 124.541 507.009 125.118C507.738 125.688 508.348 126.384 508.838 127.206C509.329 128.021 509.667 128.953 509.852 130ZM500.625 144.08H502.574L502.415 144.875C502.932 144.955 503.406 145.17 503.837 145.521C504.268 145.879 504.483 146.446 504.483 147.222C504.483 148.077 504.128 148.773 503.419 149.31C502.716 149.853 501.679 150.125 500.307 150.125L500.227 148.574C500.844 148.574 501.354 148.474 501.759 148.276C502.17 148.083 502.375 147.759 502.375 147.301C502.375 146.844 502.206 146.532 501.868 146.366C501.53 146.201 500.983 146.088 500.227 146.028L500.625 144.08ZM500.744 178L504.085 157.636H506.074L502.733 178H500.744ZM491.477 172.352L491.795 170.364H506.989L506.67 172.352H491.477ZM493.585 178L496.926 157.636H498.915L495.574 178H493.585ZM492.67 165.273L492.989 163.284H508.182L507.864 165.273H492.67ZM517.653 178.278C516.34 178.278 515.17 178.053 514.143 177.602C513.122 177.152 512.31 176.525 511.707 175.723C511.11 174.914 510.785 173.976 510.732 172.909H513.238C513.291 173.565 513.516 174.132 513.914 174.609C514.312 175.08 514.832 175.445 515.475 175.703C516.118 175.962 516.831 176.091 517.613 176.091C518.488 176.091 519.263 175.938 519.94 175.634C520.616 175.329 521.146 174.904 521.531 174.361C521.915 173.817 522.107 173.188 522.107 172.472C522.107 171.723 521.922 171.063 521.55 170.493C521.179 169.916 520.636 169.465 519.92 169.141C519.204 168.816 518.329 168.653 517.295 168.653H515.664V166.466H517.295C518.103 166.466 518.813 166.32 519.423 166.028C520.039 165.737 520.52 165.326 520.864 164.795C521.216 164.265 521.391 163.642 521.391 162.926C521.391 162.237 521.239 161.637 520.934 161.126C520.629 160.616 520.198 160.218 519.641 159.933C519.091 159.648 518.442 159.506 517.692 159.506C516.99 159.506 516.327 159.635 515.704 159.893C515.087 160.145 514.584 160.513 514.192 160.997C513.801 161.474 513.589 162.051 513.556 162.727H511.17C511.21 161.66 511.531 160.725 512.134 159.923C512.737 159.115 513.526 158.485 514.501 158.034C515.482 157.583 516.559 157.358 517.732 157.358C518.992 157.358 520.072 157.613 520.974 158.124C521.875 158.627 522.568 159.294 523.052 160.122C523.536 160.951 523.778 161.846 523.778 162.807C523.778 163.954 523.476 164.931 522.873 165.74C522.276 166.549 521.464 167.109 520.437 167.42V167.58C521.723 167.792 522.727 168.339 523.45 169.22C524.172 170.095 524.533 171.179 524.533 172.472C524.533 173.579 524.232 174.573 523.629 175.455C523.032 176.33 522.217 177.019 521.183 177.523C520.148 178.027 518.972 178.278 517.653 178.278Z" fill="white"/>
<rect x="580" y="100" width="100" height="100" rx="12" fill="#009951"/>
<path d="M629.852 130H627.386C627.241 129.291 626.985 128.668 626.621 128.131C626.263 127.594 625.825 127.143 625.308 126.778C624.798 126.407 624.231 126.129 623.608 125.943C622.985 125.758 622.335 125.665 621.659 125.665C620.426 125.665 619.309 125.976 618.308 126.599C617.314 127.223 616.522 128.141 615.932 129.354C615.348 130.567 615.057 132.055 615.057 133.818C615.057 135.581 615.348 137.07 615.932 138.283C616.522 139.496 617.314 140.414 618.308 141.037C619.309 141.66 620.426 141.972 621.659 141.972C622.335 141.972 622.985 141.879 623.608 141.693C624.231 141.508 624.798 141.232 625.308 140.868C625.825 140.497 626.263 140.043 626.621 139.506C626.985 138.962 627.241 138.339 627.386 137.636H629.852C629.667 138.677 629.329 139.608 628.838 140.43C628.348 141.252 627.738 141.952 627.009 142.528C626.279 143.098 625.461 143.533 624.553 143.831C623.651 144.129 622.687 144.278 621.659 144.278C619.922 144.278 618.378 143.854 617.026 143.006C615.673 142.157 614.609 140.951 613.834 139.386C613.058 137.822 612.67 135.966 612.67 133.818C612.67 131.67 613.058 129.814 613.834 128.25C614.609 126.686 615.673 125.479 617.026 124.631C618.378 123.782 619.922 123.358 621.659 123.358C622.687 123.358 623.651 123.507 624.553 123.805C625.461 124.104 626.279 124.541 627.009 125.118C627.738 125.688 628.348 126.384 628.838 127.206C629.329 128.021 629.667 128.953 629.852 130ZM620.625 144.08H622.574L622.415 144.875C622.932 144.955 623.406 145.17 623.837 145.521C624.268 145.879 624.483 146.446 624.483 147.222C624.483 148.077 624.128 148.773 623.419 149.31C622.716 149.853 621.679 150.125 620.307 150.125L620.227 148.574C620.844 148.574 621.354 148.474 621.759 148.276C622.17 148.083 622.375 147.759 622.375 147.301C622.375 146.844 622.206 146.532 621.868 146.366C621.53 146.201 620.983 146.088 620.227 146.028L620.625 144.08ZM620.744 178L624.085 157.636H626.074L622.733 178H620.744ZM611.477 172.352L611.795 170.364H626.989L626.67 172.352H611.477ZM613.585 178L616.926 157.636H618.915L615.574 178H613.585ZM612.67 165.273L612.989 163.284H628.182L627.864 165.273H612.67ZM630.295 173.824V171.795L639.244 157.636H640.715V160.778H639.721L632.96 171.477V171.636H645.011V173.824H630.295ZM639.88 178V173.207V172.263V157.636H642.227V178H639.88Z" fill="white"/>
<rect x="700" y="100" width="100" height="100" rx="12" fill="#009951"/>
<path d="M749.852 130H747.386C747.241 129.291 746.985 128.668 746.621 128.131C746.263 127.594 745.825 127.143 745.308 126.778C744.798 126.407 744.231 126.129 743.608 125.943C742.985 125.758 742.335 125.665 741.659 125.665C740.426 125.665 739.309 125.976 738.308 126.599C737.314 127.223 736.522 128.141 735.932 129.354C735.348 130.567 735.057 132.055 735.057 133.818C735.057 135.581 735.348 137.07 735.932 138.283C736.522 139.496 737.314 140.414 738.308 141.037C739.309 141.66 740.426 141.972 741.659 141.972C742.335 141.972 742.985 141.879 743.608 141.693C744.231 141.508 744.798 141.232 745.308 140.868C745.825 140.497 746.263 140.043 746.621 139.506C746.985 138.962 747.241 138.339 747.386 137.636H749.852C749.667 138.677 749.329 139.608 748.838 140.43C748.348 141.252 747.738 141.952 747.009 142.528C746.279 143.098 745.461 143.533 744.553 143.831C743.651 144.129 742.687 144.278 741.659 144.278C739.922 144.278 738.378 143.854 737.026 143.006C735.673 142.157 734.609 140.951 733.834 139.386C733.058 137.822 732.67 135.966 732.67 133.818C732.67 131.67 733.058 129.814 733.834 128.25C734.609 126.686 735.673 125.479 737.026 124.631C738.378 123.782 739.922 123.358 741.659 123.358C742.687 123.358 743.651 123.507 744.553 123.805C745.461 124.104 746.279 124.541 747.009 125.118C747.738 125.688 748.348 126.384 748.838 127.206C749.329 128.021 749.667 128.953 749.852 130ZM740.625 144.08H742.574L742.415 144.875C742.932 144.955 743.406 145.17 743.837 145.521C744.268 145.879 744.483 146.446 744.483 147.222C744.483 148.077 744.128 148.773 743.419 149.31C742.716 149.853 741.679 150.125 740.307 150.125L740.227 148.574C740.844 148.574 741.354 148.474 741.759 148.276C742.17 148.083 742.375 147.759 742.375 147.301C742.375 146.844 742.206 146.532 741.868 146.366C741.53 146.201 740.983 146.088 740.227 146.028L740.625 144.08ZM740.744 178L744.085 157.636H746.074L742.733 178H740.744ZM731.477 172.352L731.795 170.364H746.989L746.67 172.352H731.477ZM733.585 178L736.926 157.636H738.915L735.574 178H733.585ZM732.67 165.273L732.989 163.284H748.182L747.864 165.273H732.67ZM757.136 178.278C755.969 178.278 754.918 178.046 753.984 177.582C753.049 177.118 752.3 176.482 751.737 175.673C751.173 174.865 750.865 173.943 750.812 172.909H753.198C753.291 173.83 753.709 174.593 754.451 175.196C755.2 175.793 756.095 176.091 757.136 176.091C757.971 176.091 758.713 175.895 759.363 175.504C760.019 175.113 760.533 174.576 760.904 173.893C761.282 173.204 761.471 172.425 761.471 171.557C761.471 170.669 761.275 169.876 760.884 169.18C760.5 168.478 759.969 167.924 759.293 167.52C758.617 167.116 757.845 166.91 756.977 166.903C756.353 166.897 755.714 166.993 755.058 167.192C754.401 167.384 753.861 167.633 753.437 167.938L751.13 167.659L752.363 157.636H762.942V159.824H754.431L753.715 165.83H753.835C754.252 165.498 754.776 165.223 755.406 165.004C756.035 164.786 756.692 164.676 757.374 164.676C758.621 164.676 759.731 164.974 760.705 165.571C761.686 166.161 762.455 166.97 763.012 167.997C763.576 169.025 763.857 170.198 763.857 171.517C763.857 172.816 763.566 173.976 762.982 174.997C762.406 176.011 761.61 176.813 760.596 177.403C759.582 177.987 758.428 178.278 757.136 178.278Z" fill="white"/>
<rect x="215" y="100" width="100" height="100" rx="12" fill="#009951"/>
<path d="M264.852 130H262.386C262.241 129.291 261.985 128.668 261.621 128.131C261.263 127.594 260.825 127.143 260.308 126.778C259.798 126.407 259.231 126.129 258.608 125.943C257.985 125.758 257.335 125.665 256.659 125.665C255.426 125.665 254.309 125.976 253.308 126.599C252.314 127.223 251.522 128.141 250.932 129.354C250.348 130.567 250.057 132.055 250.057 133.818C250.057 135.581 250.348 137.07 250.932 138.283C251.522 139.496 252.314 140.414 253.308 141.037C254.309 141.66 255.426 141.972 256.659 141.972C257.335 141.972 257.985 141.879 258.608 141.693C259.231 141.508 259.798 141.232 260.308 140.868C260.825 140.497 261.263 140.043 261.621 139.506C261.985 138.962 262.241 138.339 262.386 137.636H264.852C264.667 138.677 264.329 139.608 263.838 140.43C263.348 141.252 262.738 141.952 262.009 142.528C261.279 143.098 260.461 143.533 259.553 143.831C258.651 144.129 257.687 144.278 256.659 144.278C254.922 144.278 253.378 143.854 252.026 143.006C250.673 142.157 249.609 140.951 248.834 139.386C248.058 137.822 247.67 135.966 247.67 133.818C247.67 131.67 248.058 129.814 248.834 128.25C249.609 126.686 250.673 125.479 252.026 124.631C253.378 123.782 254.922 123.358 256.659 123.358C257.687 123.358 258.651 123.507 259.553 123.805C260.461 124.104 261.279 124.541 262.009 125.118C262.738 125.688 263.348 126.384 263.838 127.206C264.329 128.021 264.667 128.953 264.852 130ZM255.625 144.08H257.574L257.415 144.875C257.932 144.955 258.406 145.17 258.837 145.521C259.268 145.879 259.483 146.446 259.483 147.222C259.483 148.077 259.128 148.773 258.419 149.31C257.716 149.853 256.679 150.125 255.307 150.125L255.227 148.574C255.844 148.574 256.354 148.474 256.759 148.276C257.17 148.083 257.375 147.759 257.375 147.301C257.375 146.844 257.206 146.532 256.868 146.366C256.53 146.201 255.983 146.088 255.227 146.028L255.625 144.08ZM255.744 178L259.085 157.636H261.074L257.733 178H255.744ZM246.477 172.352L246.795 170.364H261.989L261.67 172.352H246.477ZM248.585 178L251.926 157.636H253.915L250.574 178H248.585ZM247.67 165.273L247.989 163.284H263.182L262.864 165.273H247.67ZM272.931 157.636V178H270.465V160.222H270.346L265.374 163.523V161.017L270.465 157.636H272.931Z" fill="white"/>
<rect y="227" width="100" height="100" rx="12" fill="#BF6A02"/>
<path d="M33.4659 271V250.636H35.9318V260.739H36.1705L45.3182 250.636H48.5398L39.9886 259.824L48.5398 271H45.5568L38.4773 261.534L35.9318 264.398V271H33.4659ZM40.7443 305L44.0852 284.636H46.0739L42.733 305H40.7443ZM31.4773 299.352L31.7955 297.364H46.9886L46.6705 299.352H31.4773ZM33.5852 305L36.9261 284.636H38.9148L35.5739 305H33.5852ZM32.6705 292.273L32.9886 290.284H48.1818L47.8636 292.273H32.6705ZM57.9311 284.636V305H55.4652V287.222H55.3459L50.3743 290.523V288.017L55.4652 284.636H57.9311Z" fill="white"/>
<rect x="3" y="93" width="100" height="100" rx="12" fill="#BF6A02"/>
<path d="M36.4659 137V116.636H38.9318V126.739H39.1705L48.3182 116.636H51.5398L42.9886 125.824L51.5398 137H48.5568L41.4773 127.534L38.9318 130.398V137H36.4659ZM43.7443 171L47.0852 150.636H49.0739L45.733 171H43.7443ZM34.4773 165.352L34.7955 163.364H49.9886L49.6705 165.352H34.4773ZM36.5852 171L39.9261 150.636H41.9148L38.5739 171H36.5852ZM35.6705 158.273L35.9886 156.284H51.1818L50.8636 158.273H35.6705ZM53.772 171V169.21L60.4936 161.852C61.2824 160.991 61.9321 160.241 62.4425 159.605C62.9529 158.962 63.3307 158.359 63.576 157.795C63.8279 157.225 63.9538 156.629 63.9538 156.006C63.9538 155.29 63.7815 154.67 63.4368 154.146C63.0987 153.623 62.6347 153.218 62.0447 152.933C61.4548 152.648 60.7919 152.506 60.0561 152.506C59.2739 152.506 58.5911 152.668 58.0078 152.993C57.4311 153.311 56.9837 153.759 56.6655 154.335C56.3539 154.912 56.1982 155.588 56.1982 156.364H53.8516C53.8516 155.17 54.1267 154.123 54.6768 153.222C55.227 152.32 55.9761 151.617 56.924 151.114C57.8786 150.61 58.9491 150.358 60.1357 150.358C61.3288 150.358 62.3861 150.61 63.3075 151.114C64.2289 151.617 64.9515 152.297 65.4751 153.152C65.9988 154.007 66.2607 154.958 66.2607 156.006C66.2607 156.755 66.1248 157.487 65.853 158.203C65.5878 158.912 65.1238 159.705 64.4609 160.58C63.8047 161.448 62.8932 162.509 61.7266 163.761L57.1527 168.653V168.812H66.6186V171H53.772Z" fill="white"/>
<rect x="215" y="484" width="100" height="100" rx="12" fill="#BF6A02"/>
<path d="M248.466 528V507.636H250.932V517.739H251.17L260.318 507.636H263.54L254.989 516.824L263.54 528H260.557L253.477 518.534L250.932 521.398V528H248.466ZM255.744 562L259.085 541.636H261.074L257.733 562H255.744ZM246.477 556.352L246.795 554.364H261.989L261.67 556.352H246.477ZM248.585 562L251.926 541.636H253.915L250.574 562H248.585ZM247.67 549.273L247.989 547.284H263.182L262.864 549.273H247.67ZM272.653 562.278C271.34 562.278 270.17 562.053 269.143 561.602C268.122 561.152 267.31 560.525 266.707 559.723C266.11 558.914 265.785 557.976 265.732 556.909H268.238C268.291 557.565 268.516 558.132 268.914 558.609C269.312 559.08 269.832 559.445 270.475 559.703C271.118 559.962 271.831 560.091 272.613 560.091C273.488 560.091 274.263 559.938 274.94 559.634C275.616 559.329 276.146 558.904 276.531 558.361C276.915 557.817 277.107 557.188 277.107 556.472C277.107 555.723 276.922 555.063 276.55 554.493C276.179 553.916 275.636 553.465 274.92 553.141C274.204 552.816 273.329 552.653 272.295 552.653H270.664V550.466H272.295C273.103 550.466 273.813 550.32 274.423 550.028C275.039 549.737 275.52 549.326 275.864 548.795C276.216 548.265 276.391 547.642 276.391 546.926C276.391 546.237 276.239 545.637 275.934 545.126C275.629 544.616 275.198 544.218 274.641 543.933C274.091 543.648 273.442 543.506 272.692 543.506C271.99 543.506 271.327 543.635 270.704 543.893C270.087 544.145 269.584 544.513 269.192 544.997C268.801 545.474 268.589 546.051 268.556 546.727H266.17C266.21 545.66 266.531 544.725 267.134 543.923C267.737 543.115 268.526 542.485 269.501 542.034C270.482 541.583 271.559 541.358 272.732 541.358C273.992 541.358 275.072 541.613 275.974 542.124C276.875 542.627 277.568 543.294 278.052 544.122C278.536 544.951 278.778 545.846 278.778 546.807C278.778 547.954 278.476 548.931 277.873 549.74C277.276 550.549 276.464 551.109 275.437 551.42V551.58C276.723 551.792 277.727 552.339 278.45 553.22C279.172 554.095 279.533 555.179 279.533 556.472C279.533 557.579 279.232 558.573 278.629 559.455C278.032 560.33 277.217 561.019 276.183 561.523C275.148 562.027 273.972 562.278 272.653 562.278Z" fill="white"/>
<rect x="3" y="385" width="31" height="186" fill="#D9D9D9"/>
<path d="M27.0002 509.233L6.63652 509.231L6.6369 504.925L15.6156 504.926L15.6156 504.658L6.63758 497.329L6.63804 492.168L15.7553 499.726L27.0017 492.081L27.0012 497.231L18.6286 502.808L21.2136 504.927L27.0005 504.927L27.0002 509.233ZM27.0022 486.418L27.0018 491.032L6.63876 484L6.63926 478.452L27.0035 471.434L27.0031 476.047L11.2924 481.147L11.2924 481.306L27.0022 486.418ZM18.9979 486.706L18.9989 475.808L22.3597 475.808L22.3587 486.706L18.9979 486.706ZM27.0037 468.983L6.6401 468.981L6.64081 460.947C6.64095 459.402 6.93605 458.086 7.52611 456.999C8.10954 455.912 8.92164 455.084 9.96241 454.514C10.9965 453.937 12.1898 453.649 13.542 453.649C14.8943 453.649 16.0875 453.941 17.1215 454.524C18.1555 455.108 18.9609 455.953 19.5375 457.06C20.1141 458.16 20.4023 459.493 20.4022 461.057L20.4017 466.178L16.9514 466.178L16.9518 461.753C16.9519 460.924 16.8094 460.242 16.5244 459.705C16.2328 459.161 15.8318 458.757 15.3214 458.491C14.8044 458.22 14.2111 458.084 13.5416 458.084C12.8655 458.084 12.2755 458.219 11.7717 458.491C11.2613 458.756 10.8668 459.161 10.5884 459.704C10.3033 460.248 10.1607 460.937 10.1606 461.772L10.1604 464.676L27.0041 464.677L27.0037 468.983ZM6.64209 446.546L27.0057 446.548L27.0053 450.854L6.64171 450.852L6.64209 446.546Z" fill="black"/>
<path d="M564.466 511V490.636H576.756V492.824H566.932V499.705H576.119V501.892H566.932V508.812H576.915V511H564.466ZM589.075 511V490.636H596.195C597.613 490.636 598.783 490.882 599.705 491.372C600.626 491.856 601.312 492.509 601.763 493.331C602.214 494.146 602.439 495.051 602.439 496.045C602.439 496.92 602.283 497.643 601.972 498.213C601.667 498.783 601.262 499.234 600.759 499.565C600.261 499.897 599.721 500.142 599.138 500.301V500.5C599.761 500.54 600.387 500.759 601.017 501.156C601.647 501.554 602.174 502.124 602.598 502.866C603.022 503.609 603.234 504.517 603.234 505.591C603.234 506.612 603.002 507.53 602.538 508.345C602.074 509.161 601.342 509.807 600.341 510.284C599.34 510.761 598.037 511 596.433 511H589.075ZM591.541 508.812H596.433C598.044 508.812 599.188 508.501 599.864 507.878C600.546 507.248 600.888 506.486 600.888 505.591C600.888 504.902 600.712 504.265 600.361 503.682C600.009 503.092 599.509 502.621 598.859 502.27C598.21 501.912 597.441 501.733 596.553 501.733H591.541V508.812ZM591.541 499.585H596.115C596.857 499.585 597.527 499.439 598.124 499.148C598.727 498.856 599.204 498.445 599.555 497.915C599.913 497.384 600.092 496.761 600.092 496.045C600.092 495.151 599.781 494.392 599.158 493.768C598.535 493.139 597.547 492.824 596.195 492.824H591.541V499.585ZM607.286 511V490.636H609.752V508.812H619.218V511H607.286ZM639.425 500.818C639.425 502.966 639.037 504.822 638.262 506.386C637.486 507.951 636.422 509.157 635.07 510.006C633.718 510.854 632.173 511.278 630.436 511.278C628.7 511.278 627.155 510.854 625.803 510.006C624.451 509.157 623.387 507.951 622.611 506.386C621.836 504.822 621.448 502.966 621.448 500.818C621.448 498.67 621.836 496.814 622.611 495.25C623.387 493.686 624.451 492.479 625.803 491.631C627.155 490.782 628.7 490.358 630.436 490.358C632.173 490.358 633.718 490.782 635.07 491.631C636.422 492.479 637.486 493.686 638.262 495.25C639.037 496.814 639.425 498.67 639.425 500.818ZM637.039 500.818C637.039 499.055 636.744 497.567 636.154 496.354C635.57 495.141 634.778 494.223 633.777 493.599C632.783 492.976 631.669 492.665 630.436 492.665C629.203 492.665 628.087 492.976 627.086 493.599C626.091 494.223 625.299 495.141 624.709 496.354C624.126 497.567 623.834 499.055 623.834 500.818C623.834 502.581 624.126 504.07 624.709 505.283C625.299 506.496 626.091 507.414 627.086 508.037C628.087 508.66 629.203 508.972 630.436 508.972C631.669 508.972 632.783 508.66 633.777 508.037C634.778 507.414 635.57 506.496 636.154 505.283C636.744 504.07 637.039 502.581 637.039 500.818ZM643.571 511V490.636H646.037V500.739H646.276L655.424 490.636H658.645L650.094 499.824L658.645 511H655.662L648.583 501.534L646.037 504.398V511H643.571ZM669.712 511V490.636H672.178V500.739H672.417L681.564 490.636H684.786L676.235 499.824L684.786 511H681.803L674.723 501.534L672.178 504.398V511H669.712ZM688.813 511H686.228L693.705 490.636H696.25L703.728 511H701.142L695.057 493.858H694.898L688.813 511ZM689.767 503.045H700.188V505.233H689.767V503.045ZM703.407 492.824V490.636H718.68V492.824H712.276V511H709.81V492.824H703.407ZM737.162 490.636V511H734.696V493.222H734.576L729.605 496.523V494.017L734.696 490.636H737.162Z" fill="black"/>
</svg>
