<svg width="800" height="600" viewBox="0 0 800 600" fill="none" xmlns="http://www.w3.org/2000/svg">
<rect width="800" height="600" fill="#F8FAFC"/>
<rect x="315" y="133" width="100" height="100" rx="12" fill="#009951"/>
<path d="M364.852 163H362.386C362.241 162.291 361.985 161.668 361.621 161.131C361.263 160.594 360.825 160.143 360.308 159.778C359.798 159.407 359.231 159.129 358.608 158.943C357.985 158.758 357.335 158.665 356.659 158.665C355.426 158.665 354.309 158.976 353.308 159.599C352.314 160.223 351.522 161.141 350.932 162.354C350.348 163.567 350.057 165.055 350.057 166.818C350.057 168.581 350.348 170.07 350.932 171.283C351.522 172.496 352.314 173.414 353.308 174.037C354.309 174.66 355.426 174.972 356.659 174.972C357.335 174.972 357.985 174.879 358.608 174.693C359.231 174.508 359.798 174.232 360.308 173.868C360.825 173.497 361.263 173.043 361.621 172.506C361.985 171.962 362.241 171.339 362.386 170.636H364.852C364.667 171.677 364.329 172.608 363.838 173.43C363.348 174.252 362.738 174.952 362.009 175.528C361.279 176.098 360.461 176.533 359.553 176.831C358.651 177.129 357.687 177.278 356.659 177.278C354.922 177.278 353.378 176.854 352.026 176.006C350.673 175.157 349.609 173.951 348.834 172.386C348.058 170.822 347.67 168.966 347.67 166.818C347.67 164.67 348.058 162.814 348.834 161.25C349.609 159.686 350.673 158.479 352.026 157.631C353.378 156.782 354.922 156.358 356.659 156.358C357.687 156.358 358.651 156.507 359.553 156.805C360.461 157.104 361.279 157.541 362.009 158.118C362.738 158.688 363.348 159.384 363.838 160.206C364.329 161.021 364.667 161.953 364.852 163ZM355.625 177.08H357.574L357.415 177.875C357.932 177.955 358.406 178.17 358.837 178.521C359.268 178.879 359.483 179.446 359.483 180.222C359.483 181.077 359.128 181.773 358.419 182.31C357.716 182.853 356.679 183.125 355.307 183.125L355.227 181.574C355.844 181.574 356.354 181.474 356.759 181.276C357.17 181.083 357.375 180.759 357.375 180.301C357.375 179.844 357.206 179.532 356.868 179.366C356.53 179.201 355.983 179.088 355.227 179.028L355.625 177.08ZM355.744 211L359.085 190.636H361.074L357.733 211H355.744ZM346.477 205.352L346.795 203.364H361.989L361.67 205.352H346.477ZM348.585 211L351.926 190.636H353.915L350.574 211H348.585ZM347.67 198.273L347.989 196.284H363.182L362.864 198.273H347.67ZM365.772 211V209.21L372.494 201.852C373.282 200.991 373.932 200.241 374.442 199.605C374.953 198.962 375.331 198.359 375.576 197.795C375.828 197.225 375.954 196.629 375.954 196.006C375.954 195.29 375.781 194.67 375.437 194.146C375.099 193.623 374.635 193.218 374.045 192.933C373.455 192.648 372.792 192.506 372.056 192.506C371.274 192.506 370.591 192.668 370.008 192.993C369.431 193.311 368.984 193.759 368.665 194.335C368.354 194.912 368.198 195.588 368.198 196.364H365.852C365.852 195.17 366.127 194.123 366.677 193.222C367.227 192.32 367.976 191.617 368.924 191.114C369.879 190.61 370.949 190.358 372.136 190.358C373.329 190.358 374.386 190.61 375.308 191.114C376.229 191.617 376.951 192.297 377.475 193.152C377.999 194.007 378.261 194.958 378.261 196.006C378.261 196.755 378.125 197.487 377.853 198.203C377.588 198.912 377.124 199.705 376.461 200.58C375.805 201.448 374.893 202.509 373.727 203.761L369.153 208.653V208.812H378.619V211H365.772Z" fill="white"/>
<rect x="435" y="133" width="100" height="100" rx="12" fill="#009951"/>
<path d="M484.852 163H482.386C482.241 162.291 481.985 161.668 481.621 161.131C481.263 160.594 480.825 160.143 480.308 159.778C479.798 159.407 479.231 159.129 478.608 158.943C477.985 158.758 477.335 158.665 476.659 158.665C475.426 158.665 474.309 158.976 473.308 159.599C472.314 160.223 471.522 161.141 470.932 162.354C470.348 163.567 470.057 165.055 470.057 166.818C470.057 168.581 470.348 170.07 470.932 171.283C471.522 172.496 472.314 173.414 473.308 174.037C474.309 174.66 475.426 174.972 476.659 174.972C477.335 174.972 477.985 174.879 478.608 174.693C479.231 174.508 479.798 174.232 480.308 173.868C480.825 173.497 481.263 173.043 481.621 172.506C481.985 171.962 482.241 171.339 482.386 170.636H484.852C484.667 171.677 484.329 172.608 483.838 173.43C483.348 174.252 482.738 174.952 482.009 175.528C481.279 176.098 480.461 176.533 479.553 176.831C478.651 177.129 477.687 177.278 476.659 177.278C474.922 177.278 473.378 176.854 472.026 176.006C470.673 175.157 469.609 173.951 468.834 172.386C468.058 170.822 467.67 168.966 467.67 166.818C467.67 164.67 468.058 162.814 468.834 161.25C469.609 159.686 470.673 158.479 472.026 157.631C473.378 156.782 474.922 156.358 476.659 156.358C477.687 156.358 478.651 156.507 479.553 156.805C480.461 157.104 481.279 157.541 482.009 158.118C482.738 158.688 483.348 159.384 483.838 160.206C484.329 161.021 484.667 161.953 484.852 163ZM475.625 177.08H477.574L477.415 177.875C477.932 177.955 478.406 178.17 478.837 178.521C479.268 178.879 479.483 179.446 479.483 180.222C479.483 181.077 479.128 181.773 478.419 182.31C477.716 182.853 476.679 183.125 475.307 183.125L475.227 181.574C475.844 181.574 476.354 181.474 476.759 181.276C477.17 181.083 477.375 180.759 477.375 180.301C477.375 179.844 477.206 179.532 476.868 179.366C476.53 179.201 475.983 179.088 475.227 179.028L475.625 177.08ZM475.744 211L479.085 190.636H481.074L477.733 211H475.744ZM466.477 205.352L466.795 203.364H481.989L481.67 205.352H466.477ZM468.585 211L471.926 190.636H473.915L470.574 211H468.585ZM467.67 198.273L467.989 196.284H483.182L482.864 198.273H467.67ZM492.653 211.278C491.34 211.278 490.17 211.053 489.143 210.602C488.122 210.152 487.31 209.525 486.707 208.723C486.11 207.914 485.785 206.976 485.732 205.909H488.238C488.291 206.565 488.516 207.132 488.914 207.609C489.312 208.08 489.832 208.445 490.475 208.703C491.118 208.962 491.831 209.091 492.613 209.091C493.488 209.091 494.263 208.938 494.94 208.634C495.616 208.329 496.146 207.904 496.531 207.361C496.915 206.817 497.107 206.188 497.107 205.472C497.107 204.723 496.922 204.063 496.55 203.493C496.179 202.916 495.636 202.465 494.92 202.141C494.204 201.816 493.329 201.653 492.295 201.653H490.664V199.466H492.295C493.103 199.466 493.813 199.32 494.423 199.028C495.039 198.737 495.52 198.326 495.864 197.795C496.216 197.265 496.391 196.642 496.391 195.926C496.391 195.237 496.239 194.637 495.934 194.126C495.629 193.616 495.198 193.218 494.641 192.933C494.091 192.648 493.442 192.506 492.692 192.506C491.99 192.506 491.327 192.635 490.704 192.893C490.087 193.145 489.584 193.513 489.192 193.997C488.801 194.474 488.589 195.051 488.556 195.727H486.17C486.21 194.66 486.531 193.725 487.134 192.923C487.737 192.115 488.526 191.485 489.501 191.034C490.482 190.583 491.559 190.358 492.732 190.358C493.992 190.358 495.072 190.613 495.974 191.124C496.875 191.627 497.568 192.294 498.052 193.122C498.536 193.951 498.778 194.846 498.778 195.807C498.778 196.954 498.476 197.931 497.873 198.74C497.276 199.549 496.464 200.109 495.437 200.42V200.58C496.723 200.792 497.727 201.339 498.45 202.22C499.172 203.095 499.533 204.179 499.533 205.472C499.533 206.579 499.232 207.573 498.629 208.455C498.032 209.33 497.217 210.019 496.183 210.523C495.148 211.027 493.972 211.278 492.653 211.278Z" fill="white"/>
<rect x="555" y="133" width="100" height="100" rx="12" fill="#009951"/>
<path d="M604.852 163H602.386C602.241 162.291 601.985 161.668 601.621 161.131C601.263 160.594 600.825 160.143 600.308 159.778C599.798 159.407 599.231 159.129 598.608 158.943C597.985 158.758 597.335 158.665 596.659 158.665C595.426 158.665 594.309 158.976 593.308 159.599C592.314 160.223 591.522 161.141 590.932 162.354C590.348 163.567 590.057 165.055 590.057 166.818C590.057 168.581 590.348 170.07 590.932 171.283C591.522 172.496 592.314 173.414 593.308 174.037C594.309 174.66 595.426 174.972 596.659 174.972C597.335 174.972 597.985 174.879 598.608 174.693C599.231 174.508 599.798 174.232 600.308 173.868C600.825 173.497 601.263 173.043 601.621 172.506C601.985 171.962 602.241 171.339 602.386 170.636H604.852C604.667 171.677 604.329 172.608 603.838 173.43C603.348 174.252 602.738 174.952 602.009 175.528C601.279 176.098 600.461 176.533 599.553 176.831C598.651 177.129 597.687 177.278 596.659 177.278C594.922 177.278 593.378 176.854 592.026 176.006C590.673 175.157 589.609 173.951 588.834 172.386C588.058 170.822 587.67 168.966 587.67 166.818C587.67 164.67 588.058 162.814 588.834 161.25C589.609 159.686 590.673 158.479 592.026 157.631C593.378 156.782 594.922 156.358 596.659 156.358C597.687 156.358 598.651 156.507 599.553 156.805C600.461 157.104 601.279 157.541 602.009 158.118C602.738 158.688 603.348 159.384 603.838 160.206C604.329 161.021 604.667 161.953 604.852 163ZM595.625 177.08H597.574L597.415 177.875C597.932 177.955 598.406 178.17 598.837 178.521C599.268 178.879 599.483 179.446 599.483 180.222C599.483 181.077 599.128 181.773 598.419 182.31C597.716 182.853 596.679 183.125 595.307 183.125L595.227 181.574C595.844 181.574 596.354 181.474 596.759 181.276C597.17 181.083 597.375 180.759 597.375 180.301C597.375 179.844 597.206 179.532 596.868 179.366C596.53 179.201 595.983 179.088 595.227 179.028L595.625 177.08ZM595.744 211L599.085 190.636H601.074L597.733 211H595.744ZM586.477 205.352L586.795 203.364H601.989L601.67 205.352H586.477ZM588.585 211L591.926 190.636H593.915L590.574 211H588.585ZM587.67 198.273L587.989 196.284H603.182L602.864 198.273H587.67ZM605.295 206.824V204.795L614.244 190.636H615.715V193.778H614.721L607.96 204.477V204.636H620.011V206.824H605.295ZM614.88 211V206.207V205.263V190.636H617.227V211H614.88Z" fill="white"/>
<rect x="675" y="133" width="100" height="100" rx="12" fill="#009951"/>
<path d="M724.852 163H722.386C722.241 162.291 721.985 161.668 721.621 161.131C721.263 160.594 720.825 160.143 720.308 159.778C719.798 159.407 719.231 159.129 718.608 158.943C717.985 158.758 717.335 158.665 716.659 158.665C715.426 158.665 714.309 158.976 713.308 159.599C712.314 160.223 711.522 161.141 710.932 162.354C710.348 163.567 710.057 165.055 710.057 166.818C710.057 168.581 710.348 170.07 710.932 171.283C711.522 172.496 712.314 173.414 713.308 174.037C714.309 174.66 715.426 174.972 716.659 174.972C717.335 174.972 717.985 174.879 718.608 174.693C719.231 174.508 719.798 174.232 720.308 173.868C720.825 173.497 721.263 173.043 721.621 172.506C721.985 171.962 722.241 171.339 722.386 170.636H724.852C724.667 171.677 724.329 172.608 723.838 173.43C723.348 174.252 722.738 174.952 722.009 175.528C721.279 176.098 720.461 176.533 719.553 176.831C718.651 177.129 717.687 177.278 716.659 177.278C714.922 177.278 713.378 176.854 712.026 176.006C710.673 175.157 709.609 173.951 708.834 172.386C708.058 170.822 707.67 168.966 707.67 166.818C707.67 164.67 708.058 162.814 708.834 161.25C709.609 159.686 710.673 158.479 712.026 157.631C713.378 156.782 714.922 156.358 716.659 156.358C717.687 156.358 718.651 156.507 719.553 156.805C720.461 157.104 721.279 157.541 722.009 158.118C722.738 158.688 723.348 159.384 723.838 160.206C724.329 161.021 724.667 161.953 724.852 163ZM715.625 177.08H717.574L717.415 177.875C717.932 177.955 718.406 178.17 718.837 178.521C719.268 178.879 719.483 179.446 719.483 180.222C719.483 181.077 719.128 181.773 718.419 182.31C717.716 182.853 716.679 183.125 715.307 183.125L715.227 181.574C715.844 181.574 716.354 181.474 716.759 181.276C717.17 181.083 717.375 180.759 717.375 180.301C717.375 179.844 717.206 179.532 716.868 179.366C716.53 179.201 715.983 179.088 715.227 179.028L715.625 177.08ZM715.744 211L719.085 190.636H721.074L717.733 211H715.744ZM706.477 205.352L706.795 203.364H721.989L721.67 205.352H706.477ZM708.585 211L711.926 190.636H713.915L710.574 211H708.585ZM707.67 198.273L707.989 196.284H723.182L722.864 198.273H707.67ZM732.136 211.278C730.969 211.278 729.918 211.046 728.984 210.582C728.049 210.118 727.3 209.482 726.737 208.673C726.173 207.865 725.865 206.943 725.812 205.909H728.198C728.291 206.83 728.709 207.593 729.451 208.196C730.2 208.793 731.095 209.091 732.136 209.091C732.971 209.091 733.713 208.895 734.363 208.504C735.019 208.113 735.533 207.576 735.904 206.893C736.282 206.204 736.471 205.425 736.471 204.557C736.471 203.669 736.275 202.876 735.884 202.18C735.5 201.478 734.969 200.924 734.293 200.52C733.617 200.116 732.845 199.91 731.977 199.903C731.353 199.897 730.714 199.993 730.058 200.192C729.401 200.384 728.861 200.633 728.437 200.938L726.13 200.659L727.363 190.636H737.942V192.824H729.431L728.715 198.83H728.835C729.252 198.498 729.776 198.223 730.406 198.004C731.035 197.786 731.692 197.676 732.374 197.676C733.621 197.676 734.731 197.974 735.705 198.571C736.686 199.161 737.455 199.97 738.012 200.997C738.576 202.025 738.857 203.198 738.857 204.517C738.857 205.816 738.566 206.976 737.982 207.997C737.406 209.011 736.61 209.813 735.596 210.403C734.582 210.987 733.428 211.278 732.136 211.278Z" fill="white"/>
<rect x="195" y="133" width="100" height="100" rx="12" fill="#009951"/>
<path d="M244.852 163H242.386C242.241 162.291 241.985 161.668 241.621 161.131C241.263 160.594 240.825 160.143 240.308 159.778C239.798 159.407 239.231 159.129 238.608 158.943C237.985 158.758 237.335 158.665 236.659 158.665C235.426 158.665 234.309 158.976 233.308 159.599C232.314 160.223 231.522 161.141 230.932 162.354C230.348 163.567 230.057 165.055 230.057 166.818C230.057 168.581 230.348 170.07 230.932 171.283C231.522 172.496 232.314 173.414 233.308 174.037C234.309 174.66 235.426 174.972 236.659 174.972C237.335 174.972 237.985 174.879 238.608 174.693C239.231 174.508 239.798 174.232 240.308 173.868C240.825 173.497 241.263 173.043 241.621 172.506C241.985 171.962 242.241 171.339 242.386 170.636H244.852C244.667 171.677 244.329 172.608 243.838 173.43C243.348 174.252 242.738 174.952 242.009 175.528C241.279 176.098 240.461 176.533 239.553 176.831C238.651 177.129 237.687 177.278 236.659 177.278C234.922 177.278 233.378 176.854 232.026 176.006C230.673 175.157 229.609 173.951 228.834 172.386C228.058 170.822 227.67 168.966 227.67 166.818C227.67 164.67 228.058 162.814 228.834 161.25C229.609 159.686 230.673 158.479 232.026 157.631C233.378 156.782 234.922 156.358 236.659 156.358C237.687 156.358 238.651 156.507 239.553 156.805C240.461 157.104 241.279 157.541 242.009 158.118C242.738 158.688 243.348 159.384 243.838 160.206C244.329 161.021 244.667 161.953 244.852 163ZM235.625 177.08H237.574L237.415 177.875C237.932 177.955 238.406 178.17 238.837 178.521C239.268 178.879 239.483 179.446 239.483 180.222C239.483 181.077 239.128 181.773 238.419 182.31C237.716 182.853 236.679 183.125 235.307 183.125L235.227 181.574C235.844 181.574 236.354 181.474 236.759 181.276C237.17 181.083 237.375 180.759 237.375 180.301C237.375 179.844 237.206 179.532 236.868 179.366C236.53 179.201 235.983 179.088 235.227 179.028L235.625 177.08ZM235.744 211L239.085 190.636H241.074L237.733 211H235.744ZM226.477 205.352L226.795 203.364H241.989L241.67 205.352H226.477ZM228.585 211L231.926 190.636H233.915L230.574 211H228.585ZM227.67 198.273L227.989 196.284H243.182L242.864 198.273H227.67ZM252.931 190.636V211H250.465V193.222H250.346L245.374 196.523V194.017L250.465 190.636H252.931Z" fill="white"/>
<rect y="200" width="100" height="100" rx="12" fill="#BF6A02"/>
<path d="M33.4659 244V223.636H35.9318V233.739H36.1705L45.3182 223.636H48.5398L39.9886 232.824L48.5398 244H45.5568L38.4773 234.534L35.9318 237.398V244H33.4659ZM40.7443 278L44.0852 257.636H46.0739L42.733 278H40.7443ZM31.4773 272.352L31.7955 270.364H46.9886L46.6705 272.352H31.4773ZM33.5852 278L36.9261 257.636H38.9148L35.5739 278H33.5852ZM32.6705 265.273L32.9886 263.284H48.1818L47.8636 265.273H32.6705ZM57.9311 257.636V278H55.4652V260.222H55.3459L50.3743 263.523V261.017L55.4652 257.636H57.9311Z" fill="white"/>
<rect x="3" y="71" width="100" height="100" rx="12" fill="#BF6A02"/>
<path d="M36.4659 115V94.6364H38.9318V104.739H39.1705L48.3182 94.6364H51.5398L42.9886 103.824L51.5398 115H48.5568L41.4773 105.534L38.9318 108.398V115H36.4659ZM43.7443 149L47.0852 128.636H49.0739L45.733 149H43.7443ZM34.4773 143.352L34.7955 141.364H49.9886L49.6705 143.352H34.4773ZM36.5852 149L39.9261 128.636H41.9148L38.5739 149H36.5852ZM35.6705 136.273L35.9886 134.284H51.1818L50.8636 136.273H35.6705ZM53.772 149V147.21L60.4936 139.852C61.2824 138.991 61.9321 138.241 62.4425 137.605C62.9529 136.962 63.3307 136.359 63.576 135.795C63.8279 135.225 63.9538 134.629 63.9538 134.006C63.9538 133.29 63.7815 132.67 63.4368 132.146C63.0987 131.623 62.6347 131.218 62.0447 130.933C61.4548 130.648 60.7919 130.506 60.0561 130.506C59.2739 130.506 58.5911 130.668 58.0078 130.993C57.4311 131.311 56.9837 131.759 56.6655 132.335C56.3539 132.912 56.1982 133.588 56.1982 134.364H53.8516C53.8516 133.17 54.1267 132.123 54.6768 131.222C55.227 130.32 55.9761 129.617 56.924 129.114C57.8786 128.61 58.9491 128.358 60.1357 128.358C61.3288 128.358 62.3861 128.61 63.3075 129.114C64.2289 129.617 64.9515 130.297 65.4751 131.152C65.9988 132.007 66.2607 132.958 66.2607 134.006C66.2607 134.755 66.1248 135.487 65.853 136.203C65.5878 136.912 65.1238 137.705 64.4609 138.58C63.8047 139.448 62.8932 140.509 61.7266 141.761L57.1527 146.653V146.812H66.6186V149H53.772Z" fill="white"/>
<rect x="3" y="385" width="31" height="186" fill="#D9D9D9"/>
<path d="M27.0002 509.233L6.63652 509.231L6.6369 504.925L15.6156 504.926L15.6156 504.658L6.63758 497.329L6.63804 492.168L15.7553 499.726L27.0017 492.081L27.0012 497.231L18.6286 502.808L21.2136 504.927L27.0005 504.927L27.0002 509.233ZM27.0022 486.418L27.0018 491.032L6.63876 484L6.63926 478.452L27.0035 471.434L27.0031 476.047L11.2924 481.147L11.2924 481.306L27.0022 486.418ZM18.9979 486.706L18.9989 475.808L22.3597 475.808L22.3587 486.706L18.9979 486.706ZM27.0037 468.983L6.6401 468.981L6.64081 460.947C6.64095 459.402 6.93605 458.086 7.52611 456.999C8.10954 455.912 8.92164 455.084 9.96241 454.514C10.9965 453.937 12.1898 453.649 13.542 453.649C14.8943 453.649 16.0875 453.941 17.1215 454.524C18.1555 455.108 18.9609 455.953 19.5375 457.06C20.1141 458.16 20.4023 459.493 20.4022 461.057L20.4017 466.178L16.9514 466.178L16.9518 461.753C16.9519 460.924 16.8094 460.242 16.5244 459.705C16.2328 459.161 15.8318 458.757 15.3214 458.491C14.8044 458.22 14.2111 458.084 13.5416 458.084C12.8655 458.084 12.2755 458.219 11.7717 458.491C11.2613 458.756 10.8668 459.161 10.5884 459.704C10.3033 460.248 10.1607 460.937 10.1606 461.772L10.1604 464.676L27.0041 464.677L27.0037 468.983ZM6.64209 446.546L27.0057 446.548L27.0053 450.854L6.64171 450.852L6.64209 446.546Z" fill="black"/>
<path d="M570.301 517H567.716L575.193 496.636H577.739L585.216 517H582.631L576.545 499.858H576.386L570.301 517ZM571.256 509.045H581.676V511.233H571.256V509.045ZM596.263 517V496.636H603.382C604.801 496.636 605.971 496.882 606.892 497.372C607.813 497.856 608.5 498.509 608.95 499.331C609.401 500.146 609.626 501.051 609.626 502.045C609.626 502.92 609.471 503.643 609.159 504.213C608.854 504.783 608.45 505.234 607.946 505.565C607.449 505.897 606.909 506.142 606.325 506.301V506.5C606.948 506.54 607.575 506.759 608.205 507.156C608.834 507.554 609.361 508.124 609.786 508.866C610.21 509.609 610.422 510.517 610.422 511.591C610.422 512.612 610.19 513.53 609.726 514.345C609.262 515.161 608.529 515.807 607.528 516.284C606.527 516.761 605.225 517 603.621 517H596.263ZM598.729 514.812H603.621C605.232 514.812 606.375 514.501 607.051 513.878C607.734 513.248 608.075 512.486 608.075 511.591C608.075 510.902 607.9 510.265 607.548 509.682C607.197 509.092 606.696 508.621 606.047 508.27C605.397 507.912 604.628 507.733 603.74 507.733H598.729V514.812ZM598.729 505.585H603.303C604.045 505.585 604.714 505.439 605.311 505.148C605.914 504.856 606.392 504.445 606.743 503.915C607.101 503.384 607.28 502.761 607.28 502.045C607.28 501.151 606.968 500.392 606.345 499.768C605.722 499.139 604.734 498.824 603.382 498.824H598.729V505.585ZM614.474 517V496.636H616.94V514.812H626.406V517H614.474ZM646.613 506.818C646.613 508.966 646.225 510.822 645.449 512.386C644.674 513.951 643.61 515.157 642.257 516.006C640.905 516.854 639.361 517.278 637.624 517.278C635.887 517.278 634.343 516.854 632.99 516.006C631.638 515.157 630.574 513.951 629.799 512.386C629.023 510.822 628.635 508.966 628.635 506.818C628.635 504.67 629.023 502.814 629.799 501.25C630.574 499.686 631.638 498.479 632.99 497.631C634.343 496.782 635.887 496.358 637.624 496.358C639.361 496.358 640.905 496.782 642.257 497.631C643.61 498.479 644.674 499.686 645.449 501.25C646.225 502.814 646.613 504.67 646.613 506.818ZM644.226 506.818C644.226 505.055 643.931 503.567 643.341 502.354C642.758 501.141 641.966 500.223 640.965 499.599C639.971 498.976 638.857 498.665 637.624 498.665C636.391 498.665 635.274 498.976 634.273 499.599C633.279 500.223 632.487 501.141 631.897 502.354C631.313 503.567 631.022 505.055 631.022 506.818C631.022 508.581 631.313 510.07 631.897 511.283C632.487 512.496 633.279 513.414 634.273 514.037C635.274 514.66 636.391 514.972 637.624 514.972C638.857 514.972 639.971 514.66 640.965 514.037C641.966 513.414 642.758 512.496 643.341 511.283C643.931 510.07 644.226 508.581 644.226 506.818ZM650.759 517V496.636H653.225V506.739H653.463L662.611 496.636H665.833L657.282 505.824L665.833 517H662.85L655.77 507.534L653.225 510.398V517H650.759ZM676.9 517V496.636H679.365V506.739H679.604L688.752 496.636H691.973L683.422 505.824L691.973 517H688.99L681.911 507.534L679.365 510.398V517H676.9ZM696 517H693.415L700.892 496.636H703.438L710.915 517H708.33L702.245 499.858H702.086L696 517ZM696.955 509.045H707.375V511.233H696.955V509.045ZM710.594 498.824V496.636H725.867V498.824H719.464V517H716.998V498.824H710.594ZM744.349 496.636V517H741.883V499.222H741.764L736.792 502.523V500.017L741.883 496.636H744.349Z" fill="black"/>
</svg>
