<svg width="800" height="600" viewBox="0 0 800 600" fill="none" xmlns="http://www.w3.org/2000/svg">
<rect width="800" height="600" fill="#F8FAFC"/>
<rect x="265" y="64" width="100" height="100" rx="12" fill="#009951"/>
<path d="M314.852 94H312.386C312.241 93.2907 311.985 92.6676 311.621 92.1307C311.263 91.5938 310.825 91.143 310.308 90.7784C309.798 90.4072 309.231 90.1288 308.608 89.9432C307.985 89.7576 307.335 89.6648 306.659 89.6648C305.426 89.6648 304.309 89.9763 303.308 90.5994C302.314 91.2225 301.522 92.1406 300.932 93.3537C300.348 94.5668 300.057 96.0549 300.057 97.8182C300.057 99.5814 300.348 101.07 300.932 102.283C301.522 103.496 302.314 104.414 303.308 105.037C304.309 105.66 305.426 105.972 306.659 105.972C307.335 105.972 307.985 105.879 308.608 105.693C309.231 105.508 309.798 105.232 310.308 104.868C310.825 104.497 311.263 104.043 311.621 103.506C311.985 102.962 312.241 102.339 312.386 101.636H314.852C314.667 102.677 314.329 103.608 313.838 104.43C313.348 105.252 312.738 105.952 312.009 106.528C311.279 107.098 310.461 107.533 309.553 107.831C308.651 108.129 307.687 108.278 306.659 108.278C304.922 108.278 303.378 107.854 302.026 107.006C300.673 106.157 299.609 104.951 298.834 103.386C298.058 101.822 297.67 99.9659 297.67 97.8182C297.67 95.6705 298.058 93.8144 298.834 92.25C299.609 90.6856 300.673 89.4792 302.026 88.6307C303.378 87.7822 304.922 87.358 306.659 87.358C307.687 87.358 308.651 87.5071 309.553 87.8054C310.461 88.1037 311.279 88.5412 312.009 89.1179C312.738 89.688 313.348 90.384 313.838 91.206C314.329 92.0213 314.667 92.9527 314.852 94ZM305.625 108.08H307.574L307.415 108.875C307.932 108.955 308.406 109.17 308.837 109.521C309.268 109.879 309.483 110.446 309.483 111.222C309.483 112.077 309.128 112.773 308.419 113.31C307.716 113.853 306.679 114.125 305.307 114.125L305.227 112.574C305.844 112.574 306.354 112.474 306.759 112.276C307.17 112.083 307.375 111.759 307.375 111.301C307.375 110.844 307.206 110.532 306.868 110.366C306.53 110.201 305.983 110.088 305.227 110.028L305.625 108.08ZM305.744 142L309.085 121.636H311.074L307.733 142H305.744ZM296.477 136.352L296.795 134.364H311.989L311.67 136.352H296.477ZM298.585 142L301.926 121.636H303.915L300.574 142H298.585ZM297.67 129.273L297.989 127.284H313.182L312.864 129.273H297.67ZM315.772 142V140.21L322.494 132.852C323.282 131.991 323.932 131.241 324.442 130.605C324.953 129.962 325.331 129.359 325.576 128.795C325.828 128.225 325.954 127.629 325.954 127.006C325.954 126.29 325.781 125.67 325.437 125.146C325.099 124.623 324.635 124.218 324.045 123.933C323.455 123.648 322.792 123.506 322.056 123.506C321.274 123.506 320.591 123.668 320.008 123.993C319.431 124.311 318.984 124.759 318.665 125.335C318.354 125.912 318.198 126.588 318.198 127.364H315.852C315.852 126.17 316.127 125.123 316.677 124.222C317.227 123.32 317.976 122.617 318.924 122.114C319.879 121.61 320.949 121.358 322.136 121.358C323.329 121.358 324.386 121.61 325.308 122.114C326.229 122.617 326.951 123.297 327.475 124.152C327.999 125.007 328.261 125.958 328.261 127.006C328.261 127.755 328.125 128.487 327.853 129.203C327.588 129.912 327.124 130.705 326.461 131.58C325.805 132.448 324.893 133.509 323.727 134.761L319.153 139.653V139.812H328.619V142H315.772Z" fill="white"/>
<rect x="385" y="64" width="100" height="100" rx="12" fill="#009951"/>
<path d="M434.852 94H432.386C432.241 93.2907 431.985 92.6676 431.621 92.1307C431.263 91.5938 430.825 91.143 430.308 90.7784C429.798 90.4072 429.231 90.1288 428.608 89.9432C427.985 89.7576 427.335 89.6648 426.659 89.6648C425.426 89.6648 424.309 89.9763 423.308 90.5994C422.314 91.2225 421.522 92.1406 420.932 93.3537C420.348 94.5668 420.057 96.0549 420.057 97.8182C420.057 99.5814 420.348 101.07 420.932 102.283C421.522 103.496 422.314 104.414 423.308 105.037C424.309 105.66 425.426 105.972 426.659 105.972C427.335 105.972 427.985 105.879 428.608 105.693C429.231 105.508 429.798 105.232 430.308 104.868C430.825 104.497 431.263 104.043 431.621 103.506C431.985 102.962 432.241 102.339 432.386 101.636H434.852C434.667 102.677 434.329 103.608 433.838 104.43C433.348 105.252 432.738 105.952 432.009 106.528C431.279 107.098 430.461 107.533 429.553 107.831C428.651 108.129 427.687 108.278 426.659 108.278C424.922 108.278 423.378 107.854 422.026 107.006C420.673 106.157 419.609 104.951 418.834 103.386C418.058 101.822 417.67 99.9659 417.67 97.8182C417.67 95.6705 418.058 93.8144 418.834 92.25C419.609 90.6856 420.673 89.4792 422.026 88.6307C423.378 87.7822 424.922 87.358 426.659 87.358C427.687 87.358 428.651 87.5071 429.553 87.8054C430.461 88.1037 431.279 88.5412 432.009 89.1179C432.738 89.688 433.348 90.384 433.838 91.206C434.329 92.0213 434.667 92.9527 434.852 94ZM425.625 108.08H427.574L427.415 108.875C427.932 108.955 428.406 109.17 428.837 109.521C429.268 109.879 429.483 110.446 429.483 111.222C429.483 112.077 429.128 112.773 428.419 113.31C427.716 113.853 426.679 114.125 425.307 114.125L425.227 112.574C425.844 112.574 426.354 112.474 426.759 112.276C427.17 112.083 427.375 111.759 427.375 111.301C427.375 110.844 427.206 110.532 426.868 110.366C426.53 110.201 425.983 110.088 425.227 110.028L425.625 108.08ZM425.744 142L429.085 121.636H431.074L427.733 142H425.744ZM416.477 136.352L416.795 134.364H431.989L431.67 136.352H416.477ZM418.585 142L421.926 121.636H423.915L420.574 142H418.585ZM417.67 129.273L417.989 127.284H433.182L432.864 129.273H417.67ZM442.653 142.278C441.34 142.278 440.17 142.053 439.143 141.602C438.122 141.152 437.31 140.525 436.707 139.723C436.11 138.914 435.785 137.976 435.732 136.909H438.238C438.291 137.565 438.516 138.132 438.914 138.609C439.312 139.08 439.832 139.445 440.475 139.703C441.118 139.962 441.831 140.091 442.613 140.091C443.488 140.091 444.263 139.938 444.94 139.634C445.616 139.329 446.146 138.904 446.531 138.361C446.915 137.817 447.107 137.188 447.107 136.472C447.107 135.723 446.922 135.063 446.55 134.493C446.179 133.916 445.636 133.465 444.92 133.141C444.204 132.816 443.329 132.653 442.295 132.653H440.664V130.466H442.295C443.103 130.466 443.813 130.32 444.423 130.028C445.039 129.737 445.52 129.326 445.864 128.795C446.216 128.265 446.391 127.642 446.391 126.926C446.391 126.237 446.239 125.637 445.934 125.126C445.629 124.616 445.198 124.218 444.641 123.933C444.091 123.648 443.442 123.506 442.692 123.506C441.99 123.506 441.327 123.635 440.704 123.893C440.087 124.145 439.584 124.513 439.192 124.997C438.801 125.474 438.589 126.051 438.556 126.727H436.17C436.21 125.66 436.531 124.725 437.134 123.923C437.737 123.115 438.526 122.485 439.501 122.034C440.482 121.583 441.559 121.358 442.732 121.358C443.992 121.358 445.072 121.613 445.974 122.124C446.875 122.627 447.568 123.294 448.052 124.122C448.536 124.951 448.778 125.846 448.778 126.807C448.778 127.954 448.476 128.931 447.873 129.74C447.276 130.549 446.464 131.109 445.437 131.42V131.58C446.723 131.792 447.727 132.339 448.45 133.22C449.172 134.095 449.533 135.179 449.533 136.472C449.533 137.579 449.232 138.573 448.629 139.455C448.032 140.33 447.217 141.019 446.183 141.523C445.148 142.027 443.972 142.278 442.653 142.278Z" fill="white"/>
<rect x="505" y="64" width="100" height="100" rx="12" fill="#009951"/>
<path d="M554.852 94H552.386C552.241 93.2907 551.985 92.6676 551.621 92.1307C551.263 91.5938 550.825 91.143 550.308 90.7784C549.798 90.4072 549.231 90.1288 548.608 89.9432C547.985 89.7576 547.335 89.6648 546.659 89.6648C545.426 89.6648 544.309 89.9763 543.308 90.5994C542.314 91.2225 541.522 92.1406 540.932 93.3537C540.348 94.5668 540.057 96.0549 540.057 97.8182C540.057 99.5814 540.348 101.07 540.932 102.283C541.522 103.496 542.314 104.414 543.308 105.037C544.309 105.66 545.426 105.972 546.659 105.972C547.335 105.972 547.985 105.879 548.608 105.693C549.231 105.508 549.798 105.232 550.308 104.868C550.825 104.497 551.263 104.043 551.621 103.506C551.985 102.962 552.241 102.339 552.386 101.636H554.852C554.667 102.677 554.329 103.608 553.838 104.43C553.348 105.252 552.738 105.952 552.009 106.528C551.279 107.098 550.461 107.533 549.553 107.831C548.651 108.129 547.687 108.278 546.659 108.278C544.922 108.278 543.378 107.854 542.026 107.006C540.673 106.157 539.609 104.951 538.834 103.386C538.058 101.822 537.67 99.9659 537.67 97.8182C537.67 95.6705 538.058 93.8144 538.834 92.25C539.609 90.6856 540.673 89.4792 542.026 88.6307C543.378 87.7822 544.922 87.358 546.659 87.358C547.687 87.358 548.651 87.5071 549.553 87.8054C550.461 88.1037 551.279 88.5412 552.009 89.1179C552.738 89.688 553.348 90.384 553.838 91.206C554.329 92.0213 554.667 92.9527 554.852 94ZM545.625 108.08H547.574L547.415 108.875C547.932 108.955 548.406 109.17 548.837 109.521C549.268 109.879 549.483 110.446 549.483 111.222C549.483 112.077 549.128 112.773 548.419 113.31C547.716 113.853 546.679 114.125 545.307 114.125L545.227 112.574C545.844 112.574 546.354 112.474 546.759 112.276C547.17 112.083 547.375 111.759 547.375 111.301C547.375 110.844 547.206 110.532 546.868 110.366C546.53 110.201 545.983 110.088 545.227 110.028L545.625 108.08ZM545.744 142L549.085 121.636H551.074L547.733 142H545.744ZM536.477 136.352L536.795 134.364H551.989L551.67 136.352H536.477ZM538.585 142L541.926 121.636H543.915L540.574 142H538.585ZM537.67 129.273L537.989 127.284H553.182L552.864 129.273H537.67ZM555.295 137.824V135.795L564.244 121.636H565.715V124.778H564.721L557.96 135.477V135.636H570.011V137.824H555.295ZM564.88 142V137.207V136.263V121.636H567.227V142H564.88Z" fill="white"/>
<rect x="625" y="64" width="100" height="100" rx="12" fill="#009951"/>
<path d="M674.852 94H672.386C672.241 93.2907 671.985 92.6676 671.621 92.1307C671.263 91.5938 670.825 91.143 670.308 90.7784C669.798 90.4072 669.231 90.1288 668.608 89.9432C667.985 89.7576 667.335 89.6648 666.659 89.6648C665.426 89.6648 664.309 89.9763 663.308 90.5994C662.314 91.2225 661.522 92.1406 660.932 93.3537C660.348 94.5668 660.057 96.0549 660.057 97.8182C660.057 99.5814 660.348 101.07 660.932 102.283C661.522 103.496 662.314 104.414 663.308 105.037C664.309 105.66 665.426 105.972 666.659 105.972C667.335 105.972 667.985 105.879 668.608 105.693C669.231 105.508 669.798 105.232 670.308 104.868C670.825 104.497 671.263 104.043 671.621 103.506C671.985 102.962 672.241 102.339 672.386 101.636H674.852C674.667 102.677 674.329 103.608 673.838 104.43C673.348 105.252 672.738 105.952 672.009 106.528C671.279 107.098 670.461 107.533 669.553 107.831C668.651 108.129 667.687 108.278 666.659 108.278C664.922 108.278 663.378 107.854 662.026 107.006C660.673 106.157 659.609 104.951 658.834 103.386C658.058 101.822 657.67 99.9659 657.67 97.8182C657.67 95.6705 658.058 93.8144 658.834 92.25C659.609 90.6856 660.673 89.4792 662.026 88.6307C663.378 87.7822 664.922 87.358 666.659 87.358C667.687 87.358 668.651 87.5071 669.553 87.8054C670.461 88.1037 671.279 88.5412 672.009 89.1179C672.738 89.688 673.348 90.384 673.838 91.206C674.329 92.0213 674.667 92.9527 674.852 94ZM665.625 108.08H667.574L667.415 108.875C667.932 108.955 668.406 109.17 668.837 109.521C669.268 109.879 669.483 110.446 669.483 111.222C669.483 112.077 669.128 112.773 668.419 113.31C667.716 113.853 666.679 114.125 665.307 114.125L665.227 112.574C665.844 112.574 666.354 112.474 666.759 112.276C667.17 112.083 667.375 111.759 667.375 111.301C667.375 110.844 667.206 110.532 666.868 110.366C666.53 110.201 665.983 110.088 665.227 110.028L665.625 108.08ZM665.744 142L669.085 121.636H671.074L667.733 142H665.744ZM656.477 136.352L656.795 134.364H671.989L671.67 136.352H656.477ZM658.585 142L661.926 121.636H663.915L660.574 142H658.585ZM657.67 129.273L657.989 127.284H673.182L672.864 129.273H657.67ZM682.136 142.278C680.969 142.278 679.918 142.046 678.984 141.582C678.049 141.118 677.3 140.482 676.737 139.673C676.173 138.865 675.865 137.943 675.812 136.909H678.198C678.291 137.83 678.709 138.593 679.451 139.196C680.2 139.793 681.095 140.091 682.136 140.091C682.971 140.091 683.713 139.895 684.363 139.504C685.019 139.113 685.533 138.576 685.904 137.893C686.282 137.204 686.471 136.425 686.471 135.557C686.471 134.669 686.275 133.876 685.884 133.18C685.5 132.478 684.969 131.924 684.293 131.52C683.617 131.116 682.845 130.91 681.977 130.903C681.353 130.897 680.714 130.993 680.058 131.192C679.401 131.384 678.861 131.633 678.437 131.938L676.13 131.659L677.363 121.636H687.942V123.824H679.431L678.715 129.83H678.835C679.252 129.498 679.776 129.223 680.406 129.004C681.035 128.786 681.692 128.676 682.374 128.676C683.621 128.676 684.731 128.974 685.705 129.571C686.686 130.161 687.455 130.97 688.012 131.997C688.576 133.025 688.857 134.198 688.857 135.517C688.857 136.816 688.566 137.976 687.982 138.997C687.406 140.011 686.61 140.813 685.596 141.403C684.582 141.987 683.428 142.278 682.136 142.278Z" fill="white"/>
<rect x="145" y="64" width="100" height="100" rx="12" fill="#009951"/>
<path d="M194.852 94H192.386C192.241 93.2907 191.985 92.6676 191.621 92.1307C191.263 91.5938 190.825 91.143 190.308 90.7784C189.798 90.4072 189.231 90.1288 188.608 89.9432C187.985 89.7576 187.335 89.6648 186.659 89.6648C185.426 89.6648 184.309 89.9763 183.308 90.5994C182.314 91.2225 181.522 92.1406 180.932 93.3537C180.348 94.5668 180.057 96.0549 180.057 97.8182C180.057 99.5814 180.348 101.07 180.932 102.283C181.522 103.496 182.314 104.414 183.308 105.037C184.309 105.66 185.426 105.972 186.659 105.972C187.335 105.972 187.985 105.879 188.608 105.693C189.231 105.508 189.798 105.232 190.308 104.868C190.825 104.497 191.263 104.043 191.621 103.506C191.985 102.962 192.241 102.339 192.386 101.636H194.852C194.667 102.677 194.329 103.608 193.838 104.43C193.348 105.252 192.738 105.952 192.009 106.528C191.279 107.098 190.461 107.533 189.553 107.831C188.651 108.129 187.687 108.278 186.659 108.278C184.922 108.278 183.378 107.854 182.026 107.006C180.673 106.157 179.609 104.951 178.834 103.386C178.058 101.822 177.67 99.9659 177.67 97.8182C177.67 95.6705 178.058 93.8144 178.834 92.25C179.609 90.6856 180.673 89.4792 182.026 88.6307C183.378 87.7822 184.922 87.358 186.659 87.358C187.687 87.358 188.651 87.5071 189.553 87.8054C190.461 88.1037 191.279 88.5412 192.009 89.1179C192.738 89.688 193.348 90.384 193.838 91.206C194.329 92.0213 194.667 92.9527 194.852 94ZM185.625 108.08H187.574L187.415 108.875C187.932 108.955 188.406 109.17 188.837 109.521C189.268 109.879 189.483 110.446 189.483 111.222C189.483 112.077 189.128 112.773 188.419 113.31C187.716 113.853 186.679 114.125 185.307 114.125L185.227 112.574C185.844 112.574 186.354 112.474 186.759 112.276C187.17 112.083 187.375 111.759 187.375 111.301C187.375 110.844 187.206 110.532 186.868 110.366C186.53 110.201 185.983 110.088 185.227 110.028L185.625 108.08ZM185.744 142L189.085 121.636H191.074L187.733 142H185.744ZM176.477 136.352L176.795 134.364H191.989L191.67 136.352H176.477ZM178.585 142L181.926 121.636H183.915L180.574 142H178.585ZM177.67 129.273L177.989 127.284H193.182L192.864 129.273H177.67ZM202.931 121.636V142H200.465V124.222H200.346L195.374 127.523V125.017L200.465 121.636H202.931Z" fill="white"/>
<rect y="200" width="100" height="100" rx="12" fill="#BF6A02"/>
<path d="M33.4659 244V223.636H35.9318V233.739H36.1705L45.3182 223.636H48.5398L39.9886 232.824L48.5398 244H45.5568L38.4773 234.534L35.9318 237.398V244H33.4659ZM40.7443 278L44.0852 257.636H46.0739L42.733 278H40.7443ZM31.4773 272.352L31.7955 270.364H46.9886L46.6705 272.352H31.4773ZM33.5852 278L36.9261 257.636H38.9148L35.5739 278H33.5852ZM32.6705 265.273L32.9886 263.284H48.1818L47.8636 265.273H32.6705ZM57.9311 257.636V278H55.4652V260.222H55.3459L50.3743 263.523V261.017L55.4652 257.636H57.9311Z" fill="white"/>
<rect x="265" y="443" width="100" height="100" rx="12" fill="#BF6A02"/>
<path d="M298.466 487V466.636H300.932V476.739H301.17L310.318 466.636H313.54L304.989 475.824L313.54 487H310.557L303.477 477.534L300.932 480.398V487H298.466ZM305.744 521L309.085 500.636H311.074L307.733 521H305.744ZM296.477 515.352L296.795 513.364H311.989L311.67 515.352H296.477ZM298.585 521L301.926 500.636H303.915L300.574 521H298.585ZM297.67 508.273L297.989 506.284H313.182L312.864 508.273H297.67ZM315.772 521V519.21L322.494 511.852C323.282 510.991 323.932 510.241 324.442 509.605C324.953 508.962 325.331 508.359 325.576 507.795C325.828 507.225 325.954 506.629 325.954 506.006C325.954 505.29 325.781 504.67 325.437 504.146C325.099 503.623 324.635 503.218 324.045 502.933C323.455 502.648 322.792 502.506 322.056 502.506C321.274 502.506 320.591 502.668 320.008 502.993C319.431 503.311 318.984 503.759 318.665 504.335C318.354 504.912 318.198 505.588 318.198 506.364H315.852C315.852 505.17 316.127 504.123 316.677 503.222C317.227 502.32 317.976 501.617 318.924 501.114C319.879 500.61 320.949 500.358 322.136 500.358C323.329 500.358 324.386 500.61 325.308 501.114C326.229 501.617 326.951 502.297 327.475 503.152C327.999 504.007 328.261 504.958 328.261 506.006C328.261 506.755 328.125 507.487 327.853 508.203C327.588 508.912 327.124 509.705 326.461 510.58C325.805 511.448 324.893 512.509 323.727 513.761L319.153 518.653V518.812H328.619V521H315.772Z" fill="white"/>
<rect x="385" y="443" width="100" height="100" rx="12" fill="#BF6A02"/>
<path d="M418.466 487V466.636H420.932V476.739H421.17L430.318 466.636H433.54L424.989 475.824L433.54 487H430.557L423.477 477.534L420.932 480.398V487H418.466ZM425.744 521L429.085 500.636H431.074L427.733 521H425.744ZM416.477 515.352L416.795 513.364H431.989L431.67 515.352H416.477ZM418.585 521L421.926 500.636H423.915L420.574 521H418.585ZM417.67 508.273L417.989 506.284H433.182L432.864 508.273H417.67ZM442.653 521.278C441.34 521.278 440.17 521.053 439.143 520.602C438.122 520.152 437.31 519.525 436.707 518.723C436.11 517.914 435.785 516.976 435.732 515.909H438.238C438.291 516.565 438.516 517.132 438.914 517.609C439.312 518.08 439.832 518.445 440.475 518.703C441.118 518.962 441.831 519.091 442.613 519.091C443.488 519.091 444.263 518.938 444.94 518.634C445.616 518.329 446.146 517.904 446.531 517.361C446.915 516.817 447.107 516.188 447.107 515.472C447.107 514.723 446.922 514.063 446.55 513.493C446.179 512.916 445.636 512.465 444.92 512.141C444.204 511.816 443.329 511.653 442.295 511.653H440.664V509.466H442.295C443.103 509.466 443.813 509.32 444.423 509.028C445.039 508.737 445.52 508.326 445.864 507.795C446.216 507.265 446.391 506.642 446.391 505.926C446.391 505.237 446.239 504.637 445.934 504.126C445.629 503.616 445.198 503.218 444.641 502.933C444.091 502.648 443.442 502.506 442.692 502.506C441.99 502.506 441.327 502.635 440.704 502.893C440.087 503.145 439.584 503.513 439.192 503.997C438.801 504.474 438.589 505.051 438.556 505.727H436.17C436.21 504.66 436.531 503.725 437.134 502.923C437.737 502.115 438.526 501.485 439.501 501.034C440.482 500.583 441.559 500.358 442.732 500.358C443.992 500.358 445.072 500.613 445.974 501.124C446.875 501.627 447.568 502.294 448.052 503.122C448.536 503.951 448.778 504.846 448.778 505.807C448.778 506.954 448.476 507.931 447.873 508.74C447.276 509.549 446.464 510.109 445.437 510.42V510.58C446.723 510.792 447.727 511.339 448.45 512.22C449.172 513.095 449.533 514.179 449.533 515.472C449.533 516.579 449.232 517.573 448.629 518.455C448.032 519.33 447.217 520.019 446.183 520.523C445.148 521.027 443.972 521.278 442.653 521.278Z" fill="white"/>
<rect x="3" y="385" width="31" height="186" fill="#D9D9D9"/>
<path d="M27.0002 509.233L6.63652 509.231L6.6369 504.925L15.6156 504.926L15.6156 504.658L6.63758 497.329L6.63804 492.168L15.7553 499.726L27.0017 492.081L27.0012 497.231L18.6286 502.808L21.2136 504.927L27.0005 504.927L27.0002 509.233ZM27.0022 486.418L27.0018 491.032L6.63876 484L6.63926 478.452L27.0035 471.434L27.0031 476.047L11.2924 481.147L11.2924 481.306L27.0022 486.418ZM18.9979 486.706L18.9989 475.808L22.3597 475.808L22.3587 486.706L18.9979 486.706ZM27.0037 468.983L6.6401 468.981L6.64081 460.947C6.64095 459.402 6.93605 458.086 7.52611 456.999C8.10954 455.912 8.92164 455.084 9.96241 454.514C10.9965 453.937 12.1898 453.649 13.542 453.649C14.8943 453.649 16.0875 453.941 17.1215 454.524C18.1555 455.108 18.9609 455.953 19.5375 457.06C20.1141 458.16 20.4023 459.493 20.4022 461.057L20.4017 466.178L16.9514 466.178L16.9518 461.753C16.9519 460.924 16.8094 460.242 16.5244 459.705C16.2328 459.161 15.8318 458.757 15.3214 458.491C14.8044 458.22 14.2111 458.084 13.5416 458.084C12.8655 458.084 12.2755 458.219 11.7717 458.491C11.2613 458.756 10.8668 459.161 10.5884 459.704C10.3033 460.248 10.1607 460.937 10.1606 461.772L10.1604 464.676L27.0041 464.677L27.0037 468.983ZM6.64209 446.546L27.0057 446.548L27.0053 450.854L6.64171 450.852L6.64209 446.546Z" fill="black"/>
<path d="M565.301 511H562.716L570.193 490.636H572.739L580.216 511H577.631L571.545 493.858H571.386L565.301 511ZM566.256 503.045H576.676V505.233H566.256V503.045ZM591.263 511V490.636H598.382C599.801 490.636 600.971 490.882 601.892 491.372C602.813 491.856 603.5 492.509 603.95 493.331C604.401 494.146 604.626 495.051 604.626 496.045C604.626 496.92 604.471 497.643 604.159 498.213C603.854 498.783 603.45 499.234 602.946 499.565C602.449 499.897 601.909 500.142 601.325 500.301V500.5C601.948 500.54 602.575 500.759 603.205 501.156C603.834 501.554 604.361 502.124 604.786 502.866C605.21 503.609 605.422 504.517 605.422 505.591C605.422 506.612 605.19 507.53 604.726 508.345C604.262 509.161 603.529 509.807 602.528 510.284C601.527 510.761 600.225 511 598.621 511H591.263ZM593.729 508.812H598.621C600.232 508.812 601.375 508.501 602.051 507.878C602.734 507.248 603.075 506.486 603.075 505.591C603.075 504.902 602.9 504.265 602.548 503.682C602.197 503.092 601.696 502.621 601.047 502.27C600.397 501.912 599.628 501.733 598.74 501.733H593.729V508.812ZM593.729 499.585H598.303C599.045 499.585 599.714 499.439 600.311 499.148C600.914 498.856 601.392 498.445 601.743 497.915C602.101 497.384 602.28 496.761 602.28 496.045C602.28 495.151 601.968 494.392 601.345 493.768C600.722 493.139 599.734 492.824 598.382 492.824H593.729V499.585ZM609.474 511V490.636H611.94V508.812H621.406V511H609.474ZM641.613 500.818C641.613 502.966 641.225 504.822 640.449 506.386C639.674 507.951 638.61 509.157 637.257 510.006C635.905 510.854 634.361 511.278 632.624 511.278C630.887 511.278 629.343 510.854 627.99 510.006C626.638 509.157 625.574 507.951 624.799 506.386C624.023 504.822 623.635 502.966 623.635 500.818C623.635 498.67 624.023 496.814 624.799 495.25C625.574 493.686 626.638 492.479 627.99 491.631C629.343 490.782 630.887 490.358 632.624 490.358C634.361 490.358 635.905 490.782 637.257 491.631C638.61 492.479 639.674 493.686 640.449 495.25C641.225 496.814 641.613 498.67 641.613 500.818ZM639.226 500.818C639.226 499.055 638.931 497.567 638.341 496.354C637.758 495.141 636.966 494.223 635.965 493.599C634.971 492.976 633.857 492.665 632.624 492.665C631.391 492.665 630.274 492.976 629.273 493.599C628.279 494.223 627.487 495.141 626.897 496.354C626.313 497.567 626.022 499.055 626.022 500.818C626.022 502.581 626.313 504.07 626.897 505.283C627.487 506.496 628.279 507.414 629.273 508.037C630.274 508.66 631.391 508.972 632.624 508.972C633.857 508.972 634.971 508.66 635.965 508.037C636.966 507.414 637.758 506.496 638.341 505.283C638.931 504.07 639.226 502.581 639.226 500.818ZM645.759 511V490.636H648.225V500.739H648.463L657.611 490.636H660.833L652.282 499.824L660.833 511H657.85L650.77 501.534L648.225 504.398V511H645.759ZM671.9 511V490.636H674.365V500.739H674.604L683.752 490.636H686.973L678.422 499.824L686.973 511H683.99L676.911 501.534L674.365 504.398V511H671.9ZM691 511H688.415L695.892 490.636H698.438L705.915 511H703.33L697.245 493.858H697.086L691 511ZM691.955 503.045H702.375V505.233H691.955V503.045ZM705.594 492.824V490.636H720.867V492.824H714.464V511H711.998V492.824H705.594ZM732.19 511V509.21L738.912 501.852C739.7 500.991 740.35 500.241 740.86 499.605C741.371 498.962 741.749 498.359 741.994 497.795C742.246 497.225 742.372 496.629 742.372 496.006C742.372 495.29 742.199 494.67 741.855 494.146C741.517 493.623 741.053 493.218 740.463 492.933C739.873 492.648 739.21 492.506 738.474 492.506C737.692 492.506 737.009 492.668 736.426 492.993C735.849 493.311 735.402 493.759 735.083 494.335C734.772 494.912 734.616 495.588 734.616 496.364H732.27C732.27 495.17 732.545 494.123 733.095 493.222C733.645 492.32 734.394 491.617 735.342 491.114C736.297 490.61 737.367 490.358 738.554 490.358C739.747 490.358 740.804 490.61 741.725 491.114C742.647 491.617 743.369 492.297 743.893 493.152C744.417 494.007 744.679 494.958 744.679 496.006C744.679 496.755 744.543 497.487 744.271 498.203C744.006 498.912 743.542 499.705 742.879 500.58C742.223 501.448 741.311 502.509 740.145 503.761L735.571 508.653V508.812H745.037V511H732.19Z" fill="black"/>
</svg>
