<svg width="800" height="600" viewBox="0 0 800 600" fill="none" xmlns="http://www.w3.org/2000/svg">
<rect width="800" height="600" fill="#F8FAFC"/>
<rect x="213" y="64" width="100" height="100" rx="12" fill="#009951"/>
<path d="M262.852 94H260.386C260.241 93.2907 259.985 92.6676 259.621 92.1307C259.263 91.5938 258.825 91.143 258.308 90.7784C257.798 90.4072 257.231 90.1288 256.608 89.9432C255.985 89.7576 255.335 89.6648 254.659 89.6648C253.426 89.6648 252.309 89.9763 251.308 90.5994C250.314 91.2225 249.522 92.1406 248.932 93.3537C248.348 94.5668 248.057 96.0549 248.057 97.8182C248.057 99.5814 248.348 101.07 248.932 102.283C249.522 103.496 250.314 104.414 251.308 105.037C252.309 105.66 253.426 105.972 254.659 105.972C255.335 105.972 255.985 105.879 256.608 105.693C257.231 105.508 257.798 105.232 258.308 104.868C258.825 104.497 259.263 104.043 259.621 103.506C259.985 102.962 260.241 102.339 260.386 101.636H262.852C262.667 102.677 262.329 103.608 261.838 104.43C261.348 105.252 260.738 105.952 260.009 106.528C259.279 107.098 258.461 107.533 257.553 107.831C256.651 108.129 255.687 108.278 254.659 108.278C252.922 108.278 251.378 107.854 250.026 107.006C248.673 106.157 247.609 104.951 246.834 103.386C246.058 101.822 245.67 99.9659 245.67 97.8182C245.67 95.6705 246.058 93.8144 246.834 92.25C247.609 90.6856 248.673 89.4792 250.026 88.6307C251.378 87.7822 252.922 87.358 254.659 87.358C255.687 87.358 256.651 87.5071 257.553 87.8054C258.461 88.1037 259.279 88.5412 260.009 89.1179C260.738 89.688 261.348 90.384 261.838 91.206C262.329 92.0213 262.667 92.9527 262.852 94ZM253.625 108.08H255.574L255.415 108.875C255.932 108.955 256.406 109.17 256.837 109.521C257.268 109.879 257.483 110.446 257.483 111.222C257.483 112.077 257.128 112.773 256.419 113.31C255.716 113.853 254.679 114.125 253.307 114.125L253.227 112.574C253.844 112.574 254.354 112.474 254.759 112.276C255.17 112.083 255.375 111.759 255.375 111.301C255.375 110.844 255.206 110.532 254.868 110.366C254.53 110.201 253.983 110.088 253.227 110.028L253.625 108.08ZM253.744 142L257.085 121.636H259.074L255.733 142H253.744ZM244.477 136.352L244.795 134.364H259.989L259.67 136.352H244.477ZM246.585 142L249.926 121.636H251.915L248.574 142H246.585ZM245.67 129.273L245.989 127.284H261.182L260.864 129.273H245.67ZM263.772 142V140.21L270.494 132.852C271.282 131.991 271.932 131.241 272.442 130.605C272.953 129.962 273.331 129.359 273.576 128.795C273.828 128.225 273.954 127.629 273.954 127.006C273.954 126.29 273.781 125.67 273.437 125.146C273.099 124.623 272.635 124.218 272.045 123.933C271.455 123.648 270.792 123.506 270.056 123.506C269.274 123.506 268.591 123.668 268.008 123.993C267.431 124.311 266.984 124.759 266.665 125.335C266.354 125.912 266.198 126.588 266.198 127.364H263.852C263.852 126.17 264.127 125.123 264.677 124.222C265.227 123.32 265.976 122.617 266.924 122.114C267.879 121.61 268.949 121.358 270.136 121.358C271.329 121.358 272.386 121.61 273.308 122.114C274.229 122.617 274.951 123.297 275.475 124.152C275.999 125.007 276.261 125.958 276.261 127.006C276.261 127.755 276.125 128.487 275.853 129.203C275.588 129.912 275.124 130.705 274.461 131.58C273.805 132.448 272.893 133.509 271.727 134.761L267.153 139.653V139.812H276.619V142H263.772Z" fill="white"/>
<rect x="453" y="64" width="100" height="100" rx="12" fill="#009951"/>
<path d="M502.852 94H500.386C500.241 93.2907 499.985 92.6676 499.621 92.1307C499.263 91.5938 498.825 91.143 498.308 90.7784C497.798 90.4072 497.231 90.1288 496.608 89.9432C495.985 89.7576 495.335 89.6648 494.659 89.6648C493.426 89.6648 492.309 89.9763 491.308 90.5994C490.314 91.2225 489.522 92.1406 488.932 93.3537C488.348 94.5668 488.057 96.0549 488.057 97.8182C488.057 99.5814 488.348 101.07 488.932 102.283C489.522 103.496 490.314 104.414 491.308 105.037C492.309 105.66 493.426 105.972 494.659 105.972C495.335 105.972 495.985 105.879 496.608 105.693C497.231 105.508 497.798 105.232 498.308 104.868C498.825 104.497 499.263 104.043 499.621 103.506C499.985 102.962 500.241 102.339 500.386 101.636H502.852C502.667 102.677 502.329 103.608 501.838 104.43C501.348 105.252 500.738 105.952 500.009 106.528C499.279 107.098 498.461 107.533 497.553 107.831C496.651 108.129 495.687 108.278 494.659 108.278C492.922 108.278 491.378 107.854 490.026 107.006C488.673 106.157 487.609 104.951 486.834 103.386C486.058 101.822 485.67 99.9659 485.67 97.8182C485.67 95.6705 486.058 93.8144 486.834 92.25C487.609 90.6856 488.673 89.4792 490.026 88.6307C491.378 87.7822 492.922 87.358 494.659 87.358C495.687 87.358 496.651 87.5071 497.553 87.8054C498.461 88.1037 499.279 88.5412 500.009 89.1179C500.738 89.688 501.348 90.384 501.838 91.206C502.329 92.0213 502.667 92.9527 502.852 94ZM493.625 108.08H495.574L495.415 108.875C495.932 108.955 496.406 109.17 496.837 109.521C497.268 109.879 497.483 110.446 497.483 111.222C497.483 112.077 497.128 112.773 496.419 113.31C495.716 113.853 494.679 114.125 493.307 114.125L493.227 112.574C493.844 112.574 494.354 112.474 494.759 112.276C495.17 112.083 495.375 111.759 495.375 111.301C495.375 110.844 495.206 110.532 494.868 110.366C494.53 110.201 493.983 110.088 493.227 110.028L493.625 108.08ZM493.744 142L497.085 121.636H499.074L495.733 142H493.744ZM484.477 136.352L484.795 134.364H499.989L499.67 136.352H484.477ZM486.585 142L489.926 121.636H491.915L488.574 142H486.585ZM485.67 129.273L485.989 127.284H501.182L500.864 129.273H485.67ZM510.653 142.278C509.34 142.278 508.17 142.053 507.143 141.602C506.122 141.152 505.31 140.525 504.707 139.723C504.11 138.914 503.785 137.976 503.732 136.909H506.238C506.291 137.565 506.516 138.132 506.914 138.609C507.312 139.08 507.832 139.445 508.475 139.703C509.118 139.962 509.831 140.091 510.613 140.091C511.488 140.091 512.263 139.938 512.94 139.634C513.616 139.329 514.146 138.904 514.531 138.361C514.915 137.817 515.107 137.188 515.107 136.472C515.107 135.723 514.922 135.063 514.55 134.493C514.179 133.916 513.636 133.465 512.92 133.141C512.204 132.816 511.329 132.653 510.295 132.653H508.664V130.466H510.295C511.103 130.466 511.813 130.32 512.423 130.028C513.039 129.737 513.52 129.326 513.864 128.795C514.216 128.265 514.391 127.642 514.391 126.926C514.391 126.237 514.239 125.637 513.934 125.126C513.629 124.616 513.198 124.218 512.641 123.933C512.091 123.648 511.442 123.506 510.692 123.506C509.99 123.506 509.327 123.635 508.704 123.893C508.087 124.145 507.584 124.513 507.192 124.997C506.801 125.474 506.589 126.051 506.556 126.727H504.17C504.21 125.66 504.531 124.725 505.134 123.923C505.737 123.115 506.526 122.485 507.501 122.034C508.482 121.583 509.559 121.358 510.732 121.358C511.992 121.358 513.072 121.613 513.974 122.124C514.875 122.627 515.568 123.294 516.052 124.122C516.536 124.951 516.778 125.846 516.778 126.807C516.778 127.954 516.476 128.931 515.873 129.74C515.276 130.549 514.464 131.109 513.437 131.42V131.58C514.723 131.792 515.727 132.339 516.45 133.22C517.172 134.095 517.533 135.179 517.533 136.472C517.533 137.579 517.232 138.573 516.629 139.455C516.032 140.33 515.217 141.019 514.183 141.523C513.148 142.027 511.972 142.278 510.653 142.278Z" fill="white"/>
<rect x="573" y="64" width="100" height="100" rx="12" fill="#009951"/>
<path d="M622.852 94H620.386C620.241 93.2907 619.985 92.6676 619.621 92.1307C619.263 91.5938 618.825 91.143 618.308 90.7784C617.798 90.4072 617.231 90.1288 616.608 89.9432C615.985 89.7576 615.335 89.6648 614.659 89.6648C613.426 89.6648 612.309 89.9763 611.308 90.5994C610.314 91.2225 609.522 92.1406 608.932 93.3537C608.348 94.5668 608.057 96.0549 608.057 97.8182C608.057 99.5814 608.348 101.07 608.932 102.283C609.522 103.496 610.314 104.414 611.308 105.037C612.309 105.66 613.426 105.972 614.659 105.972C615.335 105.972 615.985 105.879 616.608 105.693C617.231 105.508 617.798 105.232 618.308 104.868C618.825 104.497 619.263 104.043 619.621 103.506C619.985 102.962 620.241 102.339 620.386 101.636H622.852C622.667 102.677 622.329 103.608 621.838 104.43C621.348 105.252 620.738 105.952 620.009 106.528C619.279 107.098 618.461 107.533 617.553 107.831C616.651 108.129 615.687 108.278 614.659 108.278C612.922 108.278 611.378 107.854 610.026 107.006C608.673 106.157 607.609 104.951 606.834 103.386C606.058 101.822 605.67 99.9659 605.67 97.8182C605.67 95.6705 606.058 93.8144 606.834 92.25C607.609 90.6856 608.673 89.4792 610.026 88.6307C611.378 87.7822 612.922 87.358 614.659 87.358C615.687 87.358 616.651 87.5071 617.553 87.8054C618.461 88.1037 619.279 88.5412 620.009 89.1179C620.738 89.688 621.348 90.384 621.838 91.206C622.329 92.0213 622.667 92.9527 622.852 94ZM613.625 108.08H615.574L615.415 108.875C615.932 108.955 616.406 109.17 616.837 109.521C617.268 109.879 617.483 110.446 617.483 111.222C617.483 112.077 617.128 112.773 616.419 113.31C615.716 113.853 614.679 114.125 613.307 114.125L613.227 112.574C613.844 112.574 614.354 112.474 614.759 112.276C615.17 112.083 615.375 111.759 615.375 111.301C615.375 110.844 615.206 110.532 614.868 110.366C614.53 110.201 613.983 110.088 613.227 110.028L613.625 108.08ZM613.744 142L617.085 121.636H619.074L615.733 142H613.744ZM604.477 136.352L604.795 134.364H619.989L619.67 136.352H604.477ZM606.585 142L609.926 121.636H611.915L608.574 142H606.585ZM605.67 129.273L605.989 127.284H621.182L620.864 129.273H605.67ZM623.295 137.824V135.795L632.244 121.636H633.715V124.778H632.721L625.96 135.477V135.636H638.011V137.824H623.295ZM632.88 142V137.207V136.263V121.636H635.227V142H632.88Z" fill="white"/>
<rect x="693" y="64" width="100" height="100" rx="12" fill="#009951"/>
<path d="M742.852 94H740.386C740.241 93.2907 739.985 92.6676 739.621 92.1307C739.263 91.5938 738.825 91.143 738.308 90.7784C737.798 90.4072 737.231 90.1288 736.608 89.9432C735.985 89.7576 735.335 89.6648 734.659 89.6648C733.426 89.6648 732.309 89.9763 731.308 90.5994C730.314 91.2225 729.522 92.1406 728.932 93.3537C728.348 94.5668 728.057 96.0549 728.057 97.8182C728.057 99.5814 728.348 101.07 728.932 102.283C729.522 103.496 730.314 104.414 731.308 105.037C732.309 105.66 733.426 105.972 734.659 105.972C735.335 105.972 735.985 105.879 736.608 105.693C737.231 105.508 737.798 105.232 738.308 104.868C738.825 104.497 739.263 104.043 739.621 103.506C739.985 102.962 740.241 102.339 740.386 101.636H742.852C742.667 102.677 742.329 103.608 741.838 104.43C741.348 105.252 740.738 105.952 740.009 106.528C739.279 107.098 738.461 107.533 737.553 107.831C736.651 108.129 735.687 108.278 734.659 108.278C732.922 108.278 731.378 107.854 730.026 107.006C728.673 106.157 727.609 104.951 726.834 103.386C726.058 101.822 725.67 99.9659 725.67 97.8182C725.67 95.6705 726.058 93.8144 726.834 92.25C727.609 90.6856 728.673 89.4792 730.026 88.6307C731.378 87.7822 732.922 87.358 734.659 87.358C735.687 87.358 736.651 87.5071 737.553 87.8054C738.461 88.1037 739.279 88.5412 740.009 89.1179C740.738 89.688 741.348 90.384 741.838 91.206C742.329 92.0213 742.667 92.9527 742.852 94ZM733.625 108.08H735.574L735.415 108.875C735.932 108.955 736.406 109.17 736.837 109.521C737.268 109.879 737.483 110.446 737.483 111.222C737.483 112.077 737.128 112.773 736.419 113.31C735.716 113.853 734.679 114.125 733.307 114.125L733.227 112.574C733.844 112.574 734.354 112.474 734.759 112.276C735.17 112.083 735.375 111.759 735.375 111.301C735.375 110.844 735.206 110.532 734.868 110.366C734.53 110.201 733.983 110.088 733.227 110.028L733.625 108.08ZM733.744 142L737.085 121.636H739.074L735.733 142H733.744ZM724.477 136.352L724.795 134.364H739.989L739.67 136.352H724.477ZM726.585 142L729.926 121.636H731.915L728.574 142H726.585ZM725.67 129.273L725.989 127.284H741.182L740.864 129.273H725.67ZM750.136 142.278C748.969 142.278 747.918 142.046 746.984 141.582C746.049 141.118 745.3 140.482 744.737 139.673C744.173 138.865 743.865 137.943 743.812 136.909H746.198C746.291 137.83 746.709 138.593 747.451 139.196C748.2 139.793 749.095 140.091 750.136 140.091C750.971 140.091 751.713 139.895 752.363 139.504C753.019 139.113 753.533 138.576 753.904 137.893C754.282 137.204 754.471 136.425 754.471 135.557C754.471 134.669 754.275 133.876 753.884 133.18C753.5 132.478 752.969 131.924 752.293 131.52C751.617 131.116 750.845 130.91 749.977 130.903C749.353 130.897 748.714 130.993 748.058 131.192C747.401 131.384 746.861 131.633 746.437 131.938L744.13 131.659L745.363 121.636H755.942V123.824H747.431L746.715 129.83H746.835C747.252 129.498 747.776 129.223 748.406 129.004C749.035 128.786 749.692 128.676 750.374 128.676C751.621 128.676 752.731 128.974 753.705 129.571C754.686 130.161 755.455 130.97 756.012 131.997C756.576 133.025 756.857 134.198 756.857 135.517C756.857 136.816 756.566 137.976 755.982 138.997C755.406 140.011 754.61 140.813 753.596 141.403C752.582 141.987 751.428 142.278 750.136 142.278Z" fill="white"/>
<rect x="93" y="64" width="100" height="100" rx="12" fill="#009951"/>
<path d="M142.852 94H140.386C140.241 93.2907 139.985 92.6676 139.621 92.1307C139.263 91.5938 138.825 91.143 138.308 90.7784C137.798 90.4072 137.231 90.1288 136.608 89.9432C135.985 89.7576 135.335 89.6648 134.659 89.6648C133.426 89.6648 132.309 89.9763 131.308 90.5994C130.314 91.2225 129.522 92.1406 128.932 93.3537C128.348 94.5668 128.057 96.0549 128.057 97.8182C128.057 99.5814 128.348 101.07 128.932 102.283C129.522 103.496 130.314 104.414 131.308 105.037C132.309 105.66 133.426 105.972 134.659 105.972C135.335 105.972 135.985 105.879 136.608 105.693C137.231 105.508 137.798 105.232 138.308 104.868C138.825 104.497 139.263 104.043 139.621 103.506C139.985 102.962 140.241 102.339 140.386 101.636H142.852C142.667 102.677 142.329 103.608 141.838 104.43C141.348 105.252 140.738 105.952 140.009 106.528C139.279 107.098 138.461 107.533 137.553 107.831C136.651 108.129 135.687 108.278 134.659 108.278C132.922 108.278 131.378 107.854 130.026 107.006C128.673 106.157 127.609 104.951 126.834 103.386C126.058 101.822 125.67 99.9659 125.67 97.8182C125.67 95.6705 126.058 93.8144 126.834 92.25C127.609 90.6856 128.673 89.4792 130.026 88.6307C131.378 87.7822 132.922 87.358 134.659 87.358C135.687 87.358 136.651 87.5071 137.553 87.8054C138.461 88.1037 139.279 88.5412 140.009 89.1179C140.738 89.688 141.348 90.384 141.838 91.206C142.329 92.0213 142.667 92.9527 142.852 94ZM133.625 108.08H135.574L135.415 108.875C135.932 108.955 136.406 109.17 136.837 109.521C137.268 109.879 137.483 110.446 137.483 111.222C137.483 112.077 137.128 112.773 136.419 113.31C135.716 113.853 134.679 114.125 133.307 114.125L133.227 112.574C133.844 112.574 134.354 112.474 134.759 112.276C135.17 112.083 135.375 111.759 135.375 111.301C135.375 110.844 135.206 110.532 134.868 110.366C134.53 110.201 133.983 110.088 133.227 110.028L133.625 108.08ZM133.744 142L137.085 121.636H139.074L135.733 142H133.744ZM124.477 136.352L124.795 134.364H139.989L139.67 136.352H124.477ZM126.585 142L129.926 121.636H131.915L128.574 142H126.585ZM125.67 129.273L125.989 127.284H141.182L140.864 129.273H125.67ZM150.931 121.636V142H148.465V124.222H148.346L143.374 127.523V125.017L148.465 121.636H150.931Z" fill="white"/>
<rect x="3" y="214" width="100" height="100" rx="12" fill="#BF6A02"/>
<path d="M36.4659 258V237.636H38.9318V247.739H39.1705L48.3182 237.636H51.5398L42.9886 246.824L51.5398 258H48.5568L41.4773 248.534L38.9318 251.398V258H36.4659ZM43.7443 292L47.0852 271.636H49.0739L45.733 292H43.7443ZM34.4773 286.352L34.7955 284.364H49.9886L49.6705 286.352H34.4773ZM36.5852 292L39.9261 271.636H41.9148L38.5739 292H36.5852ZM35.6705 279.273L35.9886 277.284H51.1818L50.8636 279.273H35.6705ZM60.9311 271.636V292H58.4652V274.222H58.3459L53.3743 277.523V275.017L58.4652 271.636H60.9311Z" fill="white"/>
<rect x="176" y="493" width="100" height="100" rx="12" fill="#BF6A02"/>
<path d="M209.466 537V516.636H211.932V526.739H212.17L221.318 516.636H224.54L215.989 525.824L224.54 537H221.557L214.477 527.534L211.932 530.398V537H209.466ZM216.744 571L220.085 550.636H222.074L218.733 571H216.744ZM207.477 565.352L207.795 563.364H222.989L222.67 565.352H207.477ZM209.585 571L212.926 550.636H214.915L211.574 571H209.585ZM208.67 558.273L208.989 556.284H224.182L223.864 558.273H208.67ZM226.772 571V569.21L233.494 561.852C234.282 560.991 234.932 560.241 235.442 559.605C235.953 558.962 236.331 558.359 236.576 557.795C236.828 557.225 236.954 556.629 236.954 556.006C236.954 555.29 236.781 554.67 236.437 554.146C236.099 553.623 235.635 553.218 235.045 552.933C234.455 552.648 233.792 552.506 233.056 552.506C232.274 552.506 231.591 552.668 231.008 552.993C230.431 553.311 229.984 553.759 229.665 554.335C229.354 554.912 229.198 555.588 229.198 556.364H226.852C226.852 555.17 227.127 554.123 227.677 553.222C228.227 552.32 228.976 551.617 229.924 551.114C230.879 550.61 231.949 550.358 233.136 550.358C234.329 550.358 235.386 550.61 236.308 551.114C237.229 551.617 237.951 552.297 238.475 553.152C238.999 554.007 239.261 554.958 239.261 556.006C239.261 556.755 239.125 557.487 238.853 558.203C238.588 558.912 238.124 559.705 237.461 560.58C236.805 561.448 235.893 562.509 234.727 563.761L230.153 568.653V568.812H239.619V571H226.772Z" fill="white"/>
<rect x="333" y="64" width="100" height="100" rx="12" fill="#BF6A02"/>
<path d="M366.466 108V87.6364H368.932V97.7386H369.17L378.318 87.6364H381.54L372.989 96.8239L381.54 108H378.557L371.477 98.5341L368.932 101.398V108H366.466ZM373.744 142L377.085 121.636H379.074L375.733 142H373.744ZM364.477 136.352L364.795 134.364H379.989L379.67 136.352H364.477ZM366.585 142L369.926 121.636H371.915L368.574 142H366.585ZM365.67 129.273L365.989 127.284H381.182L380.864 129.273H365.67ZM390.653 142.278C389.34 142.278 388.17 142.053 387.143 141.602C386.122 141.152 385.31 140.525 384.707 139.723C384.11 138.914 383.785 137.976 383.732 136.909H386.238C386.291 137.565 386.516 138.132 386.914 138.609C387.312 139.08 387.832 139.445 388.475 139.703C389.118 139.962 389.831 140.091 390.613 140.091C391.488 140.091 392.263 139.938 392.94 139.634C393.616 139.329 394.146 138.904 394.531 138.361C394.915 137.817 395.107 137.188 395.107 136.472C395.107 135.723 394.922 135.063 394.55 134.493C394.179 133.916 393.636 133.465 392.92 133.141C392.204 132.816 391.329 132.653 390.295 132.653H388.664V130.466H390.295C391.103 130.466 391.813 130.32 392.423 130.028C393.039 129.737 393.52 129.326 393.864 128.795C394.216 128.265 394.391 127.642 394.391 126.926C394.391 126.237 394.239 125.637 393.934 125.126C393.629 124.616 393.198 124.218 392.641 123.933C392.091 123.648 391.442 123.506 390.692 123.506C389.99 123.506 389.327 123.635 388.704 123.893C388.087 124.145 387.584 124.513 387.192 124.997C386.801 125.474 386.589 126.051 386.556 126.727H384.17C384.21 125.66 384.531 124.725 385.134 123.923C385.737 123.115 386.526 122.485 387.501 122.034C388.482 121.583 389.559 121.358 390.732 121.358C391.992 121.358 393.072 121.613 393.974 122.124C394.875 122.627 395.568 123.294 396.052 124.122C396.536 124.951 396.778 125.846 396.778 126.807C396.778 127.954 396.476 128.931 395.873 129.74C395.276 130.549 394.464 131.109 393.437 131.42V131.58C394.723 131.792 395.727 132.339 396.45 133.22C397.172 134.095 397.533 135.179 397.533 136.472C397.533 137.579 397.232 138.573 396.629 139.455C396.032 140.33 395.217 141.019 394.183 141.523C393.148 142.027 391.972 142.278 390.653 142.278Z" fill="white"/>
<rect x="3" y="385" width="31" height="186" fill="#D9D9D9"/>
<path d="M27.0002 509.233L6.63652 509.231L6.6369 504.925L15.6156 504.926L15.6156 504.658L6.63758 497.329L6.63804 492.168L15.7553 499.726L27.0017 492.081L27.0012 497.231L18.6286 502.808L21.2136 504.927L27.0005 504.927L27.0002 509.233ZM27.0022 486.418L27.0018 491.032L6.63876 484L6.63926 478.452L27.0035 471.434L27.0031 476.047L11.2924 481.147L11.2924 481.306L27.0022 486.418ZM18.9979 486.706L18.9989 475.808L22.3597 475.808L22.3587 486.706L18.9979 486.706ZM27.0037 468.983L6.6401 468.981L6.64081 460.947C6.64095 459.402 6.93605 458.086 7.52611 456.999C8.10954 455.912 8.92164 455.084 9.96241 454.514C10.9965 453.937 12.1898 453.649 13.542 453.649C14.8943 453.649 16.0875 453.941 17.1215 454.524C18.1555 455.108 18.9609 455.953 19.5375 457.06C20.1141 458.16 20.4023 459.493 20.4022 461.057L20.4017 466.178L16.9514 466.178L16.9518 461.753C16.9519 460.924 16.8094 460.242 16.5244 459.705C16.2328 459.161 15.8318 458.757 15.3214 458.491C14.8044 458.22 14.2111 458.084 13.5416 458.084C12.8655 458.084 12.2755 458.219 11.7717 458.491C11.2613 458.756 10.8668 459.161 10.5884 459.704C10.3033 460.248 10.1607 460.937 10.1606 461.772L10.1604 464.676L27.0041 464.677L27.0037 468.983ZM6.64209 446.546L27.0057 446.548L27.0053 450.854L6.64171 450.852L6.64209 446.546Z" fill="black"/>
<path d="M580.852 497H578.386C578.241 496.291 577.985 495.668 577.621 495.131C577.263 494.594 576.825 494.143 576.308 493.778C575.798 493.407 575.231 493.129 574.608 492.943C573.985 492.758 573.335 492.665 572.659 492.665C571.426 492.665 570.309 492.976 569.308 493.599C568.314 494.223 567.522 495.141 566.932 496.354C566.348 497.567 566.057 499.055 566.057 500.818C566.057 502.581 566.348 504.07 566.932 505.283C567.522 506.496 568.314 507.414 569.308 508.037C570.309 508.66 571.426 508.972 572.659 508.972C573.335 508.972 573.985 508.879 574.608 508.693C575.231 508.508 575.798 508.232 576.308 507.868C576.825 507.497 577.263 507.043 577.621 506.506C577.985 505.962 578.241 505.339 578.386 504.636H580.852C580.667 505.677 580.329 506.608 579.838 507.43C579.348 508.252 578.738 508.952 578.009 509.528C577.279 510.098 576.461 510.533 575.553 510.831C574.651 511.129 573.687 511.278 572.659 511.278C570.922 511.278 569.378 510.854 568.026 510.006C566.673 509.157 565.609 507.951 564.834 506.386C564.058 504.822 563.67 502.966 563.67 500.818C563.67 498.67 564.058 496.814 564.834 495.25C565.609 493.686 566.673 492.479 568.026 491.631C569.378 490.782 570.922 490.358 572.659 490.358C573.687 490.358 574.651 490.507 575.553 490.805C576.461 491.104 577.279 491.541 578.009 492.118C578.738 492.688 579.348 493.384 579.838 494.206C580.329 495.021 580.667 495.953 580.852 497ZM592.712 511V490.636H599.831C601.25 490.636 602.42 490.882 603.341 491.372C604.263 491.856 604.949 492.509 605.4 493.331C605.85 494.146 606.076 495.051 606.076 496.045C606.076 496.92 605.92 497.643 605.608 498.213C605.303 498.783 604.899 499.234 604.395 499.565C603.898 499.897 603.358 500.142 602.775 500.301V500.5C603.398 500.54 604.024 500.759 604.654 501.156C605.284 501.554 605.81 502.124 606.235 502.866C606.659 503.609 606.871 504.517 606.871 505.591C606.871 506.612 606.639 507.53 606.175 508.345C605.711 509.161 604.979 509.807 603.978 510.284C602.977 510.761 601.674 511 600.07 511H592.712ZM595.178 508.812H600.07C601.681 508.812 602.824 508.501 603.5 507.878C604.183 507.248 604.525 506.486 604.525 505.591C604.525 504.902 604.349 504.265 603.998 503.682C603.646 503.092 603.146 502.621 602.496 502.27C601.846 501.912 601.078 501.733 600.189 501.733H595.178V508.812ZM595.178 499.585H599.752C600.494 499.585 601.164 499.439 601.76 499.148C602.364 498.856 602.841 498.445 603.192 497.915C603.55 497.384 603.729 496.761 603.729 496.045C603.729 495.151 603.417 494.392 602.794 493.768C602.171 493.139 601.184 492.824 599.831 492.824H595.178V499.585ZM610.923 511V490.636H613.389V508.812H622.855V511H610.923ZM643.062 500.818C643.062 502.966 642.674 504.822 641.898 506.386C641.123 507.951 640.059 509.157 638.707 510.006C637.354 510.854 635.81 511.278 634.073 511.278C632.336 511.278 630.792 510.854 629.44 510.006C628.087 509.157 627.023 507.951 626.248 506.386C625.472 504.822 625.085 502.966 625.085 500.818C625.085 498.67 625.472 496.814 626.248 495.25C627.023 493.686 628.087 492.479 629.44 491.631C630.792 490.782 632.336 490.358 634.073 490.358C635.81 490.358 637.354 490.782 638.707 491.631C640.059 492.479 641.123 493.686 641.898 495.25C642.674 496.814 643.062 498.67 643.062 500.818ZM640.675 500.818C640.675 499.055 640.38 497.567 639.79 496.354C639.207 495.141 638.415 494.223 637.414 493.599C636.42 492.976 635.306 492.665 634.073 492.665C632.84 492.665 631.723 492.976 630.722 493.599C629.728 494.223 628.936 495.141 628.346 496.354C627.763 497.567 627.471 499.055 627.471 500.818C627.471 502.581 627.763 504.07 628.346 505.283C628.936 506.496 629.728 507.414 630.722 508.037C631.723 508.66 632.84 508.972 634.073 508.972C635.306 508.972 636.42 508.66 637.414 508.037C638.415 507.414 639.207 506.496 639.79 505.283C640.38 504.07 640.675 502.581 640.675 500.818ZM647.208 511V490.636H649.674V500.739H649.913L659.06 490.636H662.282L653.731 499.824L662.282 511H659.299L652.219 501.534L649.674 504.398V511H647.208ZM673.349 511V490.636H675.815V500.739H676.053L685.201 490.636H688.423L679.871 499.824L688.423 511H685.44L678.36 501.534L675.815 504.398V511H673.349ZM692.45 511H689.864L697.342 490.636H699.887L707.364 511H704.779L698.694 493.858H698.535L692.45 511ZM693.404 503.045H703.825V505.233H693.404V503.045ZM707.044 492.824V490.636H722.316V492.824H715.913V511H713.447V492.824H707.044ZM733.639 511V509.21L740.361 501.852C741.15 500.991 741.799 500.241 742.31 499.605C742.82 498.962 743.198 498.359 743.443 497.795C743.695 497.225 743.821 496.629 743.821 496.006C743.821 495.29 743.649 494.67 743.304 494.146C742.966 493.623 742.502 493.218 741.912 492.933C741.322 492.648 740.659 492.506 739.923 492.506C739.141 492.506 738.458 492.668 737.875 492.993C737.298 493.311 736.851 493.759 736.533 494.335C736.221 494.912 736.065 495.588 736.065 496.364H733.719C733.719 495.17 733.994 494.123 734.544 493.222C735.094 492.32 735.843 491.617 736.791 491.114C737.746 490.61 738.816 490.358 740.003 490.358C741.196 490.358 742.253 490.61 743.175 491.114C744.096 491.617 744.819 492.297 745.342 493.152C745.866 494.007 746.128 494.958 746.128 496.006C746.128 496.755 745.992 497.487 745.72 498.203C745.455 498.912 744.991 499.705 744.328 500.58C743.672 501.448 742.76 502.509 741.594 503.761L737.02 508.653V508.812H746.486V511H733.639Z" fill="black"/>
</svg>
