<svg width="800" height="600" viewBox="0 0 800 600" fill="none" xmlns="http://www.w3.org/2000/svg">
<rect width="800" height="600" fill="#F8FAFC"/>
<rect x="370" y="335" width="100" height="100" rx="12" fill="#009951"/>
<path d="M419.852 365H417.386C417.241 364.291 416.985 363.668 416.621 363.131C416.263 362.594 415.825 362.143 415.308 361.778C414.798 361.407 414.231 361.129 413.608 360.943C412.985 360.758 412.335 360.665 411.659 360.665C410.426 360.665 409.309 360.976 408.308 361.599C407.314 362.223 406.522 363.141 405.932 364.354C405.348 365.567 405.057 367.055 405.057 368.818C405.057 370.581 405.348 372.07 405.932 373.283C406.522 374.496 407.314 375.414 408.308 376.037C409.309 376.66 410.426 376.972 411.659 376.972C412.335 376.972 412.985 376.879 413.608 376.693C414.231 376.508 414.798 376.232 415.308 375.868C415.825 375.497 416.263 375.043 416.621 374.506C416.985 373.962 417.241 373.339 417.386 372.636H419.852C419.667 373.677 419.329 374.608 418.838 375.43C418.348 376.252 417.738 376.952 417.009 377.528C416.279 378.098 415.461 378.533 414.553 378.831C413.651 379.129 412.687 379.278 411.659 379.278C409.922 379.278 408.378 378.854 407.026 378.006C405.673 377.157 404.609 375.951 403.834 374.386C403.058 372.822 402.67 370.966 402.67 368.818C402.67 366.67 403.058 364.814 403.834 363.25C404.609 361.686 405.673 360.479 407.026 359.631C408.378 358.782 409.922 358.358 411.659 358.358C412.687 358.358 413.651 358.507 414.553 358.805C415.461 359.104 416.279 359.541 417.009 360.118C417.738 360.688 418.348 361.384 418.838 362.206C419.329 363.021 419.667 363.953 419.852 365ZM410.625 379.08H412.574L412.415 379.875C412.932 379.955 413.406 380.17 413.837 380.521C414.268 380.879 414.483 381.446 414.483 382.222C414.483 383.077 414.128 383.773 413.419 384.31C412.716 384.853 411.679 385.125 410.307 385.125L410.227 383.574C410.844 383.574 411.354 383.474 411.759 383.276C412.17 383.083 412.375 382.759 412.375 382.301C412.375 381.844 412.206 381.532 411.868 381.366C411.53 381.201 410.983 381.088 410.227 381.028L410.625 379.08ZM410.744 413L414.085 392.636H416.074L412.733 413H410.744ZM401.477 407.352L401.795 405.364H416.989L416.67 407.352H401.477ZM403.585 413L406.926 392.636H408.915L405.574 413H403.585ZM402.67 400.273L402.989 398.284H418.182L417.864 400.273H402.67ZM420.772 413V411.21L427.494 403.852C428.282 402.991 428.932 402.241 429.442 401.605C429.953 400.962 430.331 400.359 430.576 399.795C430.828 399.225 430.954 398.629 430.954 398.006C430.954 397.29 430.781 396.67 430.437 396.146C430.099 395.623 429.635 395.218 429.045 394.933C428.455 394.648 427.792 394.506 427.056 394.506C426.274 394.506 425.591 394.668 425.008 394.993C424.431 395.311 423.984 395.759 423.665 396.335C423.354 396.912 423.198 397.588 423.198 398.364H420.852C420.852 397.17 421.127 396.123 421.677 395.222C422.227 394.32 422.976 393.617 423.924 393.114C424.879 392.61 425.949 392.358 427.136 392.358C428.329 392.358 429.386 392.61 430.308 393.114C431.229 393.617 431.951 394.297 432.475 395.152C432.999 396.007 433.261 396.958 433.261 398.006C433.261 398.755 433.125 399.487 432.853 400.203C432.588 400.912 432.124 401.705 431.461 402.58C430.805 403.448 429.893 404.509 428.727 405.761L424.153 410.653V410.812H433.619V413H420.772Z" fill="white"/>
<rect x="480" y="335" width="100" height="100" rx="12" fill="#009951"/>
<path d="M529.852 365H527.386C527.241 364.291 526.985 363.668 526.621 363.131C526.263 362.594 525.825 362.143 525.308 361.778C524.798 361.407 524.231 361.129 523.608 360.943C522.985 360.758 522.335 360.665 521.659 360.665C520.426 360.665 519.309 360.976 518.308 361.599C517.314 362.223 516.522 363.141 515.932 364.354C515.348 365.567 515.057 367.055 515.057 368.818C515.057 370.581 515.348 372.07 515.932 373.283C516.522 374.496 517.314 375.414 518.308 376.037C519.309 376.66 520.426 376.972 521.659 376.972C522.335 376.972 522.985 376.879 523.608 376.693C524.231 376.508 524.798 376.232 525.308 375.868C525.825 375.497 526.263 375.043 526.621 374.506C526.985 373.962 527.241 373.339 527.386 372.636H529.852C529.667 373.677 529.329 374.608 528.838 375.43C528.348 376.252 527.738 376.952 527.009 377.528C526.279 378.098 525.461 378.533 524.553 378.831C523.651 379.129 522.687 379.278 521.659 379.278C519.922 379.278 518.378 378.854 517.026 378.006C515.673 377.157 514.609 375.951 513.834 374.386C513.058 372.822 512.67 370.966 512.67 368.818C512.67 366.67 513.058 364.814 513.834 363.25C514.609 361.686 515.673 360.479 517.026 359.631C518.378 358.782 519.922 358.358 521.659 358.358C522.687 358.358 523.651 358.507 524.553 358.805C525.461 359.104 526.279 359.541 527.009 360.118C527.738 360.688 528.348 361.384 528.838 362.206C529.329 363.021 529.667 363.953 529.852 365ZM520.625 379.08H522.574L522.415 379.875C522.932 379.955 523.406 380.17 523.837 380.521C524.268 380.879 524.483 381.446 524.483 382.222C524.483 383.077 524.128 383.773 523.419 384.31C522.716 384.853 521.679 385.125 520.307 385.125L520.227 383.574C520.844 383.574 521.354 383.474 521.759 383.276C522.17 383.083 522.375 382.759 522.375 382.301C522.375 381.844 522.206 381.532 521.868 381.366C521.53 381.201 520.983 381.088 520.227 381.028L520.625 379.08ZM520.744 413L524.085 392.636H526.074L522.733 413H520.744ZM511.477 407.352L511.795 405.364H526.989L526.67 407.352H511.477ZM513.585 413L516.926 392.636H518.915L515.574 413H513.585ZM512.67 400.273L512.989 398.284H528.182L527.864 400.273H512.67ZM537.653 413.278C536.34 413.278 535.17 413.053 534.143 412.602C533.122 412.152 532.31 411.525 531.707 410.723C531.11 409.914 530.785 408.976 530.732 407.909H533.238C533.291 408.565 533.516 409.132 533.914 409.609C534.312 410.08 534.832 410.445 535.475 410.703C536.118 410.962 536.831 411.091 537.613 411.091C538.488 411.091 539.263 410.938 539.94 410.634C540.616 410.329 541.146 409.904 541.531 409.361C541.915 408.817 542.107 408.188 542.107 407.472C542.107 406.723 541.922 406.063 541.55 405.493C541.179 404.916 540.636 404.465 539.92 404.141C539.204 403.816 538.329 403.653 537.295 403.653H535.664V401.466H537.295C538.103 401.466 538.813 401.32 539.423 401.028C540.039 400.737 540.52 400.326 540.864 399.795C541.216 399.265 541.391 398.642 541.391 397.926C541.391 397.237 541.239 396.637 540.934 396.126C540.629 395.616 540.198 395.218 539.641 394.933C539.091 394.648 538.442 394.506 537.692 394.506C536.99 394.506 536.327 394.635 535.704 394.893C535.087 395.145 534.584 395.513 534.192 395.997C533.801 396.474 533.589 397.051 533.556 397.727H531.17C531.21 396.66 531.531 395.725 532.134 394.923C532.737 394.115 533.526 393.485 534.501 393.034C535.482 392.583 536.559 392.358 537.732 392.358C538.992 392.358 540.072 392.613 540.974 393.124C541.875 393.627 542.568 394.294 543.052 395.122C543.536 395.951 543.778 396.846 543.778 397.807C543.778 398.954 543.476 399.931 542.873 400.74C542.276 401.549 541.464 402.109 540.437 402.42V402.58C541.723 402.792 542.727 403.339 543.45 404.22C544.172 405.095 544.533 406.179 544.533 407.472C544.533 408.579 544.232 409.573 543.629 410.455C543.032 411.33 542.217 412.019 541.183 412.523C540.148 413.027 538.972 413.278 537.653 413.278Z" fill="white"/>
<rect x="590" y="335" width="100" height="100" rx="12" fill="#009951"/>
<path d="M639.852 365H637.386C637.241 364.291 636.985 363.668 636.621 363.131C636.263 362.594 635.825 362.143 635.308 361.778C634.798 361.407 634.231 361.129 633.608 360.943C632.985 360.758 632.335 360.665 631.659 360.665C630.426 360.665 629.309 360.976 628.308 361.599C627.314 362.223 626.522 363.141 625.932 364.354C625.348 365.567 625.057 367.055 625.057 368.818C625.057 370.581 625.348 372.07 625.932 373.283C626.522 374.496 627.314 375.414 628.308 376.037C629.309 376.66 630.426 376.972 631.659 376.972C632.335 376.972 632.985 376.879 633.608 376.693C634.231 376.508 634.798 376.232 635.308 375.868C635.825 375.497 636.263 375.043 636.621 374.506C636.985 373.962 637.241 373.339 637.386 372.636H639.852C639.667 373.677 639.329 374.608 638.838 375.43C638.348 376.252 637.738 376.952 637.009 377.528C636.279 378.098 635.461 378.533 634.553 378.831C633.651 379.129 632.687 379.278 631.659 379.278C629.922 379.278 628.378 378.854 627.026 378.006C625.673 377.157 624.609 375.951 623.834 374.386C623.058 372.822 622.67 370.966 622.67 368.818C622.67 366.67 623.058 364.814 623.834 363.25C624.609 361.686 625.673 360.479 627.026 359.631C628.378 358.782 629.922 358.358 631.659 358.358C632.687 358.358 633.651 358.507 634.553 358.805C635.461 359.104 636.279 359.541 637.009 360.118C637.738 360.688 638.348 361.384 638.838 362.206C639.329 363.021 639.667 363.953 639.852 365ZM630.625 379.08H632.574L632.415 379.875C632.932 379.955 633.406 380.17 633.837 380.521C634.268 380.879 634.483 381.446 634.483 382.222C634.483 383.077 634.128 383.773 633.419 384.31C632.716 384.853 631.679 385.125 630.307 385.125L630.227 383.574C630.844 383.574 631.354 383.474 631.759 383.276C632.17 383.083 632.375 382.759 632.375 382.301C632.375 381.844 632.206 381.532 631.868 381.366C631.53 381.201 630.983 381.088 630.227 381.028L630.625 379.08ZM630.744 413L634.085 392.636H636.074L632.733 413H630.744ZM621.477 407.352L621.795 405.364H636.989L636.67 407.352H621.477ZM623.585 413L626.926 392.636H628.915L625.574 413H623.585ZM622.67 400.273L622.989 398.284H638.182L637.864 400.273H622.67ZM640.295 408.824V406.795L649.244 392.636H650.715V395.778H649.721L642.96 406.477V406.636H655.011V408.824H640.295ZM649.88 413V408.207V407.263V392.636H652.227V413H649.88Z" fill="white"/>
<rect x="700" y="335" width="100" height="100" rx="12" fill="#009951"/>
<path d="M749.852 365H747.386C747.241 364.291 746.985 363.668 746.621 363.131C746.263 362.594 745.825 362.143 745.308 361.778C744.798 361.407 744.231 361.129 743.608 360.943C742.985 360.758 742.335 360.665 741.659 360.665C740.426 360.665 739.309 360.976 738.308 361.599C737.314 362.223 736.522 363.141 735.932 364.354C735.348 365.567 735.057 367.055 735.057 368.818C735.057 370.581 735.348 372.07 735.932 373.283C736.522 374.496 737.314 375.414 738.308 376.037C739.309 376.66 740.426 376.972 741.659 376.972C742.335 376.972 742.985 376.879 743.608 376.693C744.231 376.508 744.798 376.232 745.308 375.868C745.825 375.497 746.263 375.043 746.621 374.506C746.985 373.962 747.241 373.339 747.386 372.636H749.852C749.667 373.677 749.329 374.608 748.838 375.43C748.348 376.252 747.738 376.952 747.009 377.528C746.279 378.098 745.461 378.533 744.553 378.831C743.651 379.129 742.687 379.278 741.659 379.278C739.922 379.278 738.378 378.854 737.026 378.006C735.673 377.157 734.609 375.951 733.834 374.386C733.058 372.822 732.67 370.966 732.67 368.818C732.67 366.67 733.058 364.814 733.834 363.25C734.609 361.686 735.673 360.479 737.026 359.631C738.378 358.782 739.922 358.358 741.659 358.358C742.687 358.358 743.651 358.507 744.553 358.805C745.461 359.104 746.279 359.541 747.009 360.118C747.738 360.688 748.348 361.384 748.838 362.206C749.329 363.021 749.667 363.953 749.852 365ZM740.625 379.08H742.574L742.415 379.875C742.932 379.955 743.406 380.17 743.837 380.521C744.268 380.879 744.483 381.446 744.483 382.222C744.483 383.077 744.128 383.773 743.419 384.31C742.716 384.853 741.679 385.125 740.307 385.125L740.227 383.574C740.844 383.574 741.354 383.474 741.759 383.276C742.17 383.083 742.375 382.759 742.375 382.301C742.375 381.844 742.206 381.532 741.868 381.366C741.53 381.201 740.983 381.088 740.227 381.028L740.625 379.08ZM740.744 413L744.085 392.636H746.074L742.733 413H740.744ZM731.477 407.352L731.795 405.364H746.989L746.67 407.352H731.477ZM733.585 413L736.926 392.636H738.915L735.574 413H733.585ZM732.67 400.273L732.989 398.284H748.182L747.864 400.273H732.67ZM757.136 413.278C755.969 413.278 754.918 413.046 753.984 412.582C753.049 412.118 752.3 411.482 751.737 410.673C751.173 409.865 750.865 408.943 750.812 407.909H753.198C753.291 408.83 753.709 409.593 754.451 410.196C755.2 410.793 756.095 411.091 757.136 411.091C757.971 411.091 758.713 410.895 759.363 410.504C760.019 410.113 760.533 409.576 760.904 408.893C761.282 408.204 761.471 407.425 761.471 406.557C761.471 405.669 761.275 404.876 760.884 404.18C760.5 403.478 759.969 402.924 759.293 402.52C758.617 402.116 757.845 401.91 756.977 401.903C756.353 401.897 755.714 401.993 755.058 402.192C754.401 402.384 753.861 402.633 753.437 402.938L751.13 402.659L752.363 392.636H762.942V394.824H754.431L753.715 400.83H753.835C754.252 400.498 754.776 400.223 755.406 400.004C756.035 399.786 756.692 399.676 757.374 399.676C758.621 399.676 759.731 399.974 760.705 400.571C761.686 401.161 762.455 401.97 763.012 402.997C763.576 404.025 763.857 405.198 763.857 406.517C763.857 407.816 763.566 408.976 762.982 409.997C762.406 411.011 761.61 411.813 760.596 412.403C759.582 412.987 758.428 413.278 757.136 413.278Z" fill="white"/>
<rect x="260" y="335" width="100" height="100" rx="12" fill="#009951"/>
<path d="M309.852 365H307.386C307.241 364.291 306.985 363.668 306.621 363.131C306.263 362.594 305.825 362.143 305.308 361.778C304.798 361.407 304.231 361.129 303.608 360.943C302.985 360.758 302.335 360.665 301.659 360.665C300.426 360.665 299.309 360.976 298.308 361.599C297.314 362.223 296.522 363.141 295.932 364.354C295.348 365.567 295.057 367.055 295.057 368.818C295.057 370.581 295.348 372.07 295.932 373.283C296.522 374.496 297.314 375.414 298.308 376.037C299.309 376.66 300.426 376.972 301.659 376.972C302.335 376.972 302.985 376.879 303.608 376.693C304.231 376.508 304.798 376.232 305.308 375.868C305.825 375.497 306.263 375.043 306.621 374.506C306.985 373.962 307.241 373.339 307.386 372.636H309.852C309.667 373.677 309.329 374.608 308.838 375.43C308.348 376.252 307.738 376.952 307.009 377.528C306.279 378.098 305.461 378.533 304.553 378.831C303.651 379.129 302.687 379.278 301.659 379.278C299.922 379.278 298.378 378.854 297.026 378.006C295.673 377.157 294.609 375.951 293.834 374.386C293.058 372.822 292.67 370.966 292.67 368.818C292.67 366.67 293.058 364.814 293.834 363.25C294.609 361.686 295.673 360.479 297.026 359.631C298.378 358.782 299.922 358.358 301.659 358.358C302.687 358.358 303.651 358.507 304.553 358.805C305.461 359.104 306.279 359.541 307.009 360.118C307.738 360.688 308.348 361.384 308.838 362.206C309.329 363.021 309.667 363.953 309.852 365ZM300.625 379.08H302.574L302.415 379.875C302.932 379.955 303.406 380.17 303.837 380.521C304.268 380.879 304.483 381.446 304.483 382.222C304.483 383.077 304.128 383.773 303.419 384.31C302.716 384.853 301.679 385.125 300.307 385.125L300.227 383.574C300.844 383.574 301.354 383.474 301.759 383.276C302.17 383.083 302.375 382.759 302.375 382.301C302.375 381.844 302.206 381.532 301.868 381.366C301.53 381.201 300.983 381.088 300.227 381.028L300.625 379.08ZM300.744 413L304.085 392.636H306.074L302.733 413H300.744ZM291.477 407.352L291.795 405.364H306.989L306.67 407.352H291.477ZM293.585 413L296.926 392.636H298.915L295.574 413H293.585ZM292.67 400.273L292.989 398.284H308.182L307.864 400.273H292.67ZM317.931 392.636V413H315.465V395.222H315.346L310.374 398.523V396.017L315.465 392.636H317.931Z" fill="white"/>
<rect y="200" width="100" height="100" rx="12" fill="#BF6A02"/>
<path d="M33.4659 244V223.636H35.9318V233.739H36.1705L45.3182 223.636H48.5398L39.9886 232.824L48.5398 244H45.5568L38.4773 234.534L35.9318 237.398V244H33.4659ZM40.7443 278L44.0852 257.636H46.0739L42.733 278H40.7443ZM31.4773 272.352L31.7955 270.364H46.9886L46.6705 272.352H31.4773ZM33.5852 278L36.9261 257.636H38.9148L35.5739 278H33.5852ZM32.6705 265.273L32.9886 263.284H48.1818L47.8636 265.273H32.6705ZM57.9311 257.636V278H55.4652V260.222H55.3459L50.3743 263.523V261.017L55.4652 257.636H57.9311Z" fill="white"/>
<rect x="110" y="200" width="100" height="100" rx="12" fill="#BF6A02"/>
<path d="M143.466 244V223.636H145.932V233.739H146.17L155.318 223.636H158.54L149.989 232.824L158.54 244H155.557L148.477 234.534L145.932 237.398V244H143.466ZM150.744 278L154.085 257.636H156.074L152.733 278H150.744ZM141.477 272.352L141.795 270.364H156.989L156.67 272.352H141.477ZM143.585 278L146.926 257.636H148.915L145.574 278H143.585ZM142.67 265.273L142.989 263.284H158.182L157.864 265.273H142.67ZM160.772 278V276.21L167.494 268.852C168.282 267.991 168.932 267.241 169.442 266.605C169.953 265.962 170.331 265.359 170.576 264.795C170.828 264.225 170.954 263.629 170.954 263.006C170.954 262.29 170.781 261.67 170.437 261.146C170.099 260.623 169.635 260.218 169.045 259.933C168.455 259.648 167.792 259.506 167.056 259.506C166.274 259.506 165.591 259.668 165.008 259.993C164.431 260.311 163.984 260.759 163.665 261.335C163.354 261.912 163.198 262.588 163.198 263.364H160.852C160.852 262.17 161.127 261.123 161.677 260.222C162.227 259.32 162.976 258.617 163.924 258.114C164.879 257.61 165.949 257.358 167.136 257.358C168.329 257.358 169.386 257.61 170.308 258.114C171.229 258.617 171.951 259.297 172.475 260.152C172.999 261.007 173.261 261.958 173.261 263.006C173.261 263.755 173.125 264.487 172.853 265.203C172.588 265.912 172.124 266.705 171.461 267.58C170.805 268.448 169.893 269.509 168.727 270.761L164.153 275.653V275.812H173.619V278H160.772Z" fill="white"/>
<rect x="220" y="200" width="100" height="100" rx="12" fill="#BF6A02"/>
<path d="M253.466 244V223.636H255.932V233.739H256.17L265.318 223.636H268.54L259.989 232.824L268.54 244H265.557L258.477 234.534L255.932 237.398V244H253.466ZM260.744 278L264.085 257.636H266.074L262.733 278H260.744ZM251.477 272.352L251.795 270.364H266.989L266.67 272.352H251.477ZM253.585 278L256.926 257.636H258.915L255.574 278H253.585ZM252.67 265.273L252.989 263.284H268.182L267.864 265.273H252.67ZM277.653 278.278C276.34 278.278 275.17 278.053 274.143 277.602C273.122 277.152 272.31 276.525 271.707 275.723C271.11 274.914 270.785 273.976 270.732 272.909H273.238C273.291 273.565 273.516 274.132 273.914 274.609C274.312 275.08 274.832 275.445 275.475 275.703C276.118 275.962 276.831 276.091 277.613 276.091C278.488 276.091 279.263 275.938 279.94 275.634C280.616 275.329 281.146 274.904 281.531 274.361C281.915 273.817 282.107 273.188 282.107 272.472C282.107 271.723 281.922 271.063 281.55 270.493C281.179 269.916 280.636 269.465 279.92 269.141C279.204 268.816 278.329 268.653 277.295 268.653H275.664V266.466H277.295C278.103 266.466 278.813 266.32 279.423 266.028C280.039 265.737 280.52 265.326 280.864 264.795C281.216 264.265 281.391 263.642 281.391 262.926C281.391 262.237 281.239 261.637 280.934 261.126C280.629 260.616 280.198 260.218 279.641 259.933C279.091 259.648 278.442 259.506 277.692 259.506C276.99 259.506 276.327 259.635 275.704 259.893C275.087 260.145 274.584 260.513 274.192 260.997C273.801 261.474 273.589 262.051 273.556 262.727H271.17C271.21 261.66 271.531 260.725 272.134 259.923C272.737 259.115 273.526 258.485 274.501 258.034C275.482 257.583 276.559 257.358 277.732 257.358C278.992 257.358 280.072 257.613 280.974 258.124C281.875 258.627 282.568 259.294 283.052 260.122C283.536 260.951 283.778 261.846 283.778 262.807C283.778 263.954 283.476 264.931 282.873 265.74C282.276 266.549 281.464 267.109 280.437 267.42V267.58C281.723 267.792 282.727 268.339 283.45 269.22C284.172 270.095 284.533 271.179 284.533 272.472C284.533 273.579 284.232 274.573 283.629 275.455C283.032 276.33 282.217 277.019 281.183 277.523C280.148 278.027 278.972 278.278 277.653 278.278Z" fill="white"/>
<rect x="3" y="385" width="31" height="186" fill="#D9D9D9"/>
<path d="M27.0002 509.233L6.63652 509.231L6.6369 504.925L15.6156 504.926L15.6156 504.658L6.63758 497.329L6.63804 492.168L15.7553 499.726L27.0017 492.081L27.0012 497.231L18.6286 502.808L21.2136 504.927L27.0005 504.927L27.0002 509.233ZM27.0022 486.418L27.0018 491.032L6.63876 484L6.63926 478.452L27.0035 471.434L27.0031 476.047L11.2924 481.147L11.2924 481.306L27.0022 486.418ZM18.9979 486.706L18.9989 475.808L22.3597 475.808L22.3587 486.706L18.9979 486.706ZM27.0037 468.983L6.6401 468.981L6.64081 460.947C6.64095 459.402 6.93605 458.086 7.52611 456.999C8.10954 455.912 8.92164 455.084 9.96241 454.514C10.9965 453.937 12.1898 453.649 13.542 453.649C14.8943 453.649 16.0875 453.941 17.1215 454.524C18.1555 455.108 18.9609 455.953 19.5375 457.06C20.1141 458.16 20.4023 459.493 20.4022 461.057L20.4017 466.178L16.9514 466.178L16.9518 461.753C16.9519 460.924 16.8094 460.242 16.5244 459.705C16.2328 459.161 15.8318 458.757 15.3214 458.491C14.8044 458.22 14.2111 458.084 13.5416 458.084C12.8655 458.084 12.2755 458.219 11.7717 458.491C11.2613 458.756 10.8668 459.161 10.5884 459.704C10.3033 460.248 10.1607 460.937 10.1606 461.772L10.1604 464.676L27.0041 464.677L27.0037 468.983ZM6.64209 446.546L27.0057 446.548L27.0053 450.854L6.64171 450.852L6.64209 446.546Z" fill="black"/>
<path d="M564.466 511V490.636H576.676V492.824H566.932V499.705H575.761V501.892H566.932V511H564.466ZM588.775 511V490.636H595.894C597.312 490.636 598.482 490.882 599.404 491.372C600.325 491.856 601.011 492.509 601.462 493.331C601.913 494.146 602.138 495.051 602.138 496.045C602.138 496.92 601.982 497.643 601.671 498.213C601.366 498.783 600.962 499.234 600.458 499.565C599.961 499.897 599.42 500.142 598.837 500.301V500.5C599.46 500.54 600.087 500.759 600.716 501.156C601.346 501.554 601.873 502.124 602.297 502.866C602.721 503.609 602.934 504.517 602.934 505.591C602.934 506.612 602.702 507.53 602.238 508.345C601.774 509.161 601.041 509.807 600.04 510.284C599.039 510.761 597.737 511 596.132 511H588.775ZM591.24 508.812H596.132C597.743 508.812 598.887 508.501 599.563 507.878C600.246 507.248 600.587 506.486 600.587 505.591C600.587 504.902 600.411 504.265 600.06 503.682C599.709 503.092 599.208 502.621 598.559 502.27C597.909 501.912 597.14 501.733 596.252 501.733H591.24V508.812ZM591.24 499.585H595.814C596.557 499.585 597.226 499.439 597.823 499.148C598.426 498.856 598.903 498.445 599.255 497.915C599.613 497.384 599.792 496.761 599.792 496.045C599.792 495.151 599.48 494.392 598.857 493.768C598.234 493.139 597.246 492.824 595.894 492.824H591.24V499.585ZM606.985 511V490.636H609.451V508.812H618.917V511H606.985ZM639.124 500.818C639.124 502.966 638.737 504.822 637.961 506.386C637.185 507.951 636.121 509.157 634.769 510.006C633.417 510.854 631.872 511.278 630.136 511.278C628.399 511.278 626.854 510.854 625.502 510.006C624.15 509.157 623.086 507.951 622.31 506.386C621.535 504.822 621.147 502.966 621.147 500.818C621.147 498.67 621.535 496.814 622.31 495.25C623.086 493.686 624.15 492.479 625.502 491.631C626.854 490.782 628.399 490.358 630.136 490.358C631.872 490.358 633.417 490.782 634.769 491.631C636.121 492.479 637.185 493.686 637.961 495.25C638.737 496.814 639.124 498.67 639.124 500.818ZM636.738 500.818C636.738 499.055 636.443 497.567 635.853 496.354C635.27 495.141 634.478 494.223 633.477 493.599C632.482 492.976 631.369 492.665 630.136 492.665C628.903 492.665 627.786 492.976 626.785 493.599C625.79 494.223 624.998 495.141 624.408 496.354C623.825 497.567 623.533 499.055 623.533 500.818C623.533 502.581 623.825 504.07 624.408 505.283C624.998 506.496 625.79 507.414 626.785 508.037C627.786 508.66 628.903 508.972 630.136 508.972C631.369 508.972 632.482 508.66 633.477 508.037C634.478 507.414 635.27 506.496 635.853 505.283C636.443 504.07 636.738 502.581 636.738 500.818ZM643.271 511V490.636H645.737V500.739H645.975L655.123 490.636H658.344L649.793 499.824L658.344 511H655.362L648.282 501.534L645.737 504.398V511H643.271ZM669.411 511V490.636H671.877V500.739H672.116L681.263 490.636H684.485L675.934 499.824L684.485 511H681.502L674.423 501.534L671.877 504.398V511H669.411ZM688.512 511H685.927L693.404 490.636H695.95L703.427 511H700.842L694.756 493.858H694.597L688.512 511ZM689.467 503.045H699.887V505.233H689.467V503.045ZM703.106 492.824V490.636H718.379V492.824H711.975V511H709.51V492.824H703.106ZM736.861 490.636V511H734.395V493.222H734.276L729.304 496.523V494.017L734.395 490.636H736.861Z" fill="black"/>
</svg>
