<svg width="800" height="600" viewBox="0 0 800 600" fill="none" xmlns="http://www.w3.org/2000/svg">
<rect width="800" height="600" fill="#F8FAFC"/>
<rect x="340" y="63" width="100" height="100" rx="12" fill="#009951"/>
<path d="M389.852 93H387.386C387.241 92.2907 386.985 91.6676 386.621 91.1307C386.263 90.5938 385.825 90.143 385.308 89.7784C384.798 89.4072 384.231 89.1288 383.608 88.9432C382.985 88.7576 382.335 88.6648 381.659 88.6648C380.426 88.6648 379.309 88.9763 378.308 89.5994C377.314 90.2225 376.522 91.1406 375.932 92.3537C375.348 93.5668 375.057 95.0549 375.057 96.8182C375.057 98.5814 375.348 100.07 375.932 101.283C376.522 102.496 377.314 103.414 378.308 104.037C379.309 104.66 380.426 104.972 381.659 104.972C382.335 104.972 382.985 104.879 383.608 104.693C384.231 104.508 384.798 104.232 385.308 103.868C385.825 103.497 386.263 103.043 386.621 102.506C386.985 101.962 387.241 101.339 387.386 100.636H389.852C389.667 101.677 389.329 102.608 388.838 103.43C388.348 104.252 387.738 104.952 387.009 105.528C386.279 106.098 385.461 106.533 384.553 106.831C383.651 107.129 382.687 107.278 381.659 107.278C379.922 107.278 378.378 106.854 377.026 106.006C375.673 105.157 374.609 103.951 373.834 102.386C373.058 100.822 372.67 98.9659 372.67 96.8182C372.67 94.6705 373.058 92.8144 373.834 91.25C374.609 89.6856 375.673 88.4792 377.026 87.6307C378.378 86.7822 379.922 86.358 381.659 86.358C382.687 86.358 383.651 86.5071 384.553 86.8054C385.461 87.1037 386.279 87.5412 387.009 88.1179C387.738 88.688 388.348 89.384 388.838 90.206C389.329 91.0213 389.667 91.9527 389.852 93ZM380.625 107.08H382.574L382.415 107.875C382.932 107.955 383.406 108.17 383.837 108.521C384.268 108.879 384.483 109.446 384.483 110.222C384.483 111.077 384.128 111.773 383.419 112.31C382.716 112.853 381.679 113.125 380.307 113.125L380.227 111.574C380.844 111.574 381.354 111.474 381.759 111.276C382.17 111.083 382.375 110.759 382.375 110.301C382.375 109.844 382.206 109.532 381.868 109.366C381.53 109.201 380.983 109.088 380.227 109.028L380.625 107.08ZM380.744 141L384.085 120.636H386.074L382.733 141H380.744ZM371.477 135.352L371.795 133.364H386.989L386.67 135.352H371.477ZM373.585 141L376.926 120.636H378.915L375.574 141H373.585ZM372.67 128.273L372.989 126.284H388.182L387.864 128.273H372.67ZM390.772 141V139.21L397.494 131.852C398.282 130.991 398.932 130.241 399.442 129.605C399.953 128.962 400.331 128.359 400.576 127.795C400.828 127.225 400.954 126.629 400.954 126.006C400.954 125.29 400.781 124.67 400.437 124.146C400.099 123.623 399.635 123.218 399.045 122.933C398.455 122.648 397.792 122.506 397.056 122.506C396.274 122.506 395.591 122.668 395.008 122.993C394.431 123.311 393.984 123.759 393.665 124.335C393.354 124.912 393.198 125.588 393.198 126.364H390.852C390.852 125.17 391.127 124.123 391.677 123.222C392.227 122.32 392.976 121.617 393.924 121.114C394.879 120.61 395.949 120.358 397.136 120.358C398.329 120.358 399.386 120.61 400.308 121.114C401.229 121.617 401.951 122.297 402.475 123.152C402.999 124.007 403.261 124.958 403.261 126.006C403.261 126.755 403.125 127.487 402.853 128.203C402.588 128.912 402.124 129.705 401.461 130.58C400.805 131.448 399.893 132.509 398.727 133.761L394.153 138.653V138.812H403.619V141H390.772Z" fill="white"/>
<rect x="460" y="63" width="100" height="100" rx="12" fill="#009951"/>
<path d="M509.852 93H507.386C507.241 92.2907 506.985 91.6676 506.621 91.1307C506.263 90.5938 505.825 90.143 505.308 89.7784C504.798 89.4072 504.231 89.1288 503.608 88.9432C502.985 88.7576 502.335 88.6648 501.659 88.6648C500.426 88.6648 499.309 88.9763 498.308 89.5994C497.314 90.2225 496.522 91.1406 495.932 92.3537C495.348 93.5668 495.057 95.0549 495.057 96.8182C495.057 98.5814 495.348 100.07 495.932 101.283C496.522 102.496 497.314 103.414 498.308 104.037C499.309 104.66 500.426 104.972 501.659 104.972C502.335 104.972 502.985 104.879 503.608 104.693C504.231 104.508 504.798 104.232 505.308 103.868C505.825 103.497 506.263 103.043 506.621 102.506C506.985 101.962 507.241 101.339 507.386 100.636H509.852C509.667 101.677 509.329 102.608 508.838 103.43C508.348 104.252 507.738 104.952 507.009 105.528C506.279 106.098 505.461 106.533 504.553 106.831C503.651 107.129 502.687 107.278 501.659 107.278C499.922 107.278 498.378 106.854 497.026 106.006C495.673 105.157 494.609 103.951 493.834 102.386C493.058 100.822 492.67 98.9659 492.67 96.8182C492.67 94.6705 493.058 92.8144 493.834 91.25C494.609 89.6856 495.673 88.4792 497.026 87.6307C498.378 86.7822 499.922 86.358 501.659 86.358C502.687 86.358 503.651 86.5071 504.553 86.8054C505.461 87.1037 506.279 87.5412 507.009 88.1179C507.738 88.688 508.348 89.384 508.838 90.206C509.329 91.0213 509.667 91.9527 509.852 93ZM500.625 107.08H502.574L502.415 107.875C502.932 107.955 503.406 108.17 503.837 108.521C504.268 108.879 504.483 109.446 504.483 110.222C504.483 111.077 504.128 111.773 503.419 112.31C502.716 112.853 501.679 113.125 500.307 113.125L500.227 111.574C500.844 111.574 501.354 111.474 501.759 111.276C502.17 111.083 502.375 110.759 502.375 110.301C502.375 109.844 502.206 109.532 501.868 109.366C501.53 109.201 500.983 109.088 500.227 109.028L500.625 107.08ZM500.744 141L504.085 120.636H506.074L502.733 141H500.744ZM491.477 135.352L491.795 133.364H506.989L506.67 135.352H491.477ZM493.585 141L496.926 120.636H498.915L495.574 141H493.585ZM492.67 128.273L492.989 126.284H508.182L507.864 128.273H492.67ZM517.653 141.278C516.34 141.278 515.17 141.053 514.143 140.602C513.122 140.152 512.31 139.525 511.707 138.723C511.11 137.914 510.785 136.976 510.732 135.909H513.238C513.291 136.565 513.516 137.132 513.914 137.609C514.312 138.08 514.832 138.445 515.475 138.703C516.118 138.962 516.831 139.091 517.613 139.091C518.488 139.091 519.263 138.938 519.94 138.634C520.616 138.329 521.146 137.904 521.531 137.361C521.915 136.817 522.107 136.188 522.107 135.472C522.107 134.723 521.922 134.063 521.55 133.493C521.179 132.916 520.636 132.465 519.92 132.141C519.204 131.816 518.329 131.653 517.295 131.653H515.664V129.466H517.295C518.103 129.466 518.813 129.32 519.423 129.028C520.039 128.737 520.52 128.326 520.864 127.795C521.216 127.265 521.391 126.642 521.391 125.926C521.391 125.237 521.239 124.637 520.934 124.126C520.629 123.616 520.198 123.218 519.641 122.933C519.091 122.648 518.442 122.506 517.692 122.506C516.99 122.506 516.327 122.635 515.704 122.893C515.087 123.145 514.584 123.513 514.192 123.997C513.801 124.474 513.589 125.051 513.556 125.727H511.17C511.21 124.66 511.531 123.725 512.134 122.923C512.737 122.115 513.526 121.485 514.501 121.034C515.482 120.583 516.559 120.358 517.732 120.358C518.992 120.358 520.072 120.613 520.974 121.124C521.875 121.627 522.568 122.294 523.052 123.122C523.536 123.951 523.778 124.846 523.778 125.807C523.778 126.954 523.476 127.931 522.873 128.74C522.276 129.549 521.464 130.109 520.437 130.42V130.58C521.723 130.792 522.727 131.339 523.45 132.22C524.172 133.095 524.533 134.179 524.533 135.472C524.533 136.579 524.232 137.573 523.629 138.455C523.032 139.33 522.217 140.019 521.183 140.523C520.148 141.027 518.972 141.278 517.653 141.278Z" fill="white"/>
<rect x="580" y="63" width="100" height="100" rx="12" fill="#009951"/>
<path d="M629.852 93H627.386C627.241 92.2907 626.985 91.6676 626.621 91.1307C626.263 90.5938 625.825 90.143 625.308 89.7784C624.798 89.4072 624.231 89.1288 623.608 88.9432C622.985 88.7576 622.335 88.6648 621.659 88.6648C620.426 88.6648 619.309 88.9763 618.308 89.5994C617.314 90.2225 616.522 91.1406 615.932 92.3537C615.348 93.5668 615.057 95.0549 615.057 96.8182C615.057 98.5814 615.348 100.07 615.932 101.283C616.522 102.496 617.314 103.414 618.308 104.037C619.309 104.66 620.426 104.972 621.659 104.972C622.335 104.972 622.985 104.879 623.608 104.693C624.231 104.508 624.798 104.232 625.308 103.868C625.825 103.497 626.263 103.043 626.621 102.506C626.985 101.962 627.241 101.339 627.386 100.636H629.852C629.667 101.677 629.329 102.608 628.838 103.43C628.348 104.252 627.738 104.952 627.009 105.528C626.279 106.098 625.461 106.533 624.553 106.831C623.651 107.129 622.687 107.278 621.659 107.278C619.922 107.278 618.378 106.854 617.026 106.006C615.673 105.157 614.609 103.951 613.834 102.386C613.058 100.822 612.67 98.9659 612.67 96.8182C612.67 94.6705 613.058 92.8144 613.834 91.25C614.609 89.6856 615.673 88.4792 617.026 87.6307C618.378 86.7822 619.922 86.358 621.659 86.358C622.687 86.358 623.651 86.5071 624.553 86.8054C625.461 87.1037 626.279 87.5412 627.009 88.1179C627.738 88.688 628.348 89.384 628.838 90.206C629.329 91.0213 629.667 91.9527 629.852 93ZM620.625 107.08H622.574L622.415 107.875C622.932 107.955 623.406 108.17 623.837 108.521C624.268 108.879 624.483 109.446 624.483 110.222C624.483 111.077 624.128 111.773 623.419 112.31C622.716 112.853 621.679 113.125 620.307 113.125L620.227 111.574C620.844 111.574 621.354 111.474 621.759 111.276C622.17 111.083 622.375 110.759 622.375 110.301C622.375 109.844 622.206 109.532 621.868 109.366C621.53 109.201 620.983 109.088 620.227 109.028L620.625 107.08ZM620.744 141L624.085 120.636H626.074L622.733 141H620.744ZM611.477 135.352L611.795 133.364H626.989L626.67 135.352H611.477ZM613.585 141L616.926 120.636H618.915L615.574 141H613.585ZM612.67 128.273L612.989 126.284H628.182L627.864 128.273H612.67ZM630.295 136.824V134.795L639.244 120.636H640.715V123.778H639.721L632.96 134.477V134.636H645.011V136.824H630.295ZM639.88 141V136.207V135.263V120.636H642.227V141H639.88Z" fill="white"/>
<rect x="700" y="63" width="100" height="100" rx="12" fill="#009951"/>
<path d="M749.852 93H747.386C747.241 92.2907 746.985 91.6676 746.621 91.1307C746.263 90.5938 745.825 90.143 745.308 89.7784C744.798 89.4072 744.231 89.1288 743.608 88.9432C742.985 88.7576 742.335 88.6648 741.659 88.6648C740.426 88.6648 739.309 88.9763 738.308 89.5994C737.314 90.2225 736.522 91.1406 735.932 92.3537C735.348 93.5668 735.057 95.0549 735.057 96.8182C735.057 98.5814 735.348 100.07 735.932 101.283C736.522 102.496 737.314 103.414 738.308 104.037C739.309 104.66 740.426 104.972 741.659 104.972C742.335 104.972 742.985 104.879 743.608 104.693C744.231 104.508 744.798 104.232 745.308 103.868C745.825 103.497 746.263 103.043 746.621 102.506C746.985 101.962 747.241 101.339 747.386 100.636H749.852C749.667 101.677 749.329 102.608 748.838 103.43C748.348 104.252 747.738 104.952 747.009 105.528C746.279 106.098 745.461 106.533 744.553 106.831C743.651 107.129 742.687 107.278 741.659 107.278C739.922 107.278 738.378 106.854 737.026 106.006C735.673 105.157 734.609 103.951 733.834 102.386C733.058 100.822 732.67 98.9659 732.67 96.8182C732.67 94.6705 733.058 92.8144 733.834 91.25C734.609 89.6856 735.673 88.4792 737.026 87.6307C738.378 86.7822 739.922 86.358 741.659 86.358C742.687 86.358 743.651 86.5071 744.553 86.8054C745.461 87.1037 746.279 87.5412 747.009 88.1179C747.738 88.688 748.348 89.384 748.838 90.206C749.329 91.0213 749.667 91.9527 749.852 93ZM740.625 107.08H742.574L742.415 107.875C742.932 107.955 743.406 108.17 743.837 108.521C744.268 108.879 744.483 109.446 744.483 110.222C744.483 111.077 744.128 111.773 743.419 112.31C742.716 112.853 741.679 113.125 740.307 113.125L740.227 111.574C740.844 111.574 741.354 111.474 741.759 111.276C742.17 111.083 742.375 110.759 742.375 110.301C742.375 109.844 742.206 109.532 741.868 109.366C741.53 109.201 740.983 109.088 740.227 109.028L740.625 107.08ZM740.744 141L744.085 120.636H746.074L742.733 141H740.744ZM731.477 135.352L731.795 133.364H746.989L746.67 135.352H731.477ZM733.585 141L736.926 120.636H738.915L735.574 141H733.585ZM732.67 128.273L732.989 126.284H748.182L747.864 128.273H732.67ZM757.136 141.278C755.969 141.278 754.918 141.046 753.984 140.582C753.049 140.118 752.3 139.482 751.737 138.673C751.173 137.865 750.865 136.943 750.812 135.909H753.198C753.291 136.83 753.709 137.593 754.451 138.196C755.2 138.793 756.095 139.091 757.136 139.091C757.971 139.091 758.713 138.895 759.363 138.504C760.019 138.113 760.533 137.576 760.904 136.893C761.282 136.204 761.471 135.425 761.471 134.557C761.471 133.669 761.275 132.876 760.884 132.18C760.5 131.478 759.969 130.924 759.293 130.52C758.617 130.116 757.845 129.91 756.977 129.903C756.353 129.897 755.714 129.993 755.058 130.192C754.401 130.384 753.861 130.633 753.437 130.938L751.13 130.659L752.363 120.636H762.942V122.824H754.431L753.715 128.83H753.835C754.252 128.498 754.776 128.223 755.406 128.004C756.035 127.786 756.692 127.676 757.374 127.676C758.621 127.676 759.731 127.974 760.705 128.571C761.686 129.161 762.455 129.97 763.012 130.997C763.576 132.025 763.857 133.198 763.857 134.517C763.857 135.816 763.566 136.976 762.982 137.997C762.406 139.011 761.61 139.813 760.596 140.403C759.582 140.987 758.428 141.278 757.136 141.278Z" fill="white"/>
<rect x="220" y="63" width="100" height="100" rx="12" fill="#009951"/>
<path d="M269.852 93H267.386C267.241 92.2907 266.985 91.6676 266.621 91.1307C266.263 90.5938 265.825 90.143 265.308 89.7784C264.798 89.4072 264.231 89.1288 263.608 88.9432C262.985 88.7576 262.335 88.6648 261.659 88.6648C260.426 88.6648 259.309 88.9763 258.308 89.5994C257.314 90.2225 256.522 91.1406 255.932 92.3537C255.348 93.5668 255.057 95.0549 255.057 96.8182C255.057 98.5814 255.348 100.07 255.932 101.283C256.522 102.496 257.314 103.414 258.308 104.037C259.309 104.66 260.426 104.972 261.659 104.972C262.335 104.972 262.985 104.879 263.608 104.693C264.231 104.508 264.798 104.232 265.308 103.868C265.825 103.497 266.263 103.043 266.621 102.506C266.985 101.962 267.241 101.339 267.386 100.636H269.852C269.667 101.677 269.329 102.608 268.838 103.43C268.348 104.252 267.738 104.952 267.009 105.528C266.279 106.098 265.461 106.533 264.553 106.831C263.651 107.129 262.687 107.278 261.659 107.278C259.922 107.278 258.378 106.854 257.026 106.006C255.673 105.157 254.609 103.951 253.834 102.386C253.058 100.822 252.67 98.9659 252.67 96.8182C252.67 94.6705 253.058 92.8144 253.834 91.25C254.609 89.6856 255.673 88.4792 257.026 87.6307C258.378 86.7822 259.922 86.358 261.659 86.358C262.687 86.358 263.651 86.5071 264.553 86.8054C265.461 87.1037 266.279 87.5412 267.009 88.1179C267.738 88.688 268.348 89.384 268.838 90.206C269.329 91.0213 269.667 91.9527 269.852 93ZM260.625 107.08H262.574L262.415 107.875C262.932 107.955 263.406 108.17 263.837 108.521C264.268 108.879 264.483 109.446 264.483 110.222C264.483 111.077 264.128 111.773 263.419 112.31C262.716 112.853 261.679 113.125 260.307 113.125L260.227 111.574C260.844 111.574 261.354 111.474 261.759 111.276C262.17 111.083 262.375 110.759 262.375 110.301C262.375 109.844 262.206 109.532 261.868 109.366C261.53 109.201 260.983 109.088 260.227 109.028L260.625 107.08ZM260.744 141L264.085 120.636H266.074L262.733 141H260.744ZM251.477 135.352L251.795 133.364H266.989L266.67 135.352H251.477ZM253.585 141L256.926 120.636H258.915L255.574 141H253.585ZM252.67 128.273L252.989 126.284H268.182L267.864 128.273H252.67ZM277.931 120.636V141H275.465V123.222H275.346L270.374 126.523V124.017L275.465 120.636H277.931Z" fill="white"/>
<rect y="237" width="100" height="100" rx="12" fill="#BF6A02"/>
<path d="M33.4659 281V260.636H35.9318V270.739H36.1705L45.3182 260.636H48.5398L39.9886 269.824L48.5398 281H45.5568L38.4773 271.534L35.9318 274.398V281H33.4659ZM40.7443 315L44.0852 294.636H46.0739L42.733 315H40.7443ZM31.4773 309.352L31.7955 307.364H46.9886L46.6705 309.352H31.4773ZM33.5852 315L36.9261 294.636H38.9148L35.5739 315H33.5852ZM32.6705 302.273L32.9886 300.284H48.1818L47.8636 302.273H32.6705ZM57.9311 294.636V315H55.4652V297.222H55.3459L50.3743 300.523V298.017L55.4652 294.636H57.9311Z" fill="white"/>
<rect x="100" y="63" width="100" height="100" rx="12" fill="#BF6A02"/>
<path d="M133.466 107V86.6364H135.932V96.7386H136.17L145.318 86.6364H148.54L139.989 95.8239L148.54 107H145.557L138.477 97.5341L135.932 100.398V107H133.466ZM140.744 141L144.085 120.636H146.074L142.733 141H140.744ZM131.477 135.352L131.795 133.364H146.989L146.67 135.352H131.477ZM133.585 141L136.926 120.636H138.915L135.574 141H133.585ZM132.67 128.273L132.989 126.284H148.182L147.864 128.273H132.67ZM150.772 141V139.21L157.494 131.852C158.282 130.991 158.932 130.241 159.442 129.605C159.953 128.962 160.331 128.359 160.576 127.795C160.828 127.225 160.954 126.629 160.954 126.006C160.954 125.29 160.781 124.67 160.437 124.146C160.099 123.623 159.635 123.218 159.045 122.933C158.455 122.648 157.792 122.506 157.056 122.506C156.274 122.506 155.591 122.668 155.008 122.993C154.431 123.311 153.984 123.759 153.665 124.335C153.354 124.912 153.198 125.588 153.198 126.364H150.852C150.852 125.17 151.127 124.123 151.677 123.222C152.227 122.32 152.976 121.617 153.924 121.114C154.879 120.61 155.949 120.358 157.136 120.358C158.329 120.358 159.386 120.61 160.308 121.114C161.229 121.617 161.951 122.297 162.475 123.152C162.999 124.007 163.261 124.958 163.261 126.006C163.261 126.755 163.125 127.487 162.853 128.203C162.588 128.912 162.124 129.705 161.461 130.58C160.805 131.448 159.893 132.509 158.727 133.761L154.153 138.653V138.812H163.619V141H150.772Z" fill="white"/>
<rect x="3" y="385" width="31" height="186" fill="#D9D9D9"/>
<path d="M27.0002 509.233L6.63652 509.231L6.6369 504.925L15.6156 504.926L15.6156 504.658L6.63758 497.329L6.63804 492.168L15.7553 499.726L27.0017 492.081L27.0012 497.231L18.6286 502.808L21.2136 504.927L27.0005 504.927L27.0002 509.233ZM27.0022 486.418L27.0018 491.032L6.63876 484L6.63926 478.452L27.0035 471.434L27.0031 476.047L11.2924 481.147L11.2924 481.306L27.0022 486.418ZM18.9979 486.706L18.9989 475.808L22.3597 475.808L22.3587 486.706L18.9979 486.706ZM27.0037 468.983L6.6401 468.981L6.64081 460.947C6.64095 459.402 6.93605 458.086 7.52611 456.999C8.10954 455.912 8.92164 455.084 9.96241 454.514C10.9965 453.937 12.1898 453.649 13.542 453.649C14.8943 453.649 16.0875 453.941 17.1215 454.524C18.1555 455.108 18.9609 455.953 19.5375 457.06C20.1141 458.16 20.4023 459.493 20.4022 461.057L20.4017 466.178L16.9514 466.178L16.9518 461.753C16.9519 460.924 16.8094 460.242 16.5244 459.705C16.2328 459.161 15.8318 458.757 15.3214 458.491C14.8044 458.22 14.2111 458.084 13.5416 458.084C12.8655 458.084 12.2755 458.219 11.7717 458.491C11.2613 458.756 10.8668 459.161 10.5884 459.704C10.3033 460.248 10.1607 460.937 10.1606 461.772L10.1604 464.676L27.0041 464.677L27.0037 468.983ZM6.64209 446.546L27.0057 446.548L27.0053 450.854L6.64171 450.852L6.64209 446.546Z" fill="black"/>
<path d="M564.466 511V490.636H576.676V492.824H566.932V499.705H575.761V501.892H566.932V511H564.466ZM588.775 511V490.636H595.894C597.312 490.636 598.482 490.882 599.404 491.372C600.325 491.856 601.011 492.509 601.462 493.331C601.913 494.146 602.138 495.051 602.138 496.045C602.138 496.92 601.982 497.643 601.671 498.213C601.366 498.783 600.962 499.234 600.458 499.565C599.961 499.897 599.42 500.142 598.837 500.301V500.5C599.46 500.54 600.087 500.759 600.716 501.156C601.346 501.554 601.873 502.124 602.297 502.866C602.721 503.609 602.934 504.517 602.934 505.591C602.934 506.612 602.702 507.53 602.238 508.345C601.774 509.161 601.041 509.807 600.04 510.284C599.039 510.761 597.737 511 596.132 511H588.775ZM591.24 508.812H596.132C597.743 508.812 598.887 508.501 599.563 507.878C600.246 507.248 600.587 506.486 600.587 505.591C600.587 504.902 600.411 504.265 600.06 503.682C599.709 503.092 599.208 502.621 598.559 502.27C597.909 501.912 597.14 501.733 596.252 501.733H591.24V508.812ZM591.24 499.585H595.814C596.557 499.585 597.226 499.439 597.823 499.148C598.426 498.856 598.903 498.445 599.255 497.915C599.613 497.384 599.792 496.761 599.792 496.045C599.792 495.151 599.48 494.392 598.857 493.768C598.234 493.139 597.246 492.824 595.894 492.824H591.24V499.585ZM606.985 511V490.636H609.451V508.812H618.917V511H606.985ZM639.124 500.818C639.124 502.966 638.737 504.822 637.961 506.386C637.185 507.951 636.121 509.157 634.769 510.006C633.417 510.854 631.872 511.278 630.136 511.278C628.399 511.278 626.854 510.854 625.502 510.006C624.15 509.157 623.086 507.951 622.31 506.386C621.535 504.822 621.147 502.966 621.147 500.818C621.147 498.67 621.535 496.814 622.31 495.25C623.086 493.686 624.15 492.479 625.502 491.631C626.854 490.782 628.399 490.358 630.136 490.358C631.872 490.358 633.417 490.782 634.769 491.631C636.121 492.479 637.185 493.686 637.961 495.25C638.737 496.814 639.124 498.67 639.124 500.818ZM636.738 500.818C636.738 499.055 636.443 497.567 635.853 496.354C635.27 495.141 634.478 494.223 633.477 493.599C632.482 492.976 631.369 492.665 630.136 492.665C628.903 492.665 627.786 492.976 626.785 493.599C625.79 494.223 624.998 495.141 624.408 496.354C623.825 497.567 623.533 499.055 623.533 500.818C623.533 502.581 623.825 504.07 624.408 505.283C624.998 506.496 625.79 507.414 626.785 508.037C627.786 508.66 628.903 508.972 630.136 508.972C631.369 508.972 632.482 508.66 633.477 508.037C634.478 507.414 635.27 506.496 635.853 505.283C636.443 504.07 636.738 502.581 636.738 500.818ZM643.271 511V490.636H645.737V500.739H645.975L655.123 490.636H658.344L649.793 499.824L658.344 511H655.362L648.282 501.534L645.737 504.398V511H643.271ZM669.411 511V490.636H671.877V500.739H672.116L681.263 490.636H684.485L675.934 499.824L684.485 511H681.502L674.423 501.534L671.877 504.398V511H669.411ZM688.512 511H685.927L693.404 490.636H695.95L703.427 511H700.842L694.756 493.858H694.597L688.512 511ZM689.467 503.045H699.887V505.233H689.467V503.045ZM703.106 492.824V490.636H718.379V492.824H711.975V511H709.51V492.824H703.106ZM729.702 511V509.21L736.423 501.852C737.212 500.991 737.862 500.241 738.372 499.605C738.883 498.962 739.26 498.359 739.506 497.795C739.758 497.225 739.884 496.629 739.884 496.006C739.884 495.29 739.711 494.67 739.366 494.146C739.028 493.623 738.564 493.218 737.974 492.933C737.384 492.648 736.722 492.506 735.986 492.506C735.204 492.506 734.521 492.668 733.938 492.993C733.361 493.311 732.913 493.759 732.595 494.335C732.284 494.912 732.128 495.588 732.128 496.364H729.781C729.781 495.17 730.056 494.123 730.607 493.222C731.157 492.32 731.906 491.617 732.854 491.114C733.808 490.61 734.879 490.358 736.065 490.358C737.259 490.358 738.316 490.61 739.237 491.114C740.159 491.617 740.881 492.297 741.405 493.152C741.929 494.007 742.19 494.958 742.19 496.006C742.19 496.755 742.054 497.487 741.783 498.203C741.518 498.912 741.054 499.705 740.391 500.58C739.734 501.448 738.823 502.509 737.656 503.761L733.082 508.653V508.812H742.548V511H729.702Z" fill="black"/>
</svg>
